<svg width="32" height="32" viewBox="0 0 32 32" fill="none" xmlns="http://www.w3.org/2000/svg" xmlns:xlink="http://www.w3.org/1999/xlink">
<path d="M16,2.667C8.648,2.667 2.667,8.648 2.667,16C2.667,23.352 8.648,29.333 16,29.333C23.352,29.333 29.333,23.352 29.333,16C29.333,8.648 23.352,2.667 16,2.667ZM16,26.667C10.119,26.667 5.333,21.881 5.333,16C5.333,10.119 10.119,5.333 16,5.333C21.881,5.333 26.667,10.119 26.667,16C26.667,21.881 21.881,26.667 16,26.667Z" fill="#4C6ED7"/>
<path d="M17.333,9.333L14.667,9.333L14.667,17.333L22.667,17.333L22.667,14.667L17.333,14.667L17.333,9.333Z" fill="#4C6ED7"/>
</svg>
