<svg width="48" height="48" viewBox="0 0 48 48" fill="none" xmlns="http://www.w3.org/2000/svg" xmlns:xlink="http://www.w3.org/1999/xlink">
<path d="M23.998,14.754C21.545,14.754 19.193,15.728 17.459,17.463C15.724,19.197 14.75,21.549 14.75,24.002C14.75,26.455 15.724,28.807 17.459,30.541C19.193,32.276 21.545,33.25 23.998,33.25C26.451,33.25 28.803,32.276 30.537,30.541C32.272,28.807 33.246,26.455 33.246,24.002C33.246,21.549 32.272,19.197 30.537,17.463C28.803,15.728 26.451,14.754 23.998,14.754L23.998,14.754ZM23.998,30.008C22.405,30.008 20.876,29.375 19.75,28.248C18.623,27.121 17.99,25.593 17.99,24C17.99,22.406 18.623,20.878 19.75,19.752C20.876,18.625 22.405,17.992 23.998,17.992C25.591,17.992 27.12,18.625 28.246,19.752C29.373,20.878 30.006,22.406 30.006,24C30.006,25.593 29.373,27.121 28.246,28.248C27.12,29.375 25.591,30.008 23.998,30.008L23.998,30.008Z" fill="#FDFDFD"/>
<path d="M33.612,16.57C34.803,16.57 35.768,15.605 35.768,14.414C35.768,13.223 34.803,12.258 33.612,12.258C32.421,12.258 31.456,13.223 31.456,14.414C31.456,15.605 32.421,16.57 33.612,16.57Z" fill="#FDFDFD"/>
<path d="M41.066,12.222C40.603,11.026 39.895,9.94 38.989,9.034C38.082,8.127 36.996,7.42 35.8,6.958C34.401,6.432 32.922,6.148 31.428,6.118C29.502,6.034 28.892,6.01 24.008,6.01C19.124,6.01 18.498,6.01 16.588,6.118C15.095,6.147 13.618,6.431 12.22,6.958C11.024,7.42 9.938,8.127 9.031,9.033C8.124,9.94 7.416,11.026 6.954,12.222C6.429,13.621 6.145,15.099 6.116,16.594C6.03,18.518 6.004,19.128 6.004,24.014C6.004,28.898 6.004,29.52 6.116,31.434C6.146,32.93 6.428,34.406 6.954,35.808C7.418,37.003 8.126,38.089 9.033,38.995C9.94,39.902 11.026,40.609 12.222,41.072C13.617,41.618 15.095,41.923 16.592,41.972C18.518,42.056 19.128,42.082 24.012,42.082C28.896,42.082 29.522,42.082 31.432,41.972C32.926,41.941 34.404,41.658 35.804,41.134C37,40.67 38.085,39.962 38.992,39.056C39.899,38.149 40.606,37.063 41.07,35.868C41.596,34.468 41.878,32.992 41.908,31.496C41.994,29.572 42.02,28.962 42.02,24.076C42.02,19.19 42.02,18.57 41.908,16.656C41.885,15.14 41.6,13.64 41.066,12.222L41.066,12.222ZM38.63,31.286C38.617,32.438 38.407,33.58 38.008,34.662C37.708,35.44 37.248,36.146 36.658,36.735C36.068,37.325 35.362,37.784 34.584,38.084C33.514,38.481 32.385,38.691 31.244,38.706C29.344,38.794 28.808,38.816 23.936,38.816C19.06,38.816 18.562,38.816 16.626,38.706C15.486,38.692 14.357,38.481 13.288,38.084C12.507,37.786 11.798,37.327 11.206,36.738C10.614,36.148 10.152,35.441 9.85,34.662C9.457,33.592 9.247,32.463 9.228,31.324C9.142,29.424 9.122,28.888 9.122,24.016C9.122,19.142 9.122,18.644 9.228,16.706C9.241,15.554 9.451,14.413 9.85,13.332C10.46,11.754 11.71,10.512 13.288,9.908C14.357,9.512 15.486,9.302 16.626,9.286C18.528,9.2 19.062,9.176 23.936,9.176C28.81,9.176 29.31,9.176 31.244,9.286C32.385,9.299 33.515,9.51 34.584,9.908C35.362,10.208 36.068,10.668 36.658,11.258C37.248,11.847 37.707,12.554 38.008,13.332C38.401,14.402 38.611,15.53 38.63,16.67C38.716,18.572 38.738,19.106 38.738,23.98C38.738,28.852 38.738,29.376 38.652,31.288L38.63,31.288L38.63,31.286Z" fill="#FDFDFD"/>
</svg>
