<svg width="32" height="32" viewBox="0 0 32 32" fill="none" xmlns="http://www.w3.org/2000/svg" xmlns:xlink="http://www.w3.org/1999/xlink">
<path d="M28.898,24.738C28.041,23.973 27.29,23.097 26.667,22.133C25.986,20.802 25.578,19.349 25.467,17.858L25.467,13.467C25.472,11.125 24.623,8.862 23.078,7.102C21.533,5.342 19.398,4.208 17.075,3.911L17.075,2.764C17.075,2.45 16.95,2.148 16.728,1.925C16.505,1.703 16.203,1.578 15.889,1.578C15.574,1.578 15.272,1.703 15.05,1.925C14.827,2.148 14.702,2.45 14.702,2.764L14.702,3.929C12.4,4.247 10.291,5.389 8.767,7.142C7.242,8.896 6.404,11.143 6.409,13.467L6.409,17.858C6.297,19.349 5.889,20.802 5.209,22.133C4.596,23.095 3.858,23.971 3.013,24.738C2.918,24.821 2.842,24.923 2.79,25.038C2.738,25.153 2.711,25.278 2.711,25.404L2.711,26.613C2.711,26.849 2.805,27.075 2.971,27.242C3.138,27.408 3.364,27.502 3.6,27.502L28.311,27.502C28.547,27.502 28.773,27.408 28.94,27.242C29.106,27.075 29.2,26.849 29.2,26.613L29.2,25.404C29.2,25.278 29.173,25.153 29.121,25.038C29.068,24.923 28.992,24.821 28.898,24.738ZM4.56,25.724C5.387,24.925 6.115,24.03 6.729,23.058C7.586,21.45 8.086,19.676 8.195,17.858L8.195,13.467C8.16,12.425 8.335,11.387 8.709,10.414C9.084,9.441 9.65,8.553 10.374,7.804C11.099,7.055 11.967,6.459 12.926,6.052C13.886,5.645 14.917,5.435 15.96,5.435C17.002,5.435 18.034,5.645 18.993,6.052C19.953,6.459 20.821,7.055 21.545,7.804C22.27,8.553 22.836,9.441 23.211,10.414C23.585,11.387 23.76,12.425 23.724,13.467L23.724,17.858C23.833,19.676 24.334,21.45 25.191,23.058C25.805,24.03 26.533,24.925 27.36,25.724L4.56,25.724Z" fill="#4C6ED7"/>
<path d="M16,30.471C16.56,30.458 17.097,30.248 17.517,29.877C17.937,29.506 18.212,28.998 18.293,28.444L13.618,28.444C13.702,29.014 13.99,29.533 14.428,29.906C14.866,30.278 15.425,30.479 16,30.471L16,30.471Z" fill="#4C6ED7"/>
</svg>
