<svg width="22" height="10" viewBox="0 0 22 10" fill="none" xmlns="http://www.w3.org/2000/svg" xmlns:xlink="http://www.w3.org/1999/xlink">
<g opacity="0.25">
<path d="M10.864,0.823C9.245,1.008 7.071,1.378 5.248,2.664C7.122,1.894 11.445,1.6 11.14,3.154C12.019,2.811 13.105,2.555 14.331,2.455C15.517,1.358 13.763,0.492 10.864,0.823Z" clip-rule="evenodd" fill-rule="evenodd" fill="#01052D"/>
</g>
<g opacity="0.15">
<path d="M10.864,0.823C9.245,1.008 7.071,1.378 5.248,2.664C7.829,1.331 13.716,0.49 13.328,2.576C13.651,2.524 13.985,2.484 14.331,2.455C15.517,1.358 13.763,0.492 10.864,0.823Z" clip-rule="evenodd" fill-rule="evenodd" fill="#01052D"/>
</g>
<path d="M5.248,2.664C8.858,0.502 14.943,0.326 14.294,2.869C13.996,4.029 12.112,5.158 9.181,6.123C8.082,6.484 6.837,6.823 5.473,7.133C3.602,7.557 1.507,7.925 -0.737,8.219C2.101,8.175 4.622,8.019 6.853,7.774C12.413,7.163 21.092,5.071 20.585,2.038C20.057,-1.125 8.949,-0.366 5.248,2.664Z" clip-rule="evenodd" fill-rule="evenodd" fill="#4C6ED7"/>
<g opacity="0.3">
<path d="M13.172,1.146C12.028,0.806 10.507,0.897 9.297,1.111C8.501,1.251 6.643,1.712 5.248,2.664C8.858,0.502 14.943,0.326 14.294,2.869C13.996,4.029 12.112,5.157 9.181,6.123C8.082,6.484 6.837,6.823 5.473,7.133C3.602,7.557 1.507,7.925 -0.737,8.219C1.804,7.939 3.995,7.56 5.557,7.205C6.856,6.911 8.117,6.575 9.29,6.189C11.675,5.403 14.124,4.254 14.475,2.878C14.566,2.523 14.548,2.142 14.28,1.803C14.067,1.534 13.706,1.305 13.172,1.146Z" clip-rule="evenodd" fill-rule="evenodd" fill="#B6FFFF"/>
</g>
<g opacity="0.25">
<path d="M5.248,2.664C8.644,0.63 14.233,0.354 14.339,2.447L14.34,2.447C16.888,2.303 20.168,2.669 19.569,4.022C20.311,3.418 20.705,2.754 20.586,2.039C20.057,-1.125 8.949,-0.366 5.248,2.664Z" clip-rule="evenodd" fill-rule="evenodd" fill="#114FEE"/>
</g>
<g opacity="0.25">
<path d="M6.273,1.98C8.65,0.969 11.539,0.369 13.857,0.347C18.658,0.303 18.803,2.59 16.199,4.276C13.188,6.226 6.156,7.501 0.424,8.059C0.042,8.114 -0.345,8.168 -0.736,8.219C2.102,8.175 4.623,8.019 6.853,7.773C12.413,7.163 21.093,5.07 20.586,2.038C20.099,-0.872 10.662,-0.462 6.273,1.98Z" clip-rule="evenodd" fill-rule="evenodd" fill="#B6FFFF"/>
</g>
</svg>
