<svg width="1032" height="1296" viewBox="0 0 1032 1296" fill="none" xmlns="http://www.w3.org/2000/svg" xmlns:xlink="http://www.w3.org/1999/xlink">
<mask id="mask_0_105_1244" style="mask-type:alpha" maskUnits="userSpaceOnUse" x="128" y="274" width="375" height="435">
<path d="M128,274L878,274L878,769C878,976.107 710.107,1144 503,1144L503,1144C295.893,1144 128,976.107 128,769Z" fill="#4C6ED7"/>
</mask>
<g mask="url(#mask_0_105_1244)">
<path d="M128,274L878,274L878,769C878,976.107 710.107,1144 503,1144L503,1144C295.893,1144 128,976.107 128,769Z" fill="url(#pf_0_105_1232)"/>
<path d="M312.233,1112.933C312.233,1199.137 228.109,1247.503 168.804,1295.025C161.56,1285.255 152.545,1276.923 147.982,1266.655C143.86,1257.383 135.107,1245.289 128.796,1237.175C121.903,1228.313 122.609,1219.569 119.437,1208.863C112.512,1185.493 114.289,1156.291 114.289,1131.885C114.289,1107.113 105.846,1091.481 90.658,1070.349C56.738,1023.157 25.921,979.043 4.788,924.348C-2.199,906.264 0.577,885.636 0.577,866.556C0.577,836.129 -0.578,805.469 0.577,775.071C2.211,732.043 44.013,725.914 76.151,739.975C84.142,743.471 90.233,747.433 97.443,751.674C110.184,759.168 125.096,761.135 137.453,769.69C161.288,786.191 199.2,795.978 228.001,797.065C271.785,798.717 301.203,824.832 339.375,838.713C451.751,879.577 363.769,956.601 326.973,1009.749C310.063,1034.177 312.233,1084.561 312.233,1112.933Z" transform="rotate(-30 197.307 1022.047)" fill="#3E61CC"/>
<path d="M948.185,379.657C948.185,465.861 864.061,514.227 804.757,561.749C797.513,551.979 788.498,543.647 783.934,533.379C779.813,524.107 771.059,512.013 764.748,503.899C757.855,495.037 758.561,486.293 755.389,475.587C748.465,452.217 750.242,423.015 750.242,398.609C750.242,373.837 741.799,358.205 726.61,337.073C692.69,289.881 661.873,245.767 640.741,191.073C633.754,172.989 636.529,152.361 636.529,133.28C636.529,102.853 635.375,72.193 636.529,41.796C638.163,-1.233 679.965,-7.361 712.104,6.699C720.094,10.195 726.186,14.157 733.396,18.398C746.137,25.893 761.049,27.86 773.405,36.414C797.24,52.915 835.153,62.703 863.953,63.789C907.737,65.442 937.155,91.556 975.327,105.437C1087.703,146.301 999.721,223.325 962.925,276.473C946.015,300.901 948.185,351.285 948.185,379.657Z" transform="rotate(300 833.26 288.771)" fill="#3E61CC"/>
</g>
<line x1="461.501" y1="557.93" x2="482.436" y2="557.93" fill="#FDFDFD" stroke="#263238" stroke-width="2" stroke-miterlimit="10"/>
<path d="M471.319,556.021L468.042,565.781C468.042,565.781 369.893,576.192 361.385,561.872C352.877,547.552 367.284,542.366 401.303,547.565C435.322,552.764 471.319,556.021 471.319,556.021Z" fill="#FDFDFD" stroke="#263238" stroke-width="1" stroke-miterlimit="10"/>
<line x1="525.203" y1="557.93" x2="546.138" y2="557.93" fill="#FDFDFD" stroke="#263238" stroke-width="2" stroke-miterlimit="10"/>
<path d="M536.32,556.021L539.597,565.781C539.597,565.781 637.746,576.192 646.241,561.872C654.736,547.552 640.418,542.366 606.387,547.565C572.355,552.764 536.32,556.021 536.32,556.021Z" fill="#FDFDFD" stroke="#263238" stroke-width="1" stroke-miterlimit="10"/>
<path d="M491.688,579.048C491.688,579.048 487.995,600.058 494.637,602.038C501.28,604.017 517.123,603.579 521.535,597.715C525.946,591.852 522.984,585.989 518.094,577.169C513.203,568.349 500.36,567.823 491.688,579.048Z" fill="#FDFDFD" stroke="#263238" stroke-width="1" stroke-miterlimit="10"/>
<path d="M500.813,497.502L500.813,563.363L506.776,563.363L506.776,500.471Z" fill="#FDFDFD" stroke="#263238" stroke-width="1" stroke-miterlimit="10"/>
<path d="M485.953,567.397C497.887,571.156 510.698,571.156 522.631,567.397L532.021,567.397L532.021,558.94C532.021,552.676 519.606,547.665 504.292,547.665C488.978,547.665 476.563,552.676 476.563,558.94L476.563,567.397L485.953,567.397Z" fill="#FDFDFD" stroke="#263238" stroke-width="1" stroke-miterlimit="10"/>
<path d="M504.292,578.672C519.607,578.672 532.021,573.624 532.021,567.397C532.021,561.17 519.607,556.122 504.292,556.122C488.978,556.122 476.563,561.17 476.563,567.397C476.563,573.624 488.978,578.672 504.292,578.672Z" fill="#FDFDFD" stroke="#263238" stroke-width="1" stroke-miterlimit="10"/>
<path d="M504.292,578.672C519.607,578.672 532.021,573.624 532.021,567.397C532.021,561.17 519.607,556.122 504.292,556.122C488.978,556.122 476.563,561.17 476.563,567.397C476.563,573.624 488.978,578.672 504.292,578.672Z" fill="#FDFDFD" stroke="#263238" stroke-width="1" stroke-miterlimit="10"/>
<path d="M602.832,791.791L584.921,791.791L584.921,841.578L602.832,841.578L602.832,791.791Z" fill="#FFFFFF"/>
<path d="M598.357,795.875L589.408,795.875L589.408,825.467L598.357,825.467L598.357,795.875Z" fill="#CAC7C7"/>
<path d="M593.883,837.244C595.352,837.244 596.543,836.06 596.543,834.6C596.543,833.14 595.352,831.957 593.883,831.957C592.414,831.957 591.223,833.14 591.223,834.6C591.223,836.06 592.414,837.244 593.883,837.244Z" fill="#CAC7C7"/>
<path d="M628.406,791.791L610.495,791.791L610.495,841.578L628.406,841.578L628.406,791.791Z" fill="#CAC7C7"/>
<path d="M623.919,795.875L614.969,795.875L614.969,825.467L623.919,825.467L623.919,795.875Z" fill="#FFFFFF"/>
<path d="M619.457,837.244C620.926,837.244 622.117,836.06 622.117,834.6C622.117,833.14 620.926,831.957 619.457,831.957C617.988,831.957 616.797,833.14 616.797,834.6C616.797,836.06 617.988,837.244 619.457,837.244Z" fill="#FFFFFF"/>
<path d="M653.979,791.791L636.069,791.791L636.069,841.578L653.979,841.578L653.979,791.791Z" fill="#CAC7C7"/>
<path d="M649.493,795.875L640.544,795.875L640.544,825.467L649.493,825.467L649.493,795.875Z" fill="#FFFFFF"/>
<path d="M647.691,834.563C647.691,834.037 647.534,833.523 647.24,833.086C646.946,832.649 646.527,832.308 646.038,832.108C645.549,831.907 645.011,831.855 644.492,831.959C643.974,832.062 643.498,832.316 643.124,832.689C642.751,833.062 642.497,833.536 642.396,834.052C642.294,834.568 642.349,835.103 642.553,835.588C642.757,836.073 643.102,836.487 643.543,836.777C643.984,837.067 644.502,837.221 645.031,837.219C645.738,837.215 646.414,836.934 646.913,836.436C647.411,835.938 647.691,835.265 647.691,834.563Z" fill="#FFFFFF"/>
<path d="M679.554,791.791L661.643,791.791L661.643,841.578L679.554,841.578L679.554,791.791Z" fill="#FFFFFF"/>
<path d="M675.067,795.875L666.118,795.875L666.118,825.467L675.067,825.467L675.067,795.875Z" fill="#CAC7C7"/>
<path d="M673.265,834.563C673.265,834.037 673.109,833.524 672.815,833.087C672.521,832.65 672.104,832.31 671.615,832.109C671.127,831.908 670.59,831.855 670.071,831.958C669.553,832.06 669.077,832.313 668.703,832.685C668.329,833.056 668.075,833.529 667.972,834.044C667.868,834.56 667.921,835.094 668.124,835.579C668.326,836.064 668.668,836.479 669.108,836.771C669.547,837.063 670.064,837.219 670.593,837.219C671.302,837.219 671.981,836.939 672.483,836.441C672.984,835.943 673.265,835.267 673.265,834.563L673.265,834.563Z" fill="#CAC7C7"/>
<path d="M708.669,664.917L708.669,661.309L701.888,661.309L701.888,647.891L696.569,647.891L696.569,661.309L577.51,661.309L577.51,647.891L572.191,647.891L572.191,661.309L563.229,661.309L563.229,664.917L572.191,664.917L572.191,721.194L563.229,721.194L563.229,724.802L572.191,724.802L572.191,781.092L563.229,781.092L563.229,784.7L572.191,784.7L572.191,840.977L563.229,840.977L563.229,844.585L572.191,844.585L572.191,906.199L577.51,906.199L577.51,844.585L696.569,844.585L696.569,906.199L701.888,906.199L701.888,844.585L708.669,844.585L708.669,840.977L701.888,840.977L701.888,784.7L708.669,784.7L708.669,781.092L701.888,781.092L701.888,724.802L708.669,724.802L708.669,721.194L701.888,721.194L701.888,664.917L708.669,664.917ZM696.569,840.977L577.51,840.977L577.51,784.7L696.569,784.7L696.569,840.977ZM696.569,781.092L577.51,781.092L577.51,724.802L696.569,724.802L696.569,781.092ZM696.569,721.194L577.51,721.194L577.51,664.917L696.569,664.917L696.569,721.194Z" fill="#FFFFFF"/>
<path d="M663.862,671.407L645.951,671.407L645.951,721.194L663.862,721.194L663.862,671.407Z" fill="#CAC7C7"/>
<path d="M659.374,675.491L650.425,675.491L650.425,705.083L659.374,705.083L659.374,675.491Z" fill="#CAC7C7"/>
<path d="M657.573,714.216C657.573,713.69 657.416,713.176 657.122,712.739C656.827,712.302 656.409,711.962 655.92,711.761C655.431,711.56 654.893,711.508 654.374,711.612C653.856,711.715 653.379,711.97 653.006,712.342C652.633,712.715 652.379,713.189 652.278,713.705C652.176,714.222 652.231,714.756 652.435,715.241C652.639,715.726 652.984,716.14 653.425,716.43C653.866,716.721 654.384,716.874 654.913,716.872C655.62,716.869 656.296,716.587 656.795,716.09C657.293,715.592 657.573,714.918 657.573,714.216L657.573,714.216Z" fill="#CAC7C7"/>
<path d="M642.85,671.407L624.94,671.407L624.94,721.194L642.85,721.194L642.85,671.407Z" fill="#CAC7C7"/>
<path d="M638.376,675.491L629.427,675.491L629.427,705.083L638.376,705.083L638.376,675.491Z" fill="#CAC7C7"/>
<path d="M633.902,716.859C635.371,716.859 636.562,715.676 636.562,714.216C636.562,712.756 635.371,711.572 633.902,711.572C632.433,711.572 631.242,712.756 631.242,714.216C631.242,715.676 632.433,716.859 633.902,716.859Z" fill="#CAC7C7"/>
<path d="M621.852,671.407L603.941,671.407L603.941,721.194L621.852,721.194L621.852,671.407Z" fill="#FFFFFF"/>
<path d="M617.365,675.491L608.416,675.491L608.416,705.083L617.365,705.083L617.365,675.491Z" fill="#CAC7C7"/>
<path d="M612.89,716.859C614.36,716.859 615.55,715.676 615.55,714.216C615.55,712.756 614.36,711.572 612.89,711.572C611.421,711.572 610.23,712.756 610.23,714.216C610.23,715.676 611.421,716.859 612.89,716.859Z" fill="#CAC7C7"/>
<path d="M688.54,671.407L670.63,671.407L670.63,721.194L688.54,721.194L688.54,671.407Z" fill="#CAC7C7"/>
<path d="M684.066,675.491L675.117,675.491L675.117,705.083L684.066,705.083L684.066,675.491Z" fill="#CAC7C7"/>
<path d="M679.592,716.859C681.061,716.859 682.252,715.676 682.252,714.216C682.252,712.756 681.061,711.572 679.592,711.572C678.123,711.572 676.932,712.756 676.932,714.216C676.932,715.676 678.123,716.859 679.592,716.859Z" fill="#CAC7C7"/>
<path d="M599.479,671.407L581.568,671.407L581.568,721.194L599.479,721.194L599.479,671.407Z" fill="#FFFFFF"/>
<path d="M594.992,675.491L586.043,675.491L586.043,705.083L594.992,705.083L594.992,675.491Z" fill="#CAC7C7"/>
<path d="M590.518,716.859C591.987,716.859 593.178,715.676 593.178,714.216C593.178,712.756 591.987,711.572 590.518,711.572C589.049,711.572 587.858,712.756 587.858,714.216C587.858,715.676 589.049,716.859 590.518,716.859Z" fill="#CAC7C7"/>
<path d="M671.664,645.849L617.831,645.849C619.632,647.938 620.589,650.616 620.516,653.366L620.516,653.366C620.584,656.115 619.628,658.792 617.831,660.883L671.664,660.883C673.669,660.883 675.593,660.091 677.011,658.681C678.429,657.272 679.226,655.36 679.226,653.366C679.226,651.372 678.429,649.46 677.011,648.051C675.593,646.641 673.669,645.849 671.664,645.849Z" fill="#D4D4D4" stroke="#FFDEDE" stroke-width="1" stroke-miterlimit="10"/>
<path d="M673.781,646.15L673.781,660.419C675.333,659.958 676.694,659.014 677.665,657.726C678.637,656.439 679.167,654.875 679.177,653.266L679.177,653.266C679.158,651.663 678.625,650.108 677.654,648.828C676.684,647.547 675.327,646.609 673.781,646.15Z" fill="#9C9C9C" stroke="#FFDEDE" stroke-width="1" stroke-miterlimit="10"/>
<path d="M671.664,629.976L617.831,629.976C619.628,632.067 620.584,634.744 620.516,637.493C620.584,640.242 619.628,642.919 617.831,645.01L671.664,645.01C673.669,645.01 675.593,644.218 677.011,642.808C678.429,641.398 679.226,639.486 679.226,637.493C679.226,635.499 678.429,633.587 677.011,632.177C675.593,630.768 673.669,629.976 671.664,629.976Z" fill="#D4D4D4" stroke="#FFDEDE" stroke-width="1" stroke-miterlimit="10"/>
<path d="M673.781,630.276L673.781,644.609C675.335,644.147 676.698,643.201 677.669,641.911C678.641,640.621 679.169,639.054 679.177,637.443L679.177,637.443C679.169,635.831 678.641,634.265 677.669,632.975C676.698,631.684 675.335,630.738 673.781,630.276L673.781,630.276Z" fill="#9C9C9C" stroke="#FFDEDE" stroke-width="1" stroke-miterlimit="10"/>
<path d="M617.125,609.605L599.214,609.605L599.214,659.392L617.125,659.392L617.125,609.605Z" fill="#FFFFFF"/>
<path d="M612.638,613.689L603.689,613.689L603.689,643.281L612.638,643.281L612.638,613.689Z" fill="#FFFFFF"/>
<path d="M610.824,652.414C610.824,651.891 610.668,651.38 610.376,650.945C610.083,650.511 609.668,650.172 609.182,649.972C608.696,649.772 608.161,649.719 607.645,649.821C607.129,649.923 606.655,650.175 606.283,650.545C605.911,650.914 605.658,651.385 605.555,651.898C605.452,652.411 605.505,652.943 605.706,653.426C605.908,653.909 606.249,654.321 606.686,654.612C607.123,654.902 607.638,655.057 608.164,655.057C608.514,655.059 608.86,654.992 609.184,654.86C609.507,654.727 609.801,654.533 610.048,654.287C610.296,654.041 610.492,653.749 610.625,653.427C610.758,653.106 610.826,652.762 610.824,652.414L610.824,652.414Z" fill="#FFFFFF"/>
<path d="M688.54,730.816L670.63,730.816L670.63,780.603L688.54,780.603L688.54,730.816Z" fill="#FFFFFF"/>
<path d="M684.066,734.913L675.117,734.913L675.117,764.504L684.066,764.504L684.066,734.913Z" fill="#CAC7C7"/>
<path d="M682.252,773.638C682.252,773.115 682.096,772.604 681.804,772.169C681.512,771.734 681.096,771.395 680.61,771.195C680.124,770.995 679.589,770.943 679.073,771.045C678.557,771.147 678.083,771.399 677.711,771.768C677.339,772.138 677.086,772.609 676.983,773.122C676.881,773.635 676.934,774.166 677.135,774.649C677.336,775.132 677.677,775.545 678.115,775.835C678.552,776.126 679.066,776.281 679.592,776.281C680.297,776.278 680.971,775.998 681.47,775.503C681.968,775.008 682.249,774.338 682.252,773.638L682.252,773.638Z" fill="#CAC7C7"/>
<path d="M667.781,730.816L649.871,730.816L649.871,780.603L667.781,780.603L667.781,730.816Z" fill="#FFFFFF"/>
<path d="M663.294,734.913L654.345,734.913L654.345,764.504L663.294,764.504L663.294,734.913Z" fill="#CAC7C7"/>
<path d="M661.48,773.638C661.48,773.115 661.324,772.604 661.032,772.169C660.74,771.734 660.324,771.395 659.838,771.195C659.352,770.995 658.817,770.943 658.301,771.045C657.785,771.147 657.311,771.399 656.939,771.768C656.567,772.138 656.314,772.609 656.212,773.122C656.109,773.635 656.162,774.166 656.363,774.649C656.564,775.132 656.905,775.545 657.343,775.835C657.78,776.126 658.294,776.281 658.82,776.281C659.17,776.281 659.516,776.213 659.838,776.08C660.161,775.947 660.454,775.752 660.701,775.507C660.948,775.261 661.144,774.97 661.278,774.649C661.412,774.328 661.48,773.985 661.48,773.638L661.48,773.638Z" fill="#CAC7C7"/>
<path d="M624.927,730.816L607.017,730.816L607.017,780.603L624.927,780.603L624.927,730.816Z" fill="#FFFFFF"/>
<path d="M620.44,734.913L611.491,734.913L611.491,764.504L620.44,764.504L620.44,734.913Z" fill="#CAC7C7"/>
<path d="M618.626,773.638C618.626,773.115 618.47,772.604 618.177,772.169C617.885,771.734 617.47,771.395 616.984,771.195C616.498,770.995 615.963,770.943 615.447,771.045C614.931,771.147 614.457,771.399 614.085,771.768C613.713,772.138 613.459,772.609 613.357,773.122C613.254,773.635 613.307,774.166 613.508,774.649C613.709,775.132 614.05,775.545 614.488,775.835C614.925,776.126 615.44,776.281 615.966,776.281C616.315,776.281 616.661,776.213 616.984,776.08C617.306,775.947 617.6,775.752 617.847,775.507C618.094,775.261 618.289,774.97 618.423,774.649C618.557,774.328 618.626,773.985 618.626,773.638L618.626,773.638Z" fill="#CAC7C7"/>
<path d="M647.01,730.816L629.099,730.816L629.099,780.603L647.01,780.603L647.01,730.816Z" fill="#FFFFFF"/>
<path d="M642.523,734.913L633.573,734.913L633.573,764.504L642.523,764.504L642.523,734.913Z" fill="#CAC7C7"/>
<path d="M640.708,773.638C640.708,773.115 640.552,772.604 640.26,772.169C639.968,771.734 639.552,771.395 639.066,771.195C638.58,770.995 638.045,770.943 637.529,771.045C637.014,771.147 636.54,771.399 636.168,771.768C635.795,772.138 635.542,772.609 635.44,773.122C635.337,773.635 635.39,774.166 635.591,774.649C635.792,775.132 636.133,775.545 636.571,775.835C637.008,776.126 637.522,776.281 638.048,776.281C638.398,776.281 638.744,776.213 639.066,776.08C639.389,775.947 639.682,775.752 639.929,775.507C640.176,775.261 640.372,774.97 640.506,774.649C640.64,774.328 640.708,773.985 640.708,773.638L640.708,773.638Z" fill="#CAC7C7"/>
<path d="M458.74,791.791L440.83,791.791L440.83,841.578L458.74,841.578L458.74,791.791Z" fill="#FFFFFF"/>
<path d="M454.253,795.875L445.304,795.875L445.304,825.467L454.253,825.467L454.253,795.875Z" fill="#FFFFFF"/>
<path d="M449.779,837.244C451.248,837.244 452.439,836.06 452.439,834.6C452.439,833.14 451.248,831.957 449.779,831.957C448.31,831.957 447.119,833.14 447.119,834.6C447.119,836.06 448.31,837.244 449.779,837.244Z" fill="#FFFFFF"/>
<path d="M484.302,791.791L466.391,791.791L466.391,841.578L484.302,841.578L484.302,791.791Z" fill="#FFFFFF"/>
<path d="M479.827,795.875L470.878,795.875L470.878,825.467L479.827,825.467L479.827,795.875Z" fill="#FFFFFF"/>
<path d="M475.353,837.244C476.822,837.244 478.013,836.06 478.013,834.6C478.013,833.14 476.822,831.957 475.353,831.957C473.884,831.957 472.693,833.14 472.693,834.6C472.693,836.06 473.884,837.244 475.353,837.244Z" fill="#FFFFFF"/>
<path d="M509.876,791.791L491.965,791.791L491.965,841.578L509.876,841.578L509.876,791.791Z" fill="#FFFFFF"/>
<path d="M505.401,795.875L496.452,795.875L496.452,825.467L505.401,825.467L505.401,795.875Z" fill="#FFFFFF"/>
<path d="M500.927,837.244C502.396,837.244 503.587,836.06 503.587,834.6C503.587,833.14 502.396,831.957 500.927,831.957C499.458,831.957 498.267,833.14 498.267,834.6C498.267,836.06 499.458,837.244 500.927,837.244Z" fill="#FFFFFF"/>
<path d="M535.449,791.791L517.539,791.791L517.539,841.578L535.449,841.578L535.449,791.791Z" fill="#FFFFFF"/>
<path d="M530.962,795.875L522.013,795.875L522.013,825.467L530.962,825.467L530.962,795.875Z" fill="#FFFFFF"/>
<path d="M529.161,834.563C529.161,834.037 529.004,833.523 528.71,833.086C528.416,832.649 527.997,832.308 527.508,832.108C527.019,831.907 526.481,831.855 525.962,831.959C525.444,832.062 524.968,832.316 524.594,832.689C524.221,833.062 523.967,833.536 523.866,834.052C523.764,834.568 523.819,835.103 524.023,835.588C524.227,836.073 524.572,836.487 525.013,836.777C525.454,837.067 525.972,837.221 526.501,837.219C527.208,837.215 527.884,836.934 528.383,836.436C528.881,835.938 529.161,835.265 529.161,834.563L529.161,834.563Z" fill="#FFFFFF"/>
<path d="M433.407,647.891L428.087,647.891L428.087,906.199L433.407,906.199L433.407,647.891Z" fill="#FFFFFF"/>
<path d="M557.785,647.891L552.465,647.891L552.465,906.199L557.785,906.199L557.785,647.891Z" fill="#FFFFFF"/>
<path d="M564.565,661.309L419.125,661.309L419.125,664.917L564.565,664.917L564.565,661.309Z" fill="#FFFFFF"/>
<path d="M564.565,721.194L419.125,721.194L419.125,724.802L564.565,724.802L564.565,721.194Z" fill="#FFFFFF"/>
<path d="M564.565,781.092L419.125,781.092L419.125,784.7L564.565,784.7L564.565,781.092Z" fill="#FFFFFF"/>
<path d="M564.565,840.977L419.125,840.977L419.125,844.585L564.565,844.585L564.565,840.977Z" fill="#FFFFFF"/>
<path d="M519.757,671.407L501.847,671.407L501.847,721.194L519.757,721.194L519.757,671.407Z" fill="#FFFFFF"/>
<path d="M515.27,675.491L506.321,675.491L506.321,705.083L515.27,705.083L515.27,675.491Z" fill="#FFFFFF"/>
<path d="M513.469,714.216C513.469,713.69 513.312,713.176 513.018,712.739C512.723,712.302 512.305,711.962 511.816,711.761C511.327,711.56 510.789,711.508 510.27,711.612C509.752,711.715 509.275,711.97 508.902,712.342C508.529,712.715 508.275,713.189 508.174,713.705C508.072,714.222 508.127,714.756 508.331,715.241C508.535,715.726 508.88,716.14 509.321,716.43C509.762,716.721 510.28,716.874 510.809,716.872C511.516,716.869 512.192,716.587 512.691,716.09C513.189,715.592 513.469,714.918 513.469,714.216L513.469,714.216Z" fill="#FFFFFF"/>
<path d="M498.759,671.407L480.848,671.407L480.848,721.194L498.759,721.194L498.759,671.407Z" fill="#FFFFFF"/>
<path d="M494.272,675.491L485.323,675.491L485.323,705.083L494.272,705.083L494.272,675.491Z" fill="#CAC7C7"/>
<path d="M489.797,716.859C491.266,716.859 492.457,715.676 492.457,714.216C492.457,712.756 491.266,711.572 489.797,711.572C488.328,711.572 487.137,712.756 487.137,714.216C487.137,715.676 488.328,716.859 489.797,716.859Z" fill="#CAC7C7"/>
<path d="M477.748,671.407L459.837,671.407L459.837,721.194L477.748,721.194L477.748,671.407Z" fill="#FFFFFF"/>
<path d="M473.26,675.491L464.311,675.491L464.311,705.083L473.26,705.083L473.26,675.491Z" fill="#CAC7C7"/>
<path d="M468.786,716.859C470.255,716.859 471.446,715.676 471.446,714.216C471.446,712.756 470.255,711.572 468.786,711.572C467.317,711.572 466.126,712.756 466.126,714.216C466.126,715.676 467.317,716.859 468.786,716.859Z" fill="#CAC7C7"/>
<path d="M544.449,671.407L526.538,671.407L526.538,721.194L544.449,721.194L544.449,671.407Z" fill="#FFFFFF"/>
<path d="M539.962,675.491L531.013,675.491L531.013,705.083L539.962,705.083L539.962,675.491Z" fill="#CAC7C7"/>
<path d="M535.488,716.859C536.957,716.859 538.148,715.676 538.148,714.216C538.148,712.756 536.957,711.572 535.488,711.572C534.019,711.572 532.828,712.756 532.828,714.216C532.828,715.676 534.019,716.859 535.488,716.859Z" fill="#FFFFFF"/>
<path d="M455.375,671.407L437.464,671.407L437.464,721.194L455.375,721.194L455.375,671.407Z" fill="#FFFFFF"/>
<path d="M450.888,675.491L441.939,675.491L441.939,705.083L450.888,705.083L450.888,675.491Z" fill="#CAC7C7"/>
<path d="M446.414,716.859C447.883,716.859 449.074,715.676 449.074,714.216C449.074,712.756 447.883,711.572 446.414,711.572C444.945,711.572 443.754,712.756 443.754,714.216C443.754,715.676 444.945,716.859 446.414,716.859Z" fill="#CAC7C7"/>
<path d="M455.375,611.272L437.464,611.272L437.464,661.06L455.375,661.06L455.375,611.272Z" fill="#FFFFFF"/>
<path d="M450.888,615.355L441.939,615.355L441.939,644.947L450.888,644.947L450.888,615.355Z" fill="#CAC7C7"/>
<path d="M446.414,656.724C447.883,656.724 449.074,655.54 449.074,654.08C449.074,652.62 447.883,651.437 446.414,651.437C444.945,651.437 443.754,652.62 443.754,654.08C443.754,655.54 444.945,656.724 446.414,656.724Z" fill="#CAC7C7"/>
<path d="M475.05,611.272L457.14,611.272L457.14,661.06L475.05,661.06L475.05,611.272Z" fill="#FFFFFF"/>
<path d="M470.575,615.355L461.626,615.355L461.626,644.947L470.575,644.947L470.575,615.355Z" fill="#CAC7C7"/>
<path d="M466.101,656.724C467.57,656.724 468.761,655.54 468.761,654.08C468.761,652.62 467.57,651.437 466.101,651.437C464.632,651.437 463.441,652.62 463.441,654.08C463.441,655.54 464.632,656.724 466.101,656.724Z" fill="#CAC7C7"/>
<path d="M509.727,628.102L491.924,628.102L491.924,678.191L509.727,678.191L509.727,628.102Z" transform="rotate(180 500.826 653.147)" fill="#FFFFFF"/>
<path d="M511.33,638.261L502.435,638.261L502.435,668.02L511.33,668.02L511.33,638.261Z" transform="rotate(180 506.882 653.141)" fill="#CAC7C7"/>
<path d="M482.865,655.784C483.391,655.784 483.905,655.629 484.343,655.338C484.78,655.048 485.121,654.635 485.323,654.152C485.524,653.669 485.577,653.138 485.474,652.625C485.371,652.112 485.118,651.641 484.746,651.271C484.374,650.902 483.9,650.65 483.384,650.548C482.868,650.446 482.333,650.498 481.847,650.698C481.361,650.898 480.946,651.237 480.653,651.672C480.361,652.107 480.205,652.618 480.205,653.141C480.208,653.841 480.49,654.511 480.988,655.006C481.486,655.501 482.161,655.781 482.865,655.784L482.865,655.784Z" fill="#CAC7C7"/>
<path d="M544.449,730.816L526.538,730.816L526.538,780.603L544.449,780.603L544.449,730.816Z" fill="#FFFFFF"/>
<path d="M539.962,734.913L531.013,734.913L531.013,764.504L539.962,764.504L539.962,734.913Z" fill="#FFFFFF"/>
<path d="M538.148,773.638C538.148,773.115 537.992,772.604 537.7,772.169C537.408,771.734 536.992,771.395 536.506,771.195C536.02,770.995 535.485,770.943 534.969,771.045C534.453,771.147 533.979,771.399 533.607,771.768C533.235,772.138 532.982,772.609 532.879,773.122C532.777,773.635 532.829,774.166 533.031,774.649C533.232,775.132 533.573,775.545 534.01,775.835C534.448,776.126 534.962,776.281 535.488,776.281C535.837,776.281 536.183,776.213 536.506,776.08C536.829,775.947 537.122,775.752 537.369,775.507C537.616,775.261 537.812,774.97 537.946,774.649C538.079,774.328 538.148,773.985 538.148,773.638L538.148,773.638Z" fill="#FFFFFF"/>
<path d="M523.677,730.816L505.767,730.816L505.767,780.603L523.677,780.603L523.677,730.816Z" fill="#FFFFFF"/>
<path d="M519.19,734.913L510.241,734.913L510.241,764.504L519.19,764.504L519.19,734.913Z" fill="#FFFFFF"/>
<path d="M517.376,773.638C517.376,773.115 517.22,772.604 516.928,772.169C516.635,771.734 516.22,771.395 515.734,771.195C515.248,770.995 514.713,770.943 514.197,771.045C513.681,771.147 513.207,771.399 512.835,771.768C512.463,772.138 512.21,772.609 512.107,773.122C512.004,773.635 512.057,774.166 512.258,774.649C512.46,775.132 512.801,775.545 513.238,775.835C513.676,776.126 514.19,776.281 514.716,776.281C515.065,776.281 515.411,776.213 515.734,776.08C516.057,775.947 516.35,775.752 516.597,775.507C516.844,775.261 517.04,774.97 517.173,774.649C517.307,774.328 517.376,773.985 517.376,773.638L517.376,773.638Z" fill="#FFFFFF"/>
<path d="M480.823,730.816L462.912,730.816L462.912,780.603L480.823,780.603L480.823,730.816Z" fill="#FFFFFF"/>
<path d="M476.336,734.913L467.387,734.913L467.387,764.504L476.336,764.504L476.336,734.913Z" fill="#FFFFFF"/>
<path d="M474.522,773.638C474.522,773.115 474.366,772.604 474.073,772.169C473.781,771.734 473.366,771.395 472.88,771.195C472.394,770.995 471.859,770.943 471.343,771.045C470.827,771.147 470.353,771.399 469.981,771.768C469.609,772.138 469.355,772.609 469.253,773.122C469.15,773.635 469.203,774.166 469.404,774.649C469.605,775.132 469.946,775.545 470.384,775.835C470.821,776.126 471.336,776.281 471.862,776.281C472.211,776.281 472.557,776.213 472.88,776.08C473.202,775.947 473.496,775.752 473.743,775.507C473.99,775.261 474.185,774.97 474.319,774.649C474.453,774.328 474.522,773.985 474.522,773.638L474.522,773.638Z" fill="#FFFFFF"/>
<path d="M502.905,730.816L484.995,730.816L484.995,780.603L502.905,780.603L502.905,730.816Z" fill="#FFFFFF"/>
<path d="M498.418,734.913L489.469,734.913L489.469,764.504L498.418,764.504L498.418,734.913Z" fill="#FFFFFF"/>
<path d="M496.604,773.638C496.604,773.115 496.448,772.604 496.156,772.169C495.864,771.734 495.448,771.395 494.962,771.195C494.476,770.995 493.941,770.943 493.425,771.045C492.909,771.147 492.436,771.399 492.064,771.768C491.692,772.138 491.438,772.609 491.336,773.122C491.233,773.635 491.286,774.166 491.487,774.649C491.688,775.132 492.029,775.545 492.467,775.835C492.904,776.126 493.418,776.281 493.944,776.281C494.294,776.281 494.64,776.213 494.962,776.08C495.285,775.947 495.578,775.752 495.825,775.507C496.072,775.261 496.268,774.97 496.402,774.649C496.536,774.328 496.604,773.985 496.604,773.638L496.604,773.638Z" fill="#FFFFFF"/>
<path d="M313.603,791.791L295.692,791.791L295.692,841.578L313.603,841.578L313.603,791.791Z" fill="#FFFFFF"/>
<path d="M309.116,795.875L300.167,795.875L300.167,825.467L309.116,825.467L309.116,795.875Z" fill="#CAC7C7"/>
<path d="M304.654,837.244C306.123,837.244 307.314,836.06 307.314,834.6C307.314,833.14 306.123,831.957 304.654,831.957C303.185,831.957 301.994,833.14 301.994,834.6C301.994,836.06 303.185,837.244 304.654,837.244Z" fill="#CAC7C7"/>
<path d="M339.176,791.791L321.266,791.791L321.266,841.578L339.176,841.578L339.176,791.791Z" fill="#FFFFFF"/>
<path d="M334.689,795.875L325.74,795.875L325.74,825.467L334.689,825.467L334.689,795.875Z" fill="#CAC7C7"/>
<path d="M330.228,837.244C331.697,837.244 332.888,836.06 332.888,834.6C332.888,833.14 331.697,831.957 330.228,831.957C328.759,831.957 327.568,833.14 327.568,834.6C327.568,836.06 328.759,837.244 330.228,837.244Z" fill="#CAC7C7"/>
<path d="M364.75,791.791L346.84,791.791L346.84,841.578L364.75,841.578L364.75,791.791Z" fill="#CAC7C7"/>
<path d="M360.263,795.875L351.314,795.875L351.314,825.467L360.263,825.467L360.263,795.875Z" fill="#FFFFFF"/>
<path d="M355.789,837.244C357.258,837.244 358.449,836.06 358.449,834.6C358.449,833.14 357.258,831.957 355.789,831.957C354.32,831.957 353.129,833.14 353.129,834.6C353.129,836.06 354.32,837.244 355.789,837.244Z" fill="#FFFFFF"/>
<path d="M390.324,791.791L372.414,791.791L372.414,841.578L390.324,841.578L390.324,791.791Z" fill="#FFFFFF"/>
<path d="M385.837,795.875L376.888,795.875L376.888,825.467L385.837,825.467L385.837,795.875Z" fill="#CAC7C7"/>
<path d="M381.363,837.244C382.832,837.244 384.023,836.06 384.023,834.6C384.023,833.14 382.832,831.957 381.363,831.957C379.894,831.957 378.703,833.14 378.703,834.6C378.703,836.06 379.894,837.244 381.363,837.244Z" fill="#CAC7C7"/>
<path d="M288.269,647.891L282.949,647.891L282.949,906.199L288.269,906.199L288.269,647.891Z" fill="#FFFFFF"/>
<path d="M412.66,647.891L407.34,647.891L407.34,906.199L412.66,906.199L412.66,647.891Z" fill="#FFFFFF"/>
<path d="M419.44,661.309L274,661.309L274,664.917L419.44,664.917L419.44,661.309Z" fill="#FFFFFF"/>
<path d="M419.44,721.194L274,721.194L274,724.802L419.44,724.802L419.44,721.194Z" fill="#FFFFFF"/>
<path d="M419.44,781.092L274,781.092L274,784.7L419.44,784.7L419.44,781.092Z" fill="#FFFFFF"/>
<path d="M419.44,840.977L274,840.977L274,844.585L419.44,844.585L419.44,840.977Z" fill="#FFFFFF"/>
<path d="M374.632,671.407L356.722,671.407L356.722,721.194L374.632,721.194L374.632,671.407Z" fill="#CAC7C7"/>
<path d="M370.145,675.491L361.196,675.491L361.196,705.083L370.145,705.083L370.145,675.491Z" fill="#FFFFFF"/>
<path d="M368.343,714.216C368.343,713.691 368.187,713.177 367.893,712.74C367.599,712.304 367.182,711.963 366.694,711.762C366.205,711.561 365.668,711.508 365.149,711.611C364.631,711.713 364.155,711.966 363.781,712.338C363.407,712.709 363.153,713.183 363.05,713.698C362.947,714.213 362.999,714.747 363.202,715.232C363.404,715.718 363.747,716.132 364.186,716.424C364.626,716.716 365.142,716.872 365.671,716.872C366.38,716.872 367.059,716.592 367.561,716.094C368.062,715.596 368.343,714.92 368.343,714.216L368.343,714.216Z" fill="#FFFFFF"/>
<path d="M353.621,671.407L335.71,671.407L335.71,721.194L353.621,721.194L353.621,671.407Z" fill="#FFFFFF"/>
<path d="M349.134,675.491L340.185,675.491L340.185,705.083L349.134,705.083L349.134,675.491Z" fill="#CAC7C7"/>
<path d="M344.672,716.859C346.141,716.859 347.332,715.676 347.332,714.216C347.332,712.756 346.141,711.572 344.672,711.572C343.203,711.572 342.012,712.756 342.012,714.216C342.012,715.676 343.203,716.859 344.672,716.859Z" fill="#CAC7C7"/>
<path d="M332.622,671.407L314.712,671.407L314.712,721.194L332.622,721.194L332.622,671.407Z" fill="#FFFFFF"/>
<path d="M328.135,675.491L319.186,675.491L319.186,705.083L328.135,705.083L328.135,675.491Z" fill="#CAC7C7"/>
<path d="M323.661,716.859C325.13,716.859 326.321,715.676 326.321,714.216C326.321,712.756 325.13,711.572 323.661,711.572C322.192,711.572 321.001,712.756 321.001,714.216C321.001,715.676 322.192,716.859 323.661,716.859Z" fill="#CAC7C7"/>
<path d="M399.311,671.407L381.4,671.407L381.4,721.194L399.311,721.194L399.311,671.407Z" fill="#FFFFFF"/>
<path d="M394.824,675.491L385.875,675.491L385.875,705.083L394.824,705.083L394.824,675.491Z" fill="#CAC7C7"/>
<path d="M390.363,716.859C391.832,716.859 393.023,715.676 393.023,714.216C393.023,712.756 391.832,711.572 390.363,711.572C388.894,711.572 387.703,712.756 387.703,714.216C387.703,715.676 388.894,716.859 390.363,716.859Z" fill="#CAC7C7"/>
<path d="M382.487,627.764L364.685,627.764L364.685,677.853L382.487,677.853L382.487,627.764Z" transform="rotate(-180 373.586 652.809)" fill="#FFFFFF"/>
<path d="M371.996,637.917L363.101,637.917L363.101,667.688L371.996,667.688L371.996,637.917Z" transform="rotate(-180 367.549 652.802)" fill="#CAC7C7"/>
<path d="M391.623,650.159C391.094,650.156 390.576,650.31 390.135,650.6C389.694,650.891 389.35,651.305 389.145,651.79C388.941,652.275 388.886,652.809 388.988,653.325C389.09,653.841 389.343,654.316 389.717,654.688C390.09,655.061 390.566,655.315 391.085,655.419C391.604,655.522 392.142,655.47 392.631,655.27C393.12,655.069 393.538,654.729 393.832,654.292C394.126,653.855 394.283,653.341 394.283,652.815C394.283,652.113 394.004,651.439 393.505,650.941C393.007,650.443 392.33,650.162 391.623,650.159L391.623,650.159Z" fill="#CAC7C7"/>
<path d="M380.622,610.274L362.819,610.274L362.819,660.364L380.622,660.364L380.622,610.274Z" transform="rotate(-180 371.721 635.319)" fill="#FFFFFF"/>
<path d="M370.118,620.427L361.223,620.427L361.223,650.198L370.118,650.198L370.118,620.427Z" transform="rotate(-180 365.671 635.313)" fill="#CAC7C7"/>
<path d="M389.745,632.669C389.219,632.669 388.705,632.824 388.267,633.115C387.83,633.405 387.489,633.818 387.288,634.301C387.086,634.784 387.034,635.316 387.136,635.829C387.239,636.341 387.492,636.812 387.864,637.182C388.236,637.552 388.71,637.803 389.226,637.905C389.742,638.007 390.277,637.955 390.763,637.755C391.249,637.555 391.665,637.216 391.957,636.781C392.249,636.347 392.405,635.836 392.405,635.313C392.407,634.965 392.339,634.621 392.206,634.299C392.073,633.978 391.877,633.686 391.63,633.44C391.382,633.194 391.089,632.999 390.765,632.867C390.442,632.735 390.095,632.668 389.745,632.669Z" fill="#CAC7C7"/>
<path d="M310.25,671.407L292.339,671.407L292.339,721.194L310.25,721.194L310.25,671.407Z" fill="#FFFFFF"/>
<path d="M305.763,675.491L296.814,675.491L296.814,705.083L305.763,705.083L305.763,675.491Z" fill="#CAC7C7"/>
<path d="M301.289,716.859C302.758,716.859 303.949,715.676 303.949,714.216C303.949,712.756 302.758,711.572 301.289,711.572C299.82,711.572 298.629,712.756 298.629,714.216C298.629,715.676 299.82,716.859 301.289,716.859Z" fill="#CAC7C7"/>
<path d="M399.311,730.816L381.4,730.816L381.4,780.603L399.311,780.603L399.311,730.816Z" fill="#FFFFFF"/>
<path d="M394.824,734.913L385.875,734.913L385.875,764.504L394.824,764.504L394.824,734.913Z" fill="#CAC7C7"/>
<path d="M393.023,773.638C393.025,773.111 392.87,772.596 392.578,772.157C392.285,771.719 391.868,771.376 391.379,771.174C390.89,770.971 390.352,770.917 389.832,771.019C389.312,771.122 388.835,771.375 388.461,771.747C388.086,772.119 387.831,772.594 387.728,773.11C387.626,773.626 387.68,774.161 387.884,774.647C388.087,775.133 388.432,775.548 388.873,775.839C389.315,776.13 389.833,776.283 390.363,776.281C391.067,776.278 391.742,775.998 392.24,775.503C392.738,775.008 393.02,774.338 393.023,773.638L393.023,773.638Z" fill="#CAC7C7"/>
<path d="M378.54,730.816L360.629,730.816L360.629,780.603L378.54,780.603L378.54,730.816Z" fill="#CAC7C7"/>
<path d="M374.065,734.913L365.116,734.913L365.116,764.504L374.065,764.504L374.065,734.913Z" fill="#FFFFFF"/>
<path d="M372.251,773.638C372.251,773.115 372.095,772.604 371.803,772.169C371.511,771.734 371.095,771.395 370.609,771.195C370.123,770.995 369.588,770.943 369.072,771.045C368.556,771.147 368.082,771.399 367.71,771.768C367.338,772.138 367.085,772.609 366.982,773.122C366.88,773.635 366.932,774.166 367.134,774.649C367.335,775.132 367.676,775.545 368.113,775.835C368.551,776.126 369.065,776.281 369.591,776.281C370.296,776.278 370.97,775.998 371.468,775.503C371.966,775.008 372.248,774.338 372.251,773.638L372.251,773.638Z" fill="#FFFFFF"/>
<path d="M314.497,730.816L296.587,730.816L296.587,780.603L314.497,780.603L314.497,730.816Z" fill="#CAC7C7"/>
<path d="M310.023,734.913L301.074,734.913L301.074,764.504L310.023,764.504L310.023,734.913Z" fill="#FFFFFF"/>
<path d="M308.209,773.638C308.209,773.115 308.053,772.604 307.761,772.169C307.468,771.734 307.053,771.395 306.567,771.195C306.081,770.995 305.546,770.943 305.03,771.045C304.514,771.147 304.04,771.399 303.668,771.768C303.296,772.138 303.043,772.609 302.94,773.122C302.837,773.635 302.89,774.166 303.091,774.649C303.293,775.132 303.634,775.545 304.071,775.835C304.509,776.126 305.023,776.281 305.549,776.281C306.253,776.278 306.928,775.998 307.426,775.503C307.924,775.008 308.206,774.338 308.209,773.638L308.209,773.638Z" fill="#FFFFFF"/>
<path d="M335.685,730.816L317.774,730.816L317.774,780.603L335.685,780.603L335.685,730.816Z" fill="#CAC7C7"/>
<path d="M331.211,734.913L322.262,734.913L322.262,764.504L331.211,764.504L331.211,734.913Z" fill="#FFFFFF"/>
<path d="M329.397,773.638C329.397,773.115 329.241,772.604 328.948,772.169C328.656,771.734 328.241,771.395 327.755,771.195C327.269,770.995 326.734,770.943 326.218,771.045C325.702,771.147 325.228,771.399 324.856,771.768C324.484,772.138 324.23,772.609 324.128,773.122C324.025,773.635 324.078,774.166 324.279,774.649C324.48,775.132 324.821,775.545 325.259,775.835C325.696,776.126 326.211,776.281 326.737,776.281C327.441,776.278 328.116,775.998 328.614,775.503C329.112,775.008 329.393,774.338 329.397,773.638L329.397,773.638Z" fill="#FFFFFF"/>
<path d="M357.768,730.816L339.857,730.816L339.857,780.603L357.768,780.603L357.768,730.816Z" fill="#CAC7C7"/>
<path d="M353.293,734.913L344.344,734.913L344.344,764.504L353.293,764.504L353.293,734.913Z" fill="#FFFFFF"/>
<path d="M351.479,773.638C351.479,773.115 351.323,772.604 351.031,772.169C350.739,771.734 350.323,771.395 349.837,771.195C349.351,770.995 348.816,770.943 348.3,771.045C347.784,771.147 347.31,771.399 346.938,771.768C346.566,772.138 346.313,772.609 346.21,773.122C346.108,773.635 346.16,774.166 346.362,774.649C346.563,775.132 346.904,775.545 347.341,775.835C347.779,776.126 348.293,776.281 348.819,776.281C349.524,776.278 350.198,775.998 350.696,775.503C351.194,775.008 351.476,774.338 351.479,773.638L351.479,773.638Z" fill="#FFFFFF"/>
<path d="M344.143,906.7L317.283,906.7L313.25,862.438L348.176,862.438L344.143,906.7Z" fill="#4C6ED7" stroke="#263238" stroke-width="1" stroke-miterlimit="3.999327" stroke-linecap="round" stroke-linejoin="round"/>
<path d="M348.113,860.834L313.3,860.834C312.284,860.834 311.46,861.653 311.46,862.663L311.46,862.839C311.46,863.849 312.284,864.668 313.3,864.668L348.113,864.668C349.129,864.668 349.953,863.849 349.953,862.839L349.953,862.663C349.953,861.653 349.129,860.834 348.113,860.834Z" fill="#FFDEDE" stroke="#263238" stroke-width="1" stroke-miterlimit="3.999327" stroke-linecap="round" stroke-linejoin="round"/>
<path d="M314.039,798.637C313.814,799.141 314.04,799.732 314.544,799.958C315.048,800.183 315.639,799.957 315.865,799.453L314.039,798.637ZM317.946,796.722C318.372,796.37 318.432,795.74 318.081,795.314C317.729,794.888 317.099,794.828 316.673,795.179L317.946,796.722ZM315.865,799.453C316.337,798.396 317.049,797.461 317.946,796.722L316.673,795.179C315.539,796.114 314.638,797.297 314.039,798.637L315.865,799.453Z" fill="#263238"/>
<path d="M324.09,857.455C323.546,857.545 323.177,858.06 323.267,858.605C323.358,859.15 323.872,859.518 324.417,859.428L324.09,857.455ZM322.603,823.249L323.247,822.485L323.246,822.484L322.603,823.249ZM314.668,803.355C314.751,802.809 314.375,802.299 313.829,802.216C313.283,802.133 312.773,802.508 312.69,803.054L314.668,803.355ZM324.254,858.441C324.417,859.428 324.418,859.428 324.418,859.428C324.419,859.428 324.419,859.428 324.42,859.428C324.421,859.427 324.422,859.427 324.423,859.427C324.425,859.427 324.428,859.426 324.431,859.426C324.437,859.424 324.446,859.423 324.456,859.421C324.477,859.417 324.505,859.412 324.54,859.405C324.611,859.391 324.71,859.37 324.836,859.34C325.088,859.28 325.445,859.186 325.888,859.044C326.773,858.76 328.002,858.283 329.409,857.509C332.228,855.956 335.756,853.211 338.669,848.439L336.962,847.397C334.254,851.833 331.001,854.349 328.445,855.757C327.164,856.462 326.056,856.89 325.277,857.14C324.887,857.265 324.58,857.345 324.376,857.394C324.274,857.418 324.197,857.434 324.149,857.444C324.124,857.449 324.107,857.452 324.097,857.454C324.093,857.454 324.09,857.455 324.088,857.455C324.088,857.455 324.088,857.455 324.088,857.455C324.088,857.455 324.088,857.455 324.089,857.455C324.089,857.455 324.089,857.455 324.09,857.455C324.09,857.455 324.09,857.455 324.254,858.441ZM338.669,848.439C340.148,846.016 340.799,843.794 340.622,841.628C340.446,839.469 339.459,837.51 337.941,835.593C336.43,833.683 334.341,831.75 331.864,829.641C329.425,827.564 326.412,825.154 323.247,822.485L321.958,824.014C325.247,826.788 328.065,829.033 330.567,831.163C333.031,833.261 334.992,835.088 336.373,836.834C337.748,838.571 338.496,840.163 338.629,841.791C338.761,843.413 338.294,845.215 336.962,847.397L338.669,848.439ZM323.246,822.484C315.475,815.948 313.865,808.636 314.668,803.355L312.69,803.054C311.779,809.047 313.672,817.045 321.959,824.015L323.246,822.484Z" fill="#263238"/>
<path d="M340.63,856.088C340.161,856.379 340.016,856.995 340.307,857.464C340.597,857.934 341.214,858.079 341.683,857.788L340.63,856.088ZM347.081,848.895L346.114,848.638L346.112,848.646L347.081,848.895ZM319.428,815.74C319.093,815.301 318.466,815.216 318.027,815.551C317.588,815.886 317.503,816.513 317.838,816.953L319.428,815.74ZM341.683,857.788C344.845,855.83 347.126,852.734 348.049,849.144L346.112,848.646C345.318,851.734 343.355,854.4 340.63,856.088L341.683,857.788ZM348.047,849.152C348.936,845.806 348.759,842.197 347.127,838.649C345.5,835.109 342.453,831.692 337.699,828.658L336.623,830.344C341.134,833.223 343.879,836.371 345.31,839.484C346.738,842.589 346.889,845.72 346.114,848.638L348.047,849.152ZM337.699,828.658C335.366,827.169 333.305,825.952 331.466,824.88C329.62,823.804 328.017,822.885 326.567,821.974C323.689,820.166 321.479,818.43 319.428,815.74L317.838,816.953C320.085,819.9 322.508,821.786 325.503,823.667C326.989,824.601 328.634,825.544 330.459,826.608C332.29,827.675 334.324,828.876 336.623,830.344L337.699,828.658Z" fill="#263238"/>
<path d="M334.361,858.431C333.815,858.516 333.441,859.026 333.525,859.572C333.609,860.118 334.12,860.492 334.666,860.408L334.361,858.431ZM339.159,859.078C339.663,858.852 339.888,858.26 339.661,857.756C339.435,857.252 338.843,857.027 338.339,857.254L339.159,859.078ZM334.666,860.408C336.217,860.168 337.728,859.721 339.159,859.078L338.339,857.254C337.073,857.823 335.734,858.219 334.361,858.431L334.666,860.408Z" fill="#263238"/>
<path d="M450.648,788.283C444.649,781.631 442.204,774.226 444.019,764.066C447.17,746.526 466.53,727.02 466.53,714.755C466.53,702.49 475.164,673.925 501.544,672.234C527.925,670.542 541.311,683.722 546.92,712.587C552.528,741.452 552.251,746.501 558.78,759.969C561.465,765.519 564.502,771.119 565.612,777.246C567.817,789.398 554.545,795.337 545.155,798.682C518.787,808.053 485.789,814.242 460.959,797.266C457.174,794.692 453.712,791.676 450.648,788.283L450.648,788.283Z" fill="#263238" stroke="#263238" stroke-width="1" stroke-miterlimit="3.999327" stroke-linecap="round" stroke-linejoin="round"/>
<path d="M546.606,733.992C546.104,733.761 545.511,733.981 545.28,734.482C545.049,734.984 545.269,735.578 545.771,735.809L546.606,733.992ZM550.457,737.393C550.996,737.514 551.531,737.175 551.652,736.636C551.773,736.098 551.434,735.563 550.896,735.441L550.457,737.393ZM545.771,735.809C547.273,736.499 548.843,737.03 550.457,737.393L550.896,735.441C549.418,735.11 547.981,734.623 546.606,733.992L545.771,735.809Z" fill="#FFDEDE"/>
<path d="M510.934,694.669C510.718,694.16 510.13,693.924 509.622,694.14C509.114,694.356 508.878,694.944 509.094,695.452L510.934,694.669ZM532.702,727.483L532.156,728.322L532.157,728.322L532.702,727.483ZM539.492,732.732C539.975,732.998 540.584,732.822 540.85,732.338C541.117,731.855 540.941,731.246 540.457,730.98L539.492,732.732ZM510.014,695.06C509.094,695.452 509.094,695.452 509.094,695.452C509.094,695.453 509.094,695.453 509.095,695.453C509.095,695.454 509.095,695.456 509.096,695.457C509.098,695.461 509.1,695.466 509.102,695.472C509.108,695.484 509.116,695.503 509.126,695.527C509.147,695.575 509.177,695.645 509.218,695.737C509.298,695.922 509.417,696.191 509.573,696.537C509.885,697.227 510.343,698.221 510.93,699.437C512.105,701.869 513.801,705.196 515.885,708.777C520.025,715.891 525.796,724.185 532.156,728.322L533.247,726.645C527.318,722.789 521.745,714.871 517.614,707.771C515.562,704.246 513.89,700.966 512.731,698.567C512.152,697.368 511.701,696.391 511.396,695.714C511.244,695.376 511.128,695.113 511.05,694.936C511.011,694.847 510.982,694.779 510.962,694.734C510.953,694.712 510.945,694.695 510.941,694.684C510.938,694.679 510.937,694.674 510.935,694.672C510.935,694.671 510.935,694.67 510.934,694.669C510.934,694.669 510.934,694.669 510.934,694.669C510.934,694.668 510.934,694.669 510.014,695.06ZM532.157,728.322C534.938,730.127 537.379,731.568 539.492,732.732L540.457,730.98C538.385,729.839 535.986,728.423 533.246,726.645L532.157,728.322Z" fill="#FFDEDE"/>
<path d="M494.833,703.093C495.111,702.616 494.949,702.003 494.472,701.725C493.995,701.448 493.382,701.609 493.105,702.086L494.833,703.093ZM460.904,735.027C460.399,735.252 460.173,735.843 460.398,736.347C460.623,736.852 461.214,737.078 461.719,736.853L460.904,735.027ZM493.105,702.086C487.142,712.327 475.895,728.337 460.904,735.027L461.719,736.853C477.331,729.887 488.847,713.374 494.833,703.093L493.105,702.086Z" fill="#FFDEDE"/>
<path d="M499.573,694.049C499.797,693.544 499.568,692.953 499.063,692.73C498.558,692.507 497.967,692.735 497.744,693.24L499.573,694.049ZM495.642,697.502C495.386,697.991 495.575,698.596 496.064,698.852C496.553,699.109 497.157,698.92 497.414,698.431L495.642,697.502ZM498.659,693.645C497.744,693.24 497.744,693.24 497.744,693.24C497.744,693.24 497.744,693.24 497.744,693.24C497.744,693.24 497.744,693.24 497.744,693.24C497.744,693.24 497.744,693.24 497.744,693.241C497.744,693.241 497.743,693.242 497.743,693.243C497.741,693.246 497.739,693.25 497.737,693.256C497.732,693.268 497.724,693.286 497.713,693.31C497.691,693.358 497.658,693.431 497.614,693.527C497.526,693.719 497.393,694.004 497.216,694.373C496.863,695.11 496.336,696.18 495.642,697.502L497.414,698.431C498.12,697.085 498.658,695.994 499.02,695.237C499.201,694.858 499.339,694.563 499.431,694.362C499.477,694.262 499.512,694.184 499.536,694.132C499.548,694.105 499.557,694.085 499.563,694.071C499.566,694.064 499.569,694.059 499.57,694.055C499.571,694.053 499.572,694.052 499.572,694.051C499.573,694.05 499.573,694.05 499.573,694.05C499.573,694.049 499.573,694.049 499.573,694.049C499.573,694.049 499.573,694.049 499.573,694.049C499.573,694.049 499.573,694.049 498.659,693.645Z" fill="#FFDEDE"/>
<path d="M471.468,737.127C471.861,736.738 471.864,736.105 471.475,735.712C471.087,735.32 470.454,735.317 470.061,735.705L471.468,737.127ZM452.755,778.291C452.813,778.84 453.306,779.238 453.855,779.18C454.404,779.121 454.802,778.629 454.744,778.08L452.755,778.291ZM470.765,736.416C470.061,735.705 470.061,735.706 470.061,735.706C470.06,735.706 470.06,735.707 470.059,735.707C470.059,735.708 470.057,735.709 470.056,735.711C470.053,735.714 470.049,735.718 470.044,735.723C470.033,735.734 470.018,735.749 469.998,735.769C469.959,735.808 469.902,735.866 469.829,735.942C469.682,736.093 469.469,736.317 469.201,736.607C468.664,737.189 467.903,738.041 466.999,739.134C465.192,741.318 462.809,744.466 460.5,748.331C455.895,756.042 451.525,766.709 452.755,778.291L454.744,778.08C453.579,767.111 457.716,756.893 462.217,749.357C464.462,745.598 466.782,742.533 468.54,740.409C469.418,739.347 470.155,738.522 470.67,737.964C470.928,737.686 471.13,737.474 471.266,737.333C471.334,737.262 471.386,737.21 471.42,737.175C471.437,737.158 471.45,737.145 471.458,737.137C471.462,737.133 471.465,737.13 471.467,737.128C471.468,737.128 471.468,737.127 471.468,737.127C471.469,737.127 471.469,737.127 471.469,737.126C471.469,737.127 471.468,737.127 470.765,736.416Z" fill="#FFDEDE"/>
<path d="M476.91,740.946C477.101,740.427 476.835,739.852 476.316,739.662C475.798,739.471 475.223,739.737 475.033,740.255L476.91,740.946ZM468.836,780.733C468.935,781.276 469.456,781.636 469.999,781.537C470.543,781.437 470.902,780.916 470.803,780.373L468.836,780.733ZM475.971,740.6C475.033,740.255 475.033,740.255 475.033,740.256C475.033,740.256 475.032,740.256 475.032,740.257C475.032,740.258 475.031,740.259 475.031,740.261C475.03,740.264 475.028,740.269 475.025,740.275C475.021,740.288 475.014,740.306 475.005,740.33C474.988,740.379 474.962,740.45 474.929,740.543C474.863,740.729 474.766,741.003 474.645,741.356C474.402,742.062 474.059,743.085 473.657,744.361C472.854,746.913 471.812,750.477 470.858,754.532C468.961,762.6 467.378,772.761 468.836,780.733L470.803,780.373C469.424,772.835 470.917,763.02 472.805,754.989C473.744,750.994 474.772,747.479 475.565,744.962C475.961,743.705 476.299,742.698 476.536,742.006C476.655,741.66 476.749,741.394 476.813,741.214C476.845,741.125 476.87,741.057 476.886,741.012C476.894,740.989 476.9,740.972 476.904,740.961C476.906,740.956 476.908,740.951 476.909,740.949C476.909,740.948 476.91,740.947 476.91,740.946C476.91,740.946 476.91,740.946 476.91,740.946C476.91,740.945 476.91,740.946 475.971,740.6Z" fill="#FFDEDE"/>
<path d="M484.44,765.031C484.44,765.031 439.67,777.045 436.279,778.248C432.889,779.451 433.38,787.156 433.38,788.834C433.38,790.513 423.461,841.027 423.461,841.027C420.286,843.017 417.288,845.272 414.499,847.767C410.63,851.376 412.079,856.186 412.079,857.389C412.079,858.592 412.319,859.068 411.109,860.271C409.899,861.473 407.239,859.318 407.731,866.773C408.222,874.227 405.55,891.829 412.319,892.744C419.087,893.658 422.49,892.994 432.41,889.624C438.251,887.69 443.164,883.673 446.199,878.349L446.199,906.738L567.679,906.738C567.679,906.738 580.018,870.895 580.749,847.329C581.48,823.763 584.619,789.11 580.27,782.62C575.922,776.131 552.919,768.914 532.588,766.509C512.258,764.104 488.07,764.066 484.44,765.031Z" fill="#4C6ED7"/>
<g opacity="0.24" style="mix-blend-mode:multiply">
<path d="M575.645,778.686C576.275,779.426 576.54,780.052 575.998,780.303C574.334,781.092 566.519,783.598 565.574,786.892C564.629,790.187 565.019,776.87 563.204,780.766C561.389,784.662 558.931,800.085 548.987,831.18C541.033,855.998 536.723,887.72 539.407,906.7L567.679,906.7C567.679,906.7 580.018,870.857 580.749,847.291C581.48,823.726 584.619,789.072 580.27,782.583C579.011,780.985 577.437,779.659 575.645,778.686L575.645,778.686Z" fill="#000000"/>
</g>
<path d="M486.129,758.29C484.435,759.426 483.094,761.01 482.259,762.863C480.57,766.221 466.29,792.442 465.08,793.645C463.87,794.848 471.609,794.61 474.76,793.169C477.911,791.728 483.709,791.728 483.709,791.728L489.28,796.051L506.46,802.791C506.46,802.791 514.199,797.253 518.068,794.134C521.938,791.014 523.639,789.799 523.639,789.799C526.999,790.929 530.241,792.381 533.319,794.134C537.189,796.539 535.739,797.742 537.189,796.539C538.638,795.336 537.92,792.931 535.928,789.561C533.937,786.191 527.95,767.674 520.438,760.746C512.926,753.818 495.078,751.55 486.129,758.29Z" fill="#4C6ED7" stroke="#263238" stroke-width="1" stroke-miterlimit="3.999327" stroke-linecap="round" stroke-linejoin="round"/>
<path d="M521.219,818.188L554.621,818.426L553.89,827.81L536.71,836.467L521.219,828.048L521.219,818.188Z" fill="#4C6ED7" stroke="#263238" stroke-width="1" stroke-miterlimit="3.999327" stroke-linecap="round" stroke-linejoin="round"/>
<path d="M446.199,815.294L479.6,815.532L478.869,824.916L461.689,833.573L446.199,825.154L446.199,815.294Z" fill="#4C6ED7" stroke="#263238" stroke-width="1" stroke-miterlimit="3.999327" stroke-linecap="round" stroke-linejoin="round"/>
<g opacity="0.24" style="mix-blend-mode:multiply">
<path d="M446.602,887.244C446.602,887.244 444.712,816.108 446.136,808.09C447.56,800.072 437.603,776.055 438.069,788.784C438.536,801.513 441.851,820.694 442.128,825.467C442.405,830.24 430.961,827.885 431.906,834.011C432.851,840.138 439.468,840.125 441.397,849.559C443.325,858.993 427.167,858.504 427.167,863.691C427.167,868.877 432.864,875.931 428.125,880.178C423.385,884.425 420.713,878.737 420.713,878.737C422.4,883.205 422.724,888.068 421.646,892.719C425.315,891.968 428.925,890.955 432.448,889.687C438.289,887.753 443.202,883.735 446.237,878.411L446.237,888.634L446.602,887.244Z" fill="#000000"/>
</g>
<path d="M484.411,765.125L484.154,764.158L484.152,764.159L484.411,765.125ZM423.432,841.121L423.963,841.969C424.197,841.822 424.36,841.585 424.413,841.314L423.432,841.121ZM414.47,847.862L413.803,847.116L413.788,847.13L414.47,847.862ZM432.381,889.719L432.066,888.769L432.059,888.772L432.381,889.719ZM446.17,878.443L447.17,878.443C447.17,877.989 446.864,877.593 446.426,877.476C445.987,877.36 445.526,877.554 445.301,877.948L446.17,878.443ZM446.17,906.832L445.17,906.832C445.17,907.384 445.617,907.832 446.17,907.832L446.17,906.832ZM567.649,906.832L567.649,907.832C568.076,907.832 568.456,907.561 568.595,907.158L567.649,906.832ZM484.411,765.125C484.152,764.159 484.152,764.159 484.151,764.159C484.151,764.159 484.15,764.159 484.15,764.16C484.148,764.16 484.146,764.16 484.144,764.161C484.138,764.163 484.13,764.165 484.119,764.168C484.098,764.173 484.066,764.182 484.023,764.193C483.938,764.216 483.812,764.25 483.648,764.294C483.319,764.383 482.837,764.512 482.221,764.678C480.99,765.009 479.228,765.483 477.102,766.055C472.852,767.201 467.149,768.74 461.34,770.317C449.759,773.462 437.658,776.782 435.916,777.4L436.585,779.285C438.233,778.7 450.212,775.411 461.864,772.247C467.671,770.671 473.373,769.131 477.623,767.986C479.748,767.414 481.51,766.94 482.74,766.609C483.356,766.444 483.838,766.314 484.167,766.226C484.331,766.182 484.457,766.148 484.542,766.125C484.584,766.114 484.616,766.105 484.638,766.099C484.649,766.096 484.657,766.094 484.662,766.093C484.665,766.092 484.667,766.092 484.668,766.091C484.669,766.091 484.669,766.091 484.67,766.091C484.67,766.091 484.67,766.091 484.411,765.125ZM435.916,777.4C434.721,777.823 433.954,778.793 433.462,779.843C432.969,780.893 432.694,782.136 432.538,783.326C432.226,785.699 432.351,788.158 432.351,788.929L434.351,788.929C434.351,788.02 434.231,785.788 434.521,783.587C434.665,782.491 434.904,781.478 435.272,780.692C435.641,779.907 436.084,779.462 436.585,779.285L435.916,777.4ZM432.351,788.929C432.351,788.906 432.351,788.944 432.331,789.097C432.314,789.229 432.288,789.409 432.252,789.636C432.181,790.089 432.075,790.711 431.94,791.48C431.67,793.016 431.283,795.123 430.818,797.608C429.889,802.577 428.649,809.046 427.41,815.465C426.17,821.883 424.93,828.249 424,833.011C423.535,835.391 423.148,837.371 422.877,838.755C422.741,839.447 422.634,839.991 422.562,840.361C422.525,840.546 422.498,840.688 422.479,840.784C422.469,840.832 422.462,840.868 422.458,840.892C422.455,840.904 422.453,840.913 422.452,840.919C422.452,840.923 422.451,840.925 422.451,840.926C422.451,840.927 422.451,840.928 422.45,840.928C422.45,840.928 422.45,840.929 423.432,841.121C424.413,841.314 424.413,841.314 424.413,841.313C424.413,841.313 424.413,841.313 424.413,841.312C424.414,841.31 424.414,841.308 424.415,841.305C424.416,841.299 424.418,841.29 424.42,841.277C424.425,841.253 424.432,841.217 424.441,841.169C424.46,841.073 424.488,840.931 424.524,840.746C424.597,840.376 424.704,839.832 424.839,839.14C425.11,837.755 425.498,835.775 425.963,833.394C426.893,828.632 428.133,822.264 429.373,815.844C430.613,809.424 431.854,802.951 432.784,797.976C433.249,795.489 433.638,793.374 433.91,791.826C434.046,791.053 434.154,790.418 434.228,789.947C434.294,789.522 434.351,789.131 434.351,788.929L432.351,788.929ZM422.901,840.274C419.678,842.294 416.635,844.583 413.803,847.116L415.137,848.607C417.884,846.149 420.836,843.928 423.963,841.969L422.901,840.274ZM413.788,847.13C409.501,851.128 411.05,856.687 411.05,857.483L413.05,857.483C413.05,855.874 411.701,851.811 415.152,848.593L413.788,847.13ZM411.05,857.483C411.05,857.769 411.066,858.134 411.069,858.287C411.072,858.493 411.063,858.613 411.041,858.711C411.008,858.865 410.913,859.12 410.375,859.656L411.784,861.074C412.456,860.407 412.846,859.823 412.996,859.137C413.066,858.815 413.072,858.516 413.068,858.257C413.064,857.944 413.05,857.799 413.05,857.483L411.05,857.483ZM410.375,859.656C410.311,859.719 410.21,859.771 409.773,859.86C409.414,859.933 408.753,860.039 408.168,860.46C407.537,860.914 407.113,861.627 406.877,862.651C406.646,863.654 406.578,865.029 406.704,866.933L408.699,866.801C408.579,864.978 408.659,863.827 408.826,863.1C408.989,862.393 409.213,862.172 409.337,862.083C409.507,861.961 409.707,861.914 410.171,861.82C410.558,861.741 411.243,861.612 411.784,861.074L410.375,859.656ZM406.704,866.933C406.823,868.738 406.751,871.18 406.674,873.913C406.599,876.621 406.521,879.584 406.643,882.349C406.764,885.097 407.084,887.745 407.85,889.793C408.617,891.844 409.934,893.529 412.156,893.829L412.423,891.847C411.26,891.69 410.374,890.831 409.723,889.092C409.071,887.349 408.759,884.959 408.641,882.261C408.523,879.579 408.598,876.687 408.674,873.969C408.749,871.277 408.826,868.723 408.699,866.801L406.704,866.933ZM412.156,893.829C415.605,894.295 418.251,894.365 421.312,893.872C424.342,893.385 427.744,892.35 432.702,890.665L432.059,888.772C427.097,890.457 423.839,891.44 420.994,891.898C418.182,892.351 415.742,892.296 412.423,891.847L412.156,893.829ZM432.695,890.668C438.77,888.656 443.88,884.478 447.038,878.938L445.301,877.948C442.388,883.056 437.674,886.912 432.066,888.769L432.695,890.668ZM445.17,878.443L445.17,906.832L447.17,906.832L447.17,878.443L445.17,878.443ZM446.17,907.832L567.649,907.832L567.649,905.832L446.17,905.832L446.17,907.832ZM567.649,906.832C568.595,907.158 568.595,907.157 568.595,907.157C568.595,907.157 568.595,907.156 568.596,907.156C568.596,907.154 568.597,907.153 568.597,907.15C568.599,907.146 568.601,907.139 568.604,907.13C568.61,907.112 568.619,907.086 568.631,907.051C568.655,906.982 568.69,906.879 568.736,906.744C568.827,906.473 568.96,906.075 569.131,905.56C569.471,904.529 569.957,903.032 570.543,901.162C571.715,897.424 573.284,892.193 574.877,886.223C578.056,874.304 581.35,859.358 581.719,847.454L579.72,847.392C579.359,859.053 576.117,873.812 572.944,885.707C571.361,891.643 569.8,896.846 568.635,900.564C568.052,902.423 567.569,903.911 567.231,904.932C567.063,905.443 566.931,905.838 566.841,906.104C566.796,906.237 566.761,906.338 566.738,906.406C566.727,906.44 566.718,906.465 566.712,906.482C566.709,906.49 566.707,906.497 566.706,906.501C566.705,906.503 566.705,906.504 566.704,906.505C566.704,906.506 566.704,906.506 566.704,906.506C566.704,906.507 566.704,906.507 567.649,906.832ZM581.719,847.454C581.902,841.574 582.235,835 582.564,828.333C582.893,821.67 583.218,814.915 583.385,808.692C583.551,802.473 583.56,796.759 583.251,792.182C583.096,789.894 582.861,787.867 582.52,786.192C582.183,784.54 581.726,783.134 581.072,782.158L579.41,783.271C579.843,783.918 580.239,785.014 580.56,786.591C580.877,788.146 581.104,790.075 581.255,792.317C581.558,796.798 581.552,802.437 581.386,808.639C581.22,814.836 580.895,821.569 580.566,828.234C580.237,834.894 579.904,841.489 579.72,847.392L581.719,847.454ZM581.072,782.158C579.839,780.318 577.395,778.555 574.282,776.913C571.131,775.252 567.157,773.646 562.707,772.178C553.805,769.24 542.906,766.82 532.677,765.61L532.442,767.596C542.543,768.791 553.311,771.183 562.08,774.077C566.465,775.524 570.328,777.09 573.349,778.682C576.406,780.294 578.469,781.866 579.41,783.271L581.072,782.158ZM532.677,765.61C522.471,764.403 511.308,763.79 502.243,763.6C497.71,763.505 493.693,763.516 490.576,763.611C487.511,763.705 485.195,763.882 484.154,764.158L484.668,766.091C485.442,765.885 487.511,765.706 490.637,765.61C493.711,765.516 497.693,765.505 502.201,765.6C511.22,765.789 522.316,766.398 532.442,767.596L532.677,765.61Z" fill="#263238"/>
<path d="M447.201,837.181C447.201,836.629 446.753,836.181 446.201,836.181C445.648,836.181 445.201,836.629 445.201,837.181L447.201,837.181ZM446.201,878.8L445.204,878.882C445.248,879.417 445.706,879.821 446.242,879.799C446.778,879.777 447.201,879.336 447.201,878.8L446.201,878.8ZM438.979,844.948C438.619,844.529 437.987,844.482 437.569,844.842C437.15,845.202 437.102,845.833 437.463,846.252L438.979,844.948ZM445.201,837.181L445.201,878.8L447.201,878.8L447.201,837.181L445.201,837.181ZM446.201,878.8C447.197,878.718 447.197,878.718 447.197,878.717C447.197,878.717 447.197,878.717 447.197,878.716C447.197,878.715 447.197,878.714 447.197,878.712C447.197,878.709 447.196,878.704 447.196,878.697C447.194,878.684 447.193,878.664 447.191,878.639C447.186,878.587 447.18,878.511 447.171,878.413C447.153,878.215 447.127,877.925 447.091,877.554C447.02,876.812 446.911,875.746 446.763,874.447C446.466,871.849 446.01,868.312 445.371,864.56C444.733,860.811 443.909,856.828 442.873,853.346C441.848,849.902 440.577,846.805 438.979,844.948L437.463,846.252C438.764,847.765 439.94,850.503 440.956,853.916C441.959,857.291 442.768,861.186 443.4,864.895C444.031,868.601 444.482,872.1 444.776,874.674C444.923,875.96 445.03,877.014 445.1,877.746C445.135,878.111 445.161,878.397 445.179,878.59C445.187,878.686 445.194,878.76 445.198,878.809C445.2,878.834 445.202,878.852 445.203,878.864C445.203,878.871 445.203,878.875 445.204,878.878C445.204,878.88 445.204,878.881 445.204,878.881C445.204,878.882 445.204,878.882 445.204,878.882C445.204,878.882 445.204,878.882 446.201,878.8Z" fill="#263238"/>
<path d="M413.877,858.677C413.357,858.492 412.785,858.763 412.6,859.283C412.414,859.804 412.686,860.376 413.206,860.561L413.877,858.677ZM427.666,888.498C427.411,888.988 427.601,889.592 428.091,889.847C428.581,890.102 429.185,889.912 429.44,889.422L427.666,888.498ZM413.542,859.619C413.206,860.561 413.206,860.561 413.205,860.561C413.205,860.561 413.205,860.561 413.205,860.561C413.205,860.561 413.206,860.561 413.206,860.561C413.207,860.561 413.208,860.562 413.211,860.563C413.215,860.564 413.223,860.567 413.234,860.571C413.255,860.579 413.288,860.591 413.333,860.608C413.421,860.641 413.553,860.693 413.725,860.761C414.067,860.899 414.563,861.108 415.168,861.388C416.381,861.948 418.023,862.79 419.742,863.914C423.216,866.185 426.84,869.501 428.07,873.836L429.994,873.29C428.565,868.254 424.443,864.598 420.837,862.24C419.016,861.049 417.284,860.162 416.007,859.572C415.368,859.277 414.841,859.055 414.471,858.906C414.287,858.832 414.141,858.775 414.04,858.737C413.989,858.718 413.95,858.704 413.923,858.694C413.909,858.689 413.898,858.685 413.891,858.682C413.887,858.681 413.884,858.679 413.882,858.679C413.881,858.678 413.88,858.678 413.879,858.678C413.878,858.677 413.878,858.677 413.878,858.677C413.878,858.677 413.877,858.677 413.542,859.619ZM428.07,873.836C429.355,878.363 429.234,882.061 428.804,884.609C428.588,885.885 428.295,886.875 428.06,887.538C427.942,887.869 427.839,888.118 427.768,888.28C427.732,888.361 427.704,888.42 427.687,888.457C427.678,888.475 427.672,888.488 427.668,888.495C427.666,888.498 427.665,888.5 427.665,888.501C427.665,888.501 427.665,888.501 427.665,888.501C427.665,888.5 427.665,888.5 427.665,888.5C427.666,888.5 427.666,888.499 427.666,888.499C427.666,888.499 427.666,888.498 428.553,888.96C429.44,889.422 429.44,889.422 429.441,889.421C429.441,889.421 429.441,889.421 429.441,889.42C429.442,889.419 429.442,889.419 429.442,889.418C429.443,889.416 429.445,889.413 429.446,889.411C429.449,889.406 429.452,889.399 429.456,889.391C429.464,889.374 429.475,889.352 429.489,889.324C429.516,889.268 429.553,889.188 429.598,889.086C429.688,888.882 429.809,888.587 429.944,888.207C430.214,887.447 430.539,886.344 430.776,884.942C431.25,882.135 431.369,878.134 429.994,873.29L428.07,873.836Z" fill="#263238"/>
<path d="M398.189,875.392C398.189,875.392 407.554,871.157 408.273,870.381C408.991,869.604 417.234,869.992 420.675,878.712C424.116,887.432 421.62,891.616 419.906,892.556C418.192,893.495 409.205,896.101 406.722,896.101C404.239,896.101 393.803,878.624 398.189,875.392Z" fill="#4C6ED7" stroke="#263238" stroke-width="1" stroke-miterlimit="3.999327" stroke-linecap="round" stroke-linejoin="round"/>
<path d="M487.579,762.625C487.579,762.625 483.47,906.362 485.159,906.362L514.69,906.362C514.69,906.362 514.93,801.588 516.858,791.728C518.787,781.869 523.4,764.304 522.669,759.493C521.938,754.682 489.041,757.326 489.041,757.326C488.3,759.013 487.807,760.798 487.579,762.625Z" fill="#FFDEDE"/>
<path d="M487.579,762.625C487.579,762.625 483.47,906.362 485.159,906.362L514.69,906.362C514.69,906.362 514.93,801.588 516.858,791.728C518.787,781.869 523.4,764.304 522.669,759.493C521.938,754.682 489.041,757.326 489.041,757.326C488.3,759.013 487.807,760.798 487.579,762.625Z" fill="#4C6ED7"/>
<g opacity="0.7">
<path d="M487.579,762.625C487.579,762.625 483.47,906.362 485.159,906.362L514.69,906.362C514.69,906.362 514.93,801.588 516.858,791.728C518.787,781.869 523.4,764.304 522.669,759.493C521.938,754.682 489.041,757.326 489.041,757.326C488.3,759.013 487.807,760.798 487.579,762.625Z" fill="#FFDEDE"/>
</g>
<path d="M487.579,762.625L486.587,762.501C486.583,762.533 486.58,762.565 486.579,762.597L487.579,762.625ZM514.69,906.362L514.69,907.362C515.242,907.362 515.689,906.916 515.69,906.364L514.69,906.362ZM489.041,757.326L488.961,756.329C488.594,756.358 488.273,756.587 488.125,756.924L489.041,757.326ZM487.579,762.625C486.579,762.597 486.579,762.597 486.579,762.598C486.579,762.599 486.579,762.601 486.579,762.603C486.579,762.608 486.579,762.614 486.579,762.623C486.578,762.64 486.577,762.666 486.576,762.701C486.574,762.77 486.571,762.873 486.568,763.009C486.56,763.281 486.548,763.685 486.534,764.211C486.504,765.264 486.461,766.808 486.406,768.774C486.297,772.704 486.143,778.319 485.964,785.057C485.605,798.533 485.144,816.502 484.736,834.471C484.328,852.439 483.972,870.411 483.824,883.892C483.751,890.632 483.729,896.256 483.778,900.198C483.803,902.167 483.845,903.73 483.909,904.807C483.941,905.341 483.98,905.782 484.029,906.101C484.052,906.253 484.085,906.426 484.138,906.581C484.162,906.652 484.212,906.785 484.308,906.919C484.388,907.03 484.661,907.362 485.159,907.362L485.159,905.362C485.63,905.362 485.878,905.676 485.933,905.753C486.004,905.852 486.03,905.933 486.03,905.935C486.036,905.951 486.024,905.918 486.006,905.798C485.971,905.573 485.937,905.208 485.906,904.688C485.845,903.66 485.802,902.135 485.778,900.173C485.729,896.255 485.751,890.65 485.824,883.914C485.972,870.445 486.327,852.483 486.735,834.516C487.143,816.551 487.604,798.585 487.963,785.111C488.142,778.373 488.296,772.759 488.405,768.829C488.46,766.864 488.503,765.32 488.533,764.268C488.548,763.741 488.559,763.338 488.567,763.066C488.571,762.93 488.574,762.827 488.575,762.758C488.576,762.723 488.577,762.697 488.578,762.68C488.578,762.671 488.578,762.665 488.578,762.66C488.578,762.658 488.578,762.656 488.578,762.655C488.578,762.654 488.578,762.654 487.579,762.625ZM485.159,907.362L514.69,907.362L514.69,905.362L485.159,905.362L485.159,907.362ZM514.69,906.362C515.69,906.364 515.69,906.364 515.69,906.363C515.69,906.362 515.69,906.361 515.69,906.36C515.69,906.356 515.691,906.352 515.691,906.345C515.691,906.333 515.691,906.314 515.691,906.288C515.691,906.238 515.691,906.163 515.691,906.064C515.692,905.865 515.693,905.571 515.694,905.186C515.696,904.416 515.699,903.286 515.705,901.844C515.715,898.961 515.732,894.83 515.758,889.842C515.811,879.867 515.901,866.464 516.051,852.754C516.202,839.042 516.412,825.027 516.706,813.826C516.852,808.224 517.02,803.332 517.21,799.535C517.402,795.707 517.615,793.068 517.84,791.92L515.877,791.536C515.619,792.853 515.403,795.646 515.213,799.435C515.021,803.255 514.853,808.165 514.706,813.773C514.413,824.99 514.202,839.017 514.051,852.732C513.901,866.447 513.811,879.854 513.758,889.832C513.732,894.821 513.715,898.953 513.705,901.837C513.699,903.28 513.696,904.41 513.694,905.18C513.693,905.565 513.692,905.86 513.691,906.059C513.691,906.158 513.691,906.233 513.691,906.284C513.691,906.309 513.691,906.328 513.691,906.341C513.691,906.347 513.69,906.352 513.69,906.355C513.69,906.357 513.69,906.358 513.69,906.359C513.69,906.359 513.69,906.36 514.69,906.362ZM517.84,791.92C518.806,786.983 520.425,780.205 521.74,773.922C522.393,770.804 522.966,767.825 523.33,765.317C523.689,762.849 523.865,760.711 523.658,759.343L521.68,759.643C521.838,760.681 521.712,762.543 521.351,765.029C520.996,767.475 520.432,770.406 519.782,773.513C518.491,779.679 516.84,786.614 515.877,791.536L517.84,791.92ZM523.658,759.343C523.478,758.158 522.382,757.489 521.386,757.09C520.302,756.656 518.861,756.352 517.239,756.134C513.981,755.695 509.743,755.576 505.574,755.605C501.394,755.635 497.241,755.816 494.137,755.989C492.584,756.076 491.291,756.161 490.386,756.224C489.934,756.256 489.578,756.282 489.335,756.3C489.214,756.309 489.121,756.316 489.058,756.321C489.026,756.324 489.002,756.326 488.986,756.327C488.978,756.328 488.972,756.328 488.967,756.328C488.965,756.329 488.964,756.329 488.963,756.329C488.962,756.329 488.962,756.329 488.961,756.329C488.961,756.329 488.961,756.329 489.041,757.326C489.121,758.322 489.121,758.322 489.121,758.322C489.121,758.322 489.122,758.322 489.122,758.322C489.123,758.322 489.125,758.322 489.126,758.322C489.13,758.322 489.136,758.321 489.144,758.321C489.159,758.319 489.182,758.318 489.213,758.315C489.275,758.31 489.366,758.303 489.486,758.294C489.725,758.276 490.077,758.25 490.526,758.219C491.423,758.156 492.706,758.072 494.248,757.986C497.335,757.814 501.452,757.635 505.588,757.605C509.734,757.576 513.858,757.697 516.973,758.116C518.538,758.327 519.787,758.605 520.642,758.947C521.585,759.325 521.678,759.625 521.68,759.643L523.658,759.343ZM488.125,756.924C487.345,758.699 486.827,760.578 486.587,762.501L488.571,762.749C488.788,761.018 489.254,759.327 489.956,757.728L488.125,756.924Z" fill="#263238"/>
<path d="M516.682,792.919C506.995,796.013 496.636,796.39 486.747,794.009C485.638,836.981 483.974,906.362 485.159,906.362L514.691,906.362C514.691,906.362 514.918,808.165 516.682,792.919Z" fill="#FFFDFD"/>
<path d="M514.753,891.754C514.753,887.82 514.753,883.373 514.829,878.599L484.919,878.599C484.919,883.41 484.806,887.845 484.781,891.754L514.753,891.754Z" fill="#263238"/>
<path d="M485.386,853.543C485.297,858.053 485.209,862.45 485.134,866.697L514.955,866.697C514.955,862.4 515.031,857.99 515.081,853.543L485.386,853.543Z" fill="#263238"/>
<path d="M485.903,828.486C485.802,832.858 485.701,837.256 485.613,841.641L515.195,841.641C515.258,837.156 515.321,832.733 515.397,828.486L485.903,828.486Z" fill="#263238"/>
<path d="M486.508,803.43C486.407,807.652 486.293,812.062 486.18,816.584L515.636,816.584C515.75,811.661 515.888,807.201 516.039,803.43L486.508,803.43Z" fill="#263238"/>
<path d="M516.682,792.919L517.675,793.034C517.715,792.696 517.58,792.362 517.317,792.146C517.055,791.931 516.701,791.863 516.378,791.966L516.682,792.919ZM486.747,794.009L486.981,793.036C486.688,792.966 486.378,793.031 486.138,793.215C485.899,793.399 485.755,793.681 485.747,793.983L486.747,794.009ZM514.691,906.362L514.691,907.362C515.242,907.362 515.689,906.916 515.691,906.364L514.691,906.362ZM516.378,791.966C506.865,795.005 496.692,795.375 486.981,793.036L486.513,794.981C496.58,797.406 507.125,797.022 516.986,793.871L516.378,791.966ZM485.747,793.983C485.193,815.469 484.499,843.561 484.093,866.282C483.89,877.642 483.758,887.664 483.751,894.849C483.748,898.439 483.776,901.331 483.842,903.33C483.875,904.326 483.918,905.12 483.974,905.673C484.002,905.944 484.036,906.194 484.083,906.393C484.105,906.485 484.143,906.627 484.215,906.767C484.25,906.836 484.321,906.959 484.445,907.076C484.576,907.2 484.819,907.362 485.159,907.362L485.159,905.362C485.481,905.362 485.705,905.515 485.819,905.623C485.925,905.723 485.978,905.821 485.996,905.856C486.033,905.93 486.039,905.972 486.029,905.93C486.013,905.864 485.989,905.72 485.964,905.472C485.915,904.988 485.874,904.249 485.841,903.264C485.776,901.3 485.748,898.436 485.751,894.851C485.758,887.684 485.889,877.675 486.093,866.318C486.499,843.605 487.192,815.52 487.747,794.034L485.747,793.983ZM485.159,907.362L514.691,907.362L514.691,905.362L485.159,905.362L485.159,907.362ZM514.691,906.362C515.691,906.364 515.691,906.364 515.691,906.363C515.691,906.363 515.691,906.361 515.691,906.36C515.691,906.357 515.691,906.353 515.691,906.347C515.691,906.335 515.691,906.317 515.691,906.293C515.691,906.246 515.691,906.176 515.691,906.083C515.692,905.896 515.693,905.62 515.694,905.259C515.696,904.536 515.699,903.474 515.704,902.117C515.713,899.402 515.729,895.507 515.754,890.786C515.802,881.343 515.886,868.594 516.025,855.368C516.302,828.877 516.801,800.59 517.675,793.034L515.689,792.804C514.799,800.494 514.302,828.929 514.025,855.347C513.886,868.577 513.803,881.33 513.754,890.776C513.729,895.498 513.713,899.394 513.704,902.109C513.699,903.467 513.696,904.53 513.694,905.253C513.693,905.614 513.692,905.891 513.691,906.077C513.691,906.171 513.691,906.241 513.691,906.288C513.691,906.312 513.691,906.33 513.691,906.342C513.691,906.348 513.691,906.352 513.691,906.355C513.691,906.357 513.691,906.358 513.691,906.359C513.691,906.359 513.691,906.36 514.691,906.362Z" fill="#263238"/>
<path d="M501.62,700.51C501.62,700.51 497.259,714.216 478.39,726.494C478.39,726.494 477.13,743.57 482.26,756.311C487.39,769.052 500.889,779.163 506.699,777.96C512.51,776.757 523.879,763.765 527.748,754.632C531.618,745.499 531.631,729.137 531.631,729.137C531.631,729.137 512.018,716.433 501.62,700.51Z" fill="#FFDEDE" stroke="#263238" stroke-width="1" stroke-miterlimit="3.999327" stroke-linecap="round" stroke-linejoin="round"/>
<path d="M501.168,747.052C501.203,746.501 500.783,746.026 500.232,745.992C499.681,745.958 499.206,746.377 499.172,746.928L501.168,747.052ZM505.515,753.57C505.565,753.02 505.16,752.533 504.61,752.484C504.06,752.434 503.573,752.839 503.524,753.389L505.515,753.57ZM500.17,746.99C499.172,746.928 499.172,746.928 499.172,746.928C499.172,746.928 499.172,746.928 499.172,746.929C499.172,746.929 499.172,746.929 499.172,746.93C499.172,746.931 499.172,746.933 499.172,746.935C499.172,746.939 499.171,746.945 499.171,746.953C499.17,746.969 499.168,746.992 499.167,747.022C499.163,747.083 499.158,747.17 499.153,747.281C499.142,747.504 499.127,747.821 499.113,748.204C499.086,748.969 499.061,750.001 499.076,751.06C499.09,752.111 499.143,753.222 499.277,754.133C499.343,754.585 499.435,755.028 499.569,755.403C499.685,755.727 499.907,756.224 500.374,756.504L501.404,754.79C501.568,754.889 501.541,754.978 501.452,754.73C501.382,754.532 501.313,754.236 501.255,753.843C501.141,753.062 501.09,752.054 501.076,751.032C501.062,750.018 501.085,749.021 501.112,748.276C501.125,747.905 501.139,747.597 501.15,747.383C501.156,747.276 501.16,747.192 501.163,747.136C501.165,747.108 501.166,747.086 501.167,747.072C501.168,747.065 501.168,747.06 501.168,747.056C501.168,747.055 501.168,747.053 501.168,747.053C501.168,747.052 501.168,747.052 501.168,747.052C501.168,747.052 501.168,747.052 501.168,747.052C501.168,747.052 501.168,747.052 500.17,746.99ZM500.374,756.504C501.218,757.011 502.399,757.189 503.452,756.75C504.582,756.28 505.369,755.191 505.515,753.57L503.524,753.389C503.431,754.411 503.008,754.769 502.684,754.904C502.285,755.07 501.77,755.009 501.404,754.79L500.374,756.504Z" fill="#263238"/>
<path d="M497.939,759.664C497.397,759.56 496.873,759.915 496.768,760.458C496.664,761 497.019,761.524 497.562,761.628L497.939,759.664ZM509.864,760.544C510.341,760.265 510.501,759.652 510.222,759.175C509.943,758.699 509.33,758.539 508.854,758.818L509.864,760.544ZM497.75,760.646C497.562,761.628 497.562,761.628 497.562,761.628C497.562,761.628 497.563,761.628 497.563,761.629C497.563,761.629 497.564,761.629 497.565,761.629C497.566,761.629 497.568,761.63 497.57,761.63C497.575,761.631 497.582,761.632 497.59,761.634C497.606,761.637 497.63,761.641 497.66,761.646C497.721,761.657 497.808,761.672 497.92,761.691C498.143,761.727 498.464,761.776 498.86,761.826C499.652,761.927 500.753,762.035 501.989,762.066C504.41,762.126 507.555,761.897 509.864,760.544L508.854,758.818C507.054,759.872 504.395,760.125 502.039,760.067C500.887,760.038 499.856,759.936 499.113,759.842C498.742,759.795 498.444,759.75 498.242,759.717C498.14,759.7 498.063,759.687 498.011,759.677C497.986,759.673 497.967,759.669 497.954,759.667C497.948,759.666 497.944,759.665 497.942,759.665C497.94,759.664 497.939,759.664 497.939,759.664C497.939,759.664 497.939,759.664 497.939,759.664C497.939,759.664 497.939,759.664 497.939,759.664C497.939,759.664 497.939,759.664 497.75,760.646Z" fill="#263238"/>
<path d="M497.343,724.215C497.877,724.357 498.424,724.039 498.566,723.505C498.707,722.971 498.389,722.424 497.855,722.282L497.343,724.215ZM482.214,727.57C481.937,728.048 482.1,728.66 482.577,728.937C483.055,729.214 483.667,729.052 483.944,728.574L482.214,727.57ZM497.599,723.249C497.855,722.282 497.855,722.282 497.855,722.282C497.854,722.282 497.854,722.282 497.854,722.282C497.853,722.281 497.852,722.281 497.851,722.281C497.848,722.28 497.845,722.28 497.842,722.279C497.835,722.277 497.826,722.274 497.814,722.272C497.79,722.266 497.757,722.257 497.715,722.247C497.63,722.227 497.509,722.2 497.356,722.168C497.049,722.105 496.612,722.025 496.075,721.954C495.004,721.812 493.523,721.704 491.889,721.845C488.627,722.127 484.621,723.422 482.214,727.57L483.944,728.574C485.899,725.205 489.153,724.089 492.061,723.838C493.511,723.713 494.842,723.808 495.812,723.937C496.296,724.001 496.686,724.072 496.952,724.127C497.085,724.155 497.187,724.178 497.253,724.193C497.287,724.201 497.311,724.207 497.326,724.211C497.334,724.213 497.339,724.214 497.342,724.215C497.343,724.215 497.344,724.216 497.344,724.216C497.344,724.216 497.344,724.216 497.344,724.216C497.344,724.216 497.344,724.216 497.344,724.216C497.343,724.215 497.343,724.215 497.599,723.249Z" fill="#263238"/>
<path d="M506.66,728.305C506.269,728.696 506.27,729.329 506.66,729.719C507.051,730.11 507.684,730.109 508.075,729.719L506.66,728.305ZM523.806,729.165C524.271,729.463 524.889,729.327 525.187,728.862C525.485,728.397 525.35,727.779 524.885,727.481L523.806,729.165ZM507.367,729.012C508.075,729.719 508.074,729.719 508.074,729.719C508.074,729.719 508.074,729.72 508.073,729.72C508.073,729.72 508.073,729.72 508.073,729.721C508.073,729.721 508.073,729.721 508.073,729.72C508.075,729.719 508.077,729.716 508.082,729.712C508.091,729.703 508.107,729.688 508.129,729.667C508.173,729.626 508.243,729.563 508.337,729.483C508.527,729.322 508.814,729.092 509.19,728.833C509.946,728.313 511.05,727.68 512.438,727.232C515.18,726.349 519.11,726.156 523.806,729.165L524.885,727.481C519.648,724.125 515.089,724.277 511.825,725.329C510.211,725.849 508.932,726.582 508.056,727.186C507.617,727.488 507.276,727.76 507.041,727.96C506.924,728.06 506.833,728.142 506.769,728.201C506.737,728.231 506.712,728.255 506.693,728.272C506.684,728.281 506.677,728.288 506.671,728.294C506.669,728.296 506.666,728.299 506.664,728.301C506.663,728.302 506.662,728.302 506.662,728.303C506.661,728.304 506.661,728.304 506.661,728.304C506.66,728.305 506.66,728.305 507.367,729.012Z" fill="#263238"/>
<path d="M486.576,737.592C486.174,737.214 485.541,737.233 485.162,737.635C484.783,738.037 484.802,738.669 485.204,739.048L486.576,737.592ZM498.37,740.498C498.881,740.288 499.125,739.704 498.915,739.193C498.705,738.682 498.121,738.438 497.61,738.648L498.37,740.498ZM485.89,738.32C485.204,739.048 485.205,739.049 485.205,739.049C485.205,739.049 485.206,739.05 485.206,739.05C485.207,739.051 485.207,739.051 485.208,739.052C485.21,739.054 485.212,739.055 485.214,739.058C485.219,739.062 485.224,739.067 485.231,739.073C485.245,739.086 485.263,739.102 485.286,739.122C485.332,739.162 485.395,739.216 485.477,739.281C485.64,739.412 485.875,739.588 486.179,739.787C486.786,740.183 487.672,740.67 488.81,741.051C491.104,741.818 494.378,742.138 498.37,740.498L497.61,738.648C494.102,740.09 491.326,739.783 489.445,739.154C488.496,738.837 487.763,738.432 487.273,738.112C487.028,737.952 486.845,737.814 486.727,737.72C486.669,737.673 486.626,737.637 486.601,737.615C486.588,737.604 486.58,737.596 486.575,737.592C486.573,737.59 486.572,737.589 486.572,737.589C486.572,737.589 486.573,737.59 486.573,737.59C486.573,737.59 486.574,737.591 486.574,737.591C486.574,737.591 486.575,737.592 486.575,737.592C486.575,737.592 486.576,737.592 485.89,738.32Z" fill="#263238"/>
<path d="M509.26,738.439C508.758,738.209 508.164,738.429 507.933,738.93C507.703,739.432 507.923,740.026 508.424,740.257L509.26,738.439ZM520.987,739.716C521.453,739.419 521.591,738.801 521.295,738.335C520.998,737.869 520.38,737.731 519.914,738.028L520.987,739.716ZM508.842,739.348C508.424,740.257 508.425,740.257 508.425,740.257C508.425,740.257 508.426,740.257 508.426,740.257C508.427,740.258 508.428,740.258 508.428,740.258C508.43,740.259 508.432,740.26 508.435,740.261C508.439,740.263 508.446,740.266 508.454,740.27C508.47,740.277 508.492,740.287 508.519,740.298C508.575,740.322 508.654,740.355 508.754,740.395C508.954,740.475 509.241,740.582 509.601,740.699C510.318,740.932 511.331,741.204 512.523,741.365C514.895,741.686 518.063,741.574 520.987,739.716L519.914,738.028C517.531,739.542 514.896,739.668 512.79,739.383C511.743,739.242 510.849,739.001 510.219,738.797C509.904,738.695 509.657,738.602 509.493,738.537C509.41,738.504 509.348,738.478 509.309,738.461C509.289,738.452 509.275,738.446 509.267,738.443C509.263,738.441 509.26,738.439 509.259,738.439C509.258,738.439 509.258,738.439 509.258,738.439C509.258,738.439 509.258,738.439 509.259,738.439C509.259,738.439 509.259,738.439 509.259,738.439C509.259,738.439 509.26,738.439 508.842,739.348Z" fill="#263238"/>
<path d="M500.05,740.25C500.05,745.408 495.842,749.597 490.641,749.597L490.641,751.097C496.662,751.097 501.55,746.245 501.55,740.25L500.05,740.25ZM490.641,749.597C485.441,749.597 481.232,745.408 481.232,740.25L479.732,740.25C479.732,746.245 484.621,751.097 490.641,751.097L490.641,749.597ZM481.232,740.25C481.232,735.091 485.441,730.902 490.641,730.902L490.641,729.402C484.621,729.402 479.732,734.254 479.732,740.25L481.232,740.25ZM490.641,730.902C495.842,730.902 500.05,735.091 500.05,740.25L501.55,740.25C501.55,734.254 496.662,729.402 490.641,729.402L490.641,730.902Z" fill="#263238"/>
<path d="M524.301,740.25C524.301,745.408 520.093,749.597 514.892,749.597L514.892,751.097C520.913,751.097 525.801,746.245 525.801,740.25L524.301,740.25ZM514.892,749.597C509.691,749.597 505.483,745.408 505.483,740.25L503.983,740.25C503.983,746.245 508.871,751.097 514.892,751.097L514.892,749.597ZM505.483,740.25C505.483,735.091 509.691,730.902 514.892,730.902L514.892,729.402C508.871,729.402 503.983,734.254 503.983,740.25L505.483,740.25ZM514.892,730.902C520.093,730.902 524.301,735.091 524.301,740.25L525.801,740.25C525.801,734.254 520.913,729.402 514.892,729.402L514.892,730.902Z" fill="#263238"/>
<line x1="500.801" y1="739.5" x2="504.721" y2="739.5" stroke="#263238" stroke-width="0.75" stroke-miterlimit="3.999327" stroke-linecap="round" stroke-linejoin="round"/>
<line x1="525.051" y1="739.5" x2="531.001" y2="739.5" stroke="#263238" stroke-width="0.75" stroke-miterlimit="3.999327" stroke-linecap="round" stroke-linejoin="round"/>
<line x1="477.76" y1="739.5" x2="480.458" y2="739.5" stroke="#263238" stroke-width="0.75" stroke-miterlimit="3.999327" stroke-linecap="round" stroke-linejoin="round"/>
<path d="M494.462,740.877C494.462,740.877 497.046,740.989 494.626,741.88C492.205,742.77 489.759,742.331 487.251,740.212C487.251,740.212 492.054,740.839 494.462,740.877Z" fill="#263238" stroke="#263238" stroke-width="1" stroke-miterlimit="3.999327" stroke-linecap="round" stroke-linejoin="round"/>
<path d="M511.981,740.275C511.981,740.275 509.459,740.049 511.691,741.24C513.922,742.431 516.456,742.331 519.255,740.538C519.217,740.601 514.376,740.601 511.981,740.275Z" fill="#263238" stroke="#263238" stroke-width="1" stroke-miterlimit="3.999327" stroke-linecap="round" stroke-linejoin="round"/>
<path d="M550.26,823.951L546.39,784.261C546.39,784.261 538.159,782.583 535.261,780.653C532.362,778.724 528.958,776.331 528.958,776.331C528.958,776.331 527.03,778.01 525.58,776.331C524.131,774.652 519.53,771.32 518.799,768.626C518.068,765.933 523.16,762.362 526.299,758.052C529.437,753.743 532.841,749.633 535.261,749.871C537.681,750.109 548.079,760.646 553.449,768.877C558.818,777.108 560.948,779.213 561.188,782.107C561.427,785.001 566.229,799.646 566.229,799.646L567.49,824.427L550.26,823.951Z" fill="#FFDEDE" stroke="#263238" stroke-width="1" stroke-miterlimit="3.999327" stroke-linecap="round" stroke-linejoin="round"/>
<path d="M528.259,777.045C528.653,777.432 529.286,777.426 529.673,777.031C530.06,776.637 530.054,776.004 529.659,775.617L528.259,777.045ZM525.194,770.255C525.194,769.703 524.746,769.255 524.194,769.255C523.642,769.255 523.194,769.703 523.194,770.255L525.194,770.255ZM528.959,776.331C529.659,775.617 529.659,775.617 529.659,775.617C529.659,775.617 529.659,775.617 529.659,775.617C529.659,775.617 529.659,775.617 529.659,775.617C529.658,775.616 529.658,775.616 529.657,775.615C529.655,775.613 529.652,775.61 529.647,775.605C529.639,775.597 529.626,775.584 529.609,775.568C529.576,775.534 529.526,775.485 529.462,775.421C529.335,775.293 529.152,775.109 528.932,774.882C528.492,774.429 527.907,773.813 527.325,773.156C526.739,772.495 526.172,771.812 525.756,771.221C525.548,770.925 525.393,770.673 525.294,770.474C525.181,770.246 525.194,770.191 525.194,770.255L523.194,770.255C523.194,770.669 523.356,771.067 523.503,771.364C523.665,771.689 523.882,772.032 524.12,772.371C524.599,773.052 525.223,773.8 525.828,774.483C526.437,775.169 527.044,775.809 527.497,776.276C527.724,776.509 527.914,776.701 528.047,776.834C528.113,776.901 528.166,776.953 528.202,776.989C528.22,777.007 528.234,777.021 528.244,777.03C528.248,777.035 528.252,777.038 528.255,777.041C528.256,777.042 528.257,777.043 528.258,777.044C528.258,777.044 528.258,777.044 528.259,777.045C528.259,777.045 528.259,777.045 528.259,777.045C528.259,777.045 528.259,777.045 528.959,776.331Z" fill="#263238"/>
<path d="M542.029,800.987L546.63,826.482L551.671,798.093L571.271,795.938C571.271,795.938 571.094,826.244 571.094,833.936C571.094,841.628 574.485,876.758 575.456,889.06C576.426,901.363 569.884,905.347 560.935,905.648C551.986,905.949 544.714,897.718 541.815,881.118C538.916,864.518 542.294,834.212 540.844,829.163C539.395,824.114 533.282,803.43 533.282,803.43L542.029,800.987Z" fill="#4C6ED7"/>
<g opacity="0.24" style="mix-blend-mode:multiply">
<path d="M564.011,905.347C571.308,904.27 576.274,899.822 575.43,889.06C574.459,876.795 571.069,841.679 571.069,833.936C571.069,826.194 571.308,795.938 571.308,795.938L568.132,796.289C566.305,802.34 556.12,837.857 561.301,863.215C566.998,891.015 571.737,893.834 564.149,905.147L564.011,905.347Z" fill="#000000"/>
</g>
<path d="M542.029,800.987L543.013,800.809C542.963,800.532 542.799,800.289 542.56,800.139C542.322,799.99 542.031,799.948 541.76,800.024L542.029,800.987ZM546.63,826.482L545.646,826.659C545.732,827.136 546.147,827.482 546.631,827.482C547.115,827.481 547.53,827.133 547.614,826.657L546.63,826.482ZM551.671,798.093L551.562,797.099C551.121,797.147 550.764,797.481 550.687,797.918L551.671,798.093ZM571.271,795.938L572.271,795.944C572.273,795.658 572.152,795.386 571.94,795.195C571.729,795.004 571.445,794.913 571.162,794.944L571.271,795.938ZM533.282,803.43L533.013,802.467C532.755,802.539 532.537,802.711 532.407,802.945C532.277,803.18 532.247,803.456 532.323,803.713L533.282,803.43ZM541.045,801.164L545.646,826.659L547.614,826.304L543.013,800.809L541.045,801.164ZM547.614,826.657L552.656,798.268L550.687,797.918L545.645,826.307L547.614,826.657ZM551.781,799.087L571.38,796.932L571.162,794.944L551.562,797.099L551.781,799.087ZM571.271,795.938C570.271,795.932 570.271,795.932 570.271,795.932C570.271,795.933 570.271,795.933 570.271,795.933C570.271,795.934 570.271,795.936 570.271,795.938C570.271,795.941 570.271,795.947 570.271,795.954C570.271,795.969 570.271,795.99 570.27,796.019C570.27,796.077 570.27,796.162 570.269,796.274C570.268,796.498 570.266,796.827 570.263,797.249C570.259,798.093 570.252,799.307 570.243,800.788C570.227,803.749 570.205,807.778 570.183,812.047C570.139,820.584 570.094,830.087 570.094,833.936L572.094,833.936C572.094,830.093 572.139,820.597 572.183,812.057C572.205,807.789 572.227,803.76 572.243,800.799C572.252,799.318 572.259,798.104 572.263,797.261C572.266,796.839 572.268,796.51 572.269,796.286C572.27,796.174 572.27,796.088 572.27,796.031C572.271,796.002 572.271,795.98 572.271,795.966C572.271,795.958 572.271,795.953 572.271,795.949C572.271,795.947 572.271,795.946 572.271,795.945C572.271,795.945 572.271,795.944 572.271,795.944C572.271,795.944 572.271,795.944 571.271,795.938ZM570.094,833.936C570.094,837.837 570.948,848.598 571.915,859.855C572.885,871.149 573.974,882.991 574.459,889.139L576.452,888.982C575.967,882.827 574.875,870.953 573.907,859.684C572.936,848.377 572.094,837.728 572.094,833.936L570.094,833.936ZM574.459,889.139C574.93,895.113 573.565,898.846 571.217,901.14C568.841,903.459 565.265,904.502 560.902,904.648L560.969,906.647C565.555,906.493 569.724,905.393 572.614,902.57C575.531,899.721 576.952,895.311 576.452,888.982L574.459,889.139ZM560.902,904.648C556.788,904.787 553.018,902.982 549.885,899.093C546.73,895.177 544.233,889.15 542.8,880.946L540.83,881.29C542.296,889.685 544.885,896.074 548.328,900.348C551.793,904.649 556.134,906.81 560.969,906.647L560.902,904.648ZM542.8,880.946C541.371,872.762 541.484,861.137 541.786,850.838C541.935,845.715 542.132,840.911 542.2,837.094C542.233,835.183 542.236,833.498 542.182,832.125C542.13,830.78 542.023,829.646 541.805,828.887L539.883,829.439C540.028,829.942 540.132,830.859 540.184,832.203C540.235,833.519 540.234,835.16 540.2,837.059C540.132,840.863 539.937,845.619 539.786,850.779C539.486,861.045 539.36,872.873 540.83,881.29L542.8,880.946ZM541.805,828.887C541.08,826.358 539.188,819.921 537.479,814.12C536.624,811.219 535.814,808.476 535.219,806.457C534.921,805.448 534.676,804.621 534.506,804.045C534.421,803.757 534.355,803.533 534.31,803.38C534.287,803.304 534.27,803.245 534.258,803.206C534.253,803.186 534.248,803.171 534.245,803.161C534.244,803.156 534.243,803.153 534.242,803.15C534.241,803.149 534.241,803.148 534.241,803.147C534.241,803.147 534.241,803.147 534.241,803.147C534.241,803.146 534.241,803.146 533.282,803.43C532.323,803.713 532.323,803.713 532.323,803.713C532.323,803.714 532.323,803.714 532.323,803.714C532.323,803.715 532.323,803.716 532.324,803.717C532.325,803.719 532.326,803.723 532.327,803.728C532.33,803.738 532.335,803.753 532.34,803.773C532.352,803.812 532.369,803.87 532.392,803.947C532.437,804.099 532.503,804.324 532.588,804.612C532.758,805.187 533.003,806.015 533.3,807.024C533.896,809.042 534.706,811.785 535.56,814.686C537.27,820.489 539.16,826.918 539.883,829.439L541.805,828.887ZM533.551,804.393L542.298,801.95L541.76,800.024L533.013,802.467L533.551,804.393Z" fill="#263238"/>
<path d="M388.169,900.336C388.169,900.336 387.589,904.207 391.118,905.084C394.648,905.961 403.13,903.769 403.836,901.965C404.046,901.47 404.105,900.925 404.007,900.398C403.908,899.87 403.656,899.382 403.281,898.996L395.542,898.996C395.542,898.996 389.707,897.204 388.169,900.336Z" fill="#FFDEDE" stroke="#263238" stroke-width="1" stroke-miterlimit="3.999327" stroke-linecap="round" stroke-linejoin="round"/>
<path d="M353.52,858.592L385.598,880.742L387.993,877.572L355.764,855.234L353.52,858.592Z" fill="#263238" stroke="#263238" stroke-width="1" stroke-miterlimit="3.999327" stroke-linecap="round" stroke-linejoin="round"/>
<path d="M360.969,863.728L363.465,860.571L355.764,855.234L353.52,858.592L360.969,863.728Z" fill="#FFDEDE" stroke="#263238" stroke-width="1" stroke-miterlimit="3.999327" stroke-linecap="round" stroke-linejoin="round"/>
<path d="M393.198,899.998C398.22,899.763 402.998,897.78 406.697,894.398C412.445,888.835 412.836,885.114 405.071,877.121C397.307,869.128 380.329,878.487 379.787,882.02C379.245,885.553 393.198,899.998 393.198,899.998Z" fill="#FFDEDE" stroke="#263238" stroke-width="1" stroke-miterlimit="3.999327" stroke-linecap="round" stroke-linejoin="round"/>
<path d="M410.378,885.553C410.378,885.553 408.185,890.1 406.105,891.817C404.025,893.533 400.723,893.997 398.77,891.228C396.816,888.459 394.812,879.865 393.11,879.689C391.409,879.514 382.926,876.745 380.506,873.425C378.086,870.105 378.212,867.537 383.544,869.116C388.875,870.694 403.143,872.536 403.143,872.536C403.143,872.536 406.521,874.553 408.865,881.631Z" fill="#FFDEDE" stroke="#263238" stroke-width="1" stroke-miterlimit="3.999327" stroke-linecap="round" stroke-linejoin="round"/>
<path d="M382.939,896.202C383.695,897.129 386.178,901.326 387.35,901.614C388.522,901.902 395.719,897.354 398.492,893.884C401.265,890.414 396.098,885.603 394.623,884.926C393.148,884.25 382.939,896.202 382.939,896.202Z" fill="#FFDEDE" stroke="#263238" stroke-width="1" stroke-miterlimit="3.999327" stroke-linecap="round" stroke-linejoin="round"/>
<path d="M379.271,883.673C379.271,883.673 372.968,887.432 374.468,890.013C375.968,892.594 381.01,896.515 382.623,895.826C384.237,895.137 395.102,890.113 395.051,887.369C395.001,884.626 394.824,881.356 389.266,881.807C385.879,882.089 382.53,882.714 379.271,883.673L379.271,883.673Z" fill="#FFDEDE" stroke="#263238" stroke-width="1" stroke-miterlimit="3.999327" stroke-linecap="round" stroke-linejoin="round"/>
<path d="M372.968,873.262C372.968,873.262 369.906,879.451 372.716,882.132C375.527,884.814 392.883,884.751 393.765,881.594C394.648,878.437 388.144,877.76 383.367,875.718C378.59,873.676 373.636,871.797 372.968,873.262Z" fill="#FFDEDE" stroke="#263238" stroke-width="1" stroke-miterlimit="3.999327" stroke-linecap="round" stroke-linejoin="round"/>
<path d="M440.275,905.498C440.275,905.498 439.796,897.317 432.536,894.435C425.276,891.554 421.394,892.744 405.185,897.079C394.97,899.734 384.509,901.346 373.964,901.89L373.964,905.498L440.275,905.498Z" fill="#BCBBBB" stroke="#263238" stroke-width="1" stroke-miterlimit="3.999327" stroke-linecap="round" stroke-linejoin="round"/>
<path d="M440.01,905.498C440.01,905.498 440.489,897.317 447.749,894.435C455.009,891.554 458.879,892.744 475.1,897.079C485.311,899.734 495.768,901.346 506.308,901.89L506.308,905.498L440.01,905.498Z" fill="#BCBBBB" stroke="#263238" stroke-width="1" stroke-miterlimit="3.999327" stroke-linecap="round" stroke-linejoin="round"/>
<path d="M509.006,904.057L372.275,904.057L372.275,906.7L509.006,906.7L509.006,904.057Z" fill="#263238" stroke="#263238" stroke-width="1" stroke-miterlimit="3.999327" stroke-linecap="round" stroke-linejoin="round"/>
<line x1="292.541" y1="905.7" x2="732" y2="905.7" fill="#FFDEDE" stroke="#263238" stroke-width="1" stroke-miterlimit="3.999327" stroke-linecap="round" stroke-linejoin="round"/>
<path d="M726.958,834.062L633.788,834.062L602.088,906.939L695.259,906.939L726.958,834.062Z" fill="#FFDEDE" stroke="#263238" stroke-width="1" stroke-miterlimit="3.999327" stroke-linecap="round" stroke-linejoin="round"/>
<path d="M730.589,834.062L637.418,834.062L605.719,906.939L698.889,906.939L730.589,834.062Z" fill="#263238" stroke="#263238" stroke-width="1" stroke-miterlimit="3.999327" stroke-linecap="round" stroke-linejoin="round"/>
<path d="M675.609,878.411C673.214,882.17 668.727,883.648 665.588,881.669C662.45,879.689 661.807,875.041 664.227,871.27C666.647,867.499 671.109,866.046 674.31,868.013C677.512,869.98 678.003,874.653 675.609,878.411Z" fill="#FFFFFF" stroke="#4C6ED7" stroke-width="1" stroke-miterlimit="3.999327" stroke-linecap="round" stroke-linejoin="round"/>
<path d="M603.298,904.057L535.298,904.057L535.298,906.7L603.298,906.7L603.298,904.057Z" fill="#FFDEDE" stroke="#263238" stroke-width="1" stroke-miterlimit="3.999327" stroke-linecap="round" stroke-linejoin="round"/>
<defs>
<linearGradient id="pf_0_105_1232" x1="360" y1="362.506" x2="715" y2="1111.987" gradientUnits="userSpaceOnUse">
<stop stop-color="#4C6ED7"/>
<stop offset="0.729" stop-color="#1E42B1"/>
<stop offset="1" stop-color="#0F35A9"/>
</linearGradient>
</defs>
</svg>
