<svg width="40" height="40" viewBox="0 0 40 40" fill="none" xmlns="http://www.w3.org/2000/svg" xmlns:xlink="http://www.w3.org/1999/xlink">
<path d="M20,0C16.044,0 12.178,1.173 8.889,3.371C5.6,5.568 3.036,8.692 1.522,12.346C0.009,16.001 -0.387,20.022 0.384,23.902C1.156,27.781 3.061,31.345 5.858,34.142C8.655,36.939 12.219,38.844 16.098,39.616C19.978,40.387 23.999,39.991 27.654,38.478C31.308,36.964 34.432,34.4 36.629,31.111C38.827,27.822 40,23.956 40,20C40,17.374 39.483,14.773 38.478,12.346C37.473,9.92 35.999,7.715 34.142,5.858C32.285,4.001 30.08,2.528 27.654,1.522C25.227,0.517 22.626,0 20,0L20,0ZM20,36C16.835,36 13.742,35.062 11.111,33.304C8.48,31.545 6.429,29.047 5.218,26.123C4.007,23.199 3.69,19.982 4.307,16.879C4.925,13.775 6.449,10.924 8.686,8.686C10.924,6.449 13.775,4.925 16.879,4.307C19.982,3.69 23.199,4.007 26.123,5.218C29.047,6.429 31.545,8.48 33.304,11.111C35.062,13.742 36,16.836 36,20C36,24.243 34.314,28.313 31.314,31.314C28.313,34.314 24.243,36 20,36L20,36Z" fill="#4C6ED7"/>
<path d="M20,10C18.022,10 16.089,10.586 14.444,11.685C12.8,12.784 11.518,14.346 10.761,16.173C10.004,18 9.806,20.011 10.192,21.951C10.578,23.891 11.53,25.673 12.929,27.071C14.327,28.47 16.109,29.422 18.049,29.808C19.989,30.194 22,29.996 23.827,29.239C25.654,28.482 27.216,27.2 28.315,25.556C29.414,23.911 30,21.978 30,20C30,17.348 28.946,14.804 27.071,12.929C25.196,11.054 22.652,10 20,10L20,10Z" fill="#4C6ED7"/>
</svg>
