<svg width="24" height="40" viewBox="0 0 24 40" fill="none" xmlns="http://www.w3.org/2000/svg" xmlns:xlink="http://www.w3.org/1999/xlink">
<path d="M4,7.636C4,5.611 4.843,3.669 6.343,2.237C7.843,0.805 9.878,0 12,0C14.122,0 16.157,0.805 17.657,2.237C19.157,3.669 20,5.611 20,7.636L20,20.364C20,22.389 19.157,24.331 17.657,25.763C16.157,27.195 14.122,28 12,28C9.878,28 7.843,27.195 6.343,25.763C4.843,24.331 4,22.389 4,20.364L4,7.636Z" fill="#4C6ED7"/>
<path d="M1.2,16C1.518,16 1.823,16.133 2.049,16.37C2.274,16.607 2.4,16.928 2.4,17.263L2.4,19.789C2.4,22.47 3.411,25.04 5.212,26.935C7.012,28.83 9.454,29.895 12,29.895C14.546,29.895 16.988,28.83 18.788,26.935C20.589,25.04 21.6,22.47 21.6,19.789L21.6,17.263C21.6,16.928 21.726,16.607 21.951,16.37C22.177,16.133 22.482,16 22.8,16C23.118,16 23.423,16.133 23.649,16.37C23.874,16.607 24,16.928 24,17.263L24,19.789C24,22.921 22.895,25.941 20.899,28.263C18.904,30.585 16.16,32.045 13.2,32.358L13.2,37.474L20.4,37.474C20.718,37.474 21.023,37.607 21.249,37.844C21.474,38.081 21.6,38.402 21.6,38.737C21.6,39.072 21.474,39.393 21.249,39.63C21.023,39.867 20.718,40 20.4,40L3.6,40C3.282,40 2.977,39.867 2.751,39.63C2.526,39.393 2.4,39.072 2.4,38.737C2.4,38.402 2.526,38.081 2.751,37.844C2.977,37.607 3.282,37.474 3.6,37.474L10.8,37.474L10.8,32.358C7.84,32.045 5.096,30.585 3.101,28.263C1.105,25.941 0,22.921 0,19.789L0,17.263C0,16.928 0.126,16.607 0.351,16.37C0.577,16.133 0.882,16 1.2,16Z" clip-rule="evenodd" fill-rule="evenodd" fill="#4C6ED7"/>
</svg>
