<svg width="40" height="40" viewBox="0 0 40 40" fill="none" xmlns="http://www.w3.org/2000/svg" xmlns:xlink="http://www.w3.org/1999/xlink">
<path d="M20,37.5C24.641,37.5 29.092,35.656 32.374,32.374C35.656,29.092 37.5,24.641 37.5,20C37.5,15.359 35.656,10.908 32.374,7.626C29.092,4.344 24.641,2.5 20,2.5C15.359,2.5 10.908,4.344 7.626,7.626C4.344,10.908 2.5,15.359 2.5,20C2.5,24.641 4.344,29.092 7.626,32.374C10.908,35.656 15.359,37.5 20,37.5L20,37.5ZM20,40C25.304,40 30.391,37.893 34.142,34.142C37.893,30.391 40,25.304 40,20C40,14.696 37.893,9.609 34.142,5.858C30.391,2.107 25.304,0 20,0C14.696,0 9.609,2.107 5.858,5.858C2.107,9.609 0,14.696 0,20C0,25.304 2.107,30.391 5.858,34.142C9.609,37.893 14.696,40 20,40L20,40Z" clip-rule="evenodd" fill-rule="evenodd" fill="#4C6ED7"/>
<path d="M8.855,24.701C9.199,24.502 9.609,24.448 9.993,24.551C10.377,24.654 10.705,24.905 10.904,25.25C11.825,26.847 13.151,28.173 14.748,29.095C16.345,30.016 18.156,30.501 20,30.5C21.844,30.501 23.655,30.016 25.252,29.095C26.849,28.173 28.175,26.847 29.096,25.25C29.194,25.078 29.325,24.927 29.481,24.806C29.637,24.685 29.816,24.595 30.007,24.544C30.198,24.492 30.397,24.478 30.593,24.504C30.789,24.529 30.979,24.593 31.15,24.692C31.321,24.791 31.471,24.923 31.591,25.08C31.712,25.237 31.8,25.417 31.85,25.608C31.901,25.799 31.913,25.998 31.886,26.194C31.859,26.39 31.794,26.579 31.694,26.75C30.509,28.803 28.805,30.508 26.752,31.693C24.699,32.878 22.37,33.501 20,33.5C17.63,33.501 15.301,32.878 13.248,31.693C11.195,30.508 9.491,28.803 8.306,26.75C8.107,26.405 8.053,25.996 8.156,25.612C8.259,25.227 8.51,24.9 8.855,24.701Z" clip-rule="evenodd" fill-rule="evenodd" fill="#4C6ED7"/>
<path d="M17,15.5C17,17.984 15.656,20 14,20C12.344,20 11,17.984 11,15.5C11,13.016 12.344,11 14,11C15.656,11 17,13.016 17,15.5ZM29,15.5C29,17.984 27.656,20 26,20C24.344,20 23,17.984 23,15.5C23,13.016 24.344,11 26,11C27.656,11 29,13.016 29,15.5Z" fill="#4C6ED7"/>
</svg>
