<svg width="1032" height="1296" viewBox="0 0 1032 1296" fill="none" xmlns="http://www.w3.org/2000/svg" xmlns:xlink="http://www.w3.org/1999/xlink">
<mask id="mask_0_105_1856" style="mask-type:alpha" maskUnits="userSpaceOnUse" x="128" y="274" width="375" height="435">
<path d="M128,274L878,274L878,769C878,976.107 710.107,1144 503,1144L503,1144C295.893,1144 128,976.107 128,769Z" fill="url(#pf_0_105_1856)"/>
</mask>
<g mask="url(#mask_0_105_1856)">
<path d="M128,274L878,274L878,769C878,976.107 710.107,1144 503,1144L503,1144C295.893,1144 128,976.107 128,769Z" fill="url(#pf_0_105_1857)"/>
<path d="M312.233,1112.933C312.233,1199.137 228.109,1247.503 168.804,1295.025C161.56,1285.255 152.545,1276.923 147.982,1266.655C143.86,1257.383 135.107,1245.289 128.796,1237.175C121.903,1228.313 122.609,1219.569 119.437,1208.863C112.512,1185.493 114.289,1156.291 114.289,1131.885C114.289,1107.113 105.846,1091.481 90.658,1070.349C56.738,1023.157 25.921,979.043 4.788,924.348C-2.199,906.264 0.577,885.636 0.577,866.556C0.577,836.129 -0.578,805.469 0.577,775.071C2.211,732.043 44.013,725.914 76.151,739.975C84.142,743.471 90.233,747.433 97.443,751.674C110.184,759.168 125.096,761.135 137.453,769.69C161.288,786.191 199.2,795.978 228.001,797.065C271.785,798.717 301.203,824.832 339.375,838.713C451.751,879.577 363.769,956.601 326.973,1009.749C310.063,1034.177 312.233,1084.561 312.233,1112.933Z" transform="rotate(-30 197.307 1022.047)" fill="#3E61CC"/>
<path d="M948.185,379.657C948.185,465.861 864.061,514.227 804.757,561.749C797.513,551.979 788.498,543.647 783.934,533.379C779.813,524.107 771.059,512.013 764.748,503.899C757.855,495.037 758.561,486.293 755.389,475.587C748.465,452.217 750.242,423.015 750.242,398.609C750.242,373.837 741.799,358.205 726.61,337.073C692.69,289.881 661.873,245.767 640.741,191.073C633.754,172.989 636.529,152.361 636.529,133.28C636.529,102.853 635.375,72.193 636.529,41.796C638.163,-1.233 679.965,-7.361 712.104,6.699C720.094,10.195 726.186,14.157 733.396,18.398C746.137,25.893 761.049,27.86 773.405,36.414C797.24,52.915 835.153,62.703 863.953,63.789C907.737,65.442 937.155,91.556 975.327,105.437C1087.703,146.301 999.721,223.325 962.925,276.473C946.015,300.901 948.185,351.285 948.185,379.657Z" transform="rotate(300 833.26 288.771)" fill="#3E61CC"/>
</g>
<path d="M495.914,1000C594.797,1000 674.957,984.286 674.957,964.902C674.957,945.518 594.797,929.804 495.914,929.804C397.03,929.804 316.869,945.518 316.869,964.902C316.869,984.286 397.03,1000 495.914,1000Z" fill="#4C6ED7"/>
<g opacity="0.5">
<path d="M495.914,1000C594.797,1000 674.957,984.286 674.957,964.902C674.957,945.518 594.797,929.804 495.914,929.804C397.03,929.804 316.869,945.518 316.869,964.902C316.869,984.286 397.03,1000 495.914,1000Z" fill="#153AAC"/>
</g>
<path d="M685.988,498L556.893,498C552.483,498 548.908,501.504 548.908,505.827L548.908,645.323C548.908,649.645 552.483,653.15 556.893,653.15L685.988,653.15C690.398,653.15 693.973,649.645 693.973,645.323L693.973,505.827C693.973,501.504 690.398,498 685.988,498Z" fill="#FFFFFF"/>
<path d="M556.893,498L685.975,498C688.083,498 690.103,498.821 691.593,500.281C693.083,501.742 693.921,503.723 693.921,505.788L693.921,513.914L548.908,513.914L548.908,505.827C548.903,504.798 549.105,503.778 549.505,502.826C549.904,501.874 550.492,501.009 551.235,500.281C551.977,499.553 552.86,498.977 553.831,498.585C554.802,498.194 555.843,497.995 556.893,498L556.893,498Z" fill="#263238"/>
<path d="M595.85,534.071C596.138,533.194 596.29,532.28 596.3,531.359C596.3,527.997 592.817,527.802 589.401,527.802L588.54,527.802L588.54,527.01L603.451,527.01L603.451,527.802C599.571,527.802 598.154,530.229 596.949,533.825L589.004,557.072C588.408,558.798 587.905,560.083 586.038,560.083L585.879,560.083L578.887,537.874L572.385,557.124C571.776,558.85 571.273,560.135 569.406,560.135L569.26,560.135L559.09,527.802L555.515,527.802L555.515,527.01L568.598,527.01L568.598,527.802L564.877,527.802L572.425,553.269L572.729,553.269L578.423,536.356L575.775,527.867L572.2,527.867L572.2,527.01L585.296,527.01L585.296,527.802L581.575,527.802L589.123,553.269L589.414,553.269L595.85,534.071Z" fill="#4C6ED7"/>
<path d="M684.226,519.651L624.161,519.651L624.161,572.868L684.226,572.868L684.226,519.651Z" fill="#4C6ED7"/>
<path d="M684.227,541.898C682.212,542.011 680.21,542.284 678.241,542.716C669.117,544.663 666.734,557.5 656.418,557.5C647.282,557.5 646.5,545.442 633.404,543.884C630.217,543.392 626.955,543.959 624.135,545.494L624.135,572.869L684.227,572.869L684.227,541.898Z" fill="#263238"/>
<path d="M644.117,531.826C644.12,533.136 643.726,534.418 642.984,535.508C642.243,536.599 641.189,537.45 639.954,537.952C638.72,538.455 637.361,538.587 636.049,538.332C634.738,538.077 633.534,537.446 632.588,536.52C631.643,535.593 631,534.412 630.739,533.127C630.479,531.842 630.614,530.51 631.127,529.3C631.64,528.089 632.507,527.056 633.62,526.329C634.733,525.603 636.04,525.217 637.377,525.219C639.165,525.219 640.879,525.915 642.143,527.154C643.407,528.393 644.117,530.074 644.117,531.826L644.117,531.826Z" fill="#FCD9D9"/>
<path d="M686.968,502.66L553.264,502.66L553.264,507.709L686.968,507.709L686.968,502.66Z" fill="#FCD9D9"/>
<path d="M678.625,684.107L620.745,684.107C618.469,684.107 616.286,684.993 614.677,686.57C613.068,688.148 612.164,690.287 612.164,692.518L612.164,722.865C612.164,725.095 613.068,727.235 614.677,728.812C616.286,730.39 618.469,731.276 620.745,731.276L622.519,731.276C620.718,735.17 617.222,741.141 611.7,744.684C611.7,744.684 623.446,743.879 635.682,731.276L678.599,731.276C680.875,731.276 683.057,730.39 684.666,728.812C686.275,727.235 687.18,725.095 687.18,722.865L687.18,692.518C687.18,690.291 686.279,688.156 684.676,686.579C683.072,685.003 680.896,684.114 678.625,684.107L678.625,684.107Z" fill="#263238"/>
<path d="M639.734,706.614C639.737,705.755 639.479,704.915 638.994,704.201C638.509,703.486 637.819,702.928 637.01,702.598C636.201,702.268 635.311,702.181 634.452,702.348C633.592,702.515 632.803,702.928 632.184,703.535C631.565,704.143 631.143,704.916 630.973,705.758C630.803,706.601 630.891,707.473 631.228,708.266C631.564,709.059 632.133,709.736 632.862,710.211C633.592,710.686 634.449,710.939 635.324,710.936C636.493,710.933 637.612,710.476 638.439,709.667C639.265,708.857 639.731,707.759 639.734,706.614L639.734,706.614Z" fill="#4C6ED7"/>
<path d="M654.737,706.614C654.737,705.759 654.478,704.923 653.994,704.213C653.509,703.502 652.82,702.948 652.015,702.621C651.209,702.293 650.322,702.208 649.467,702.375C648.612,702.541 647.826,702.953 647.209,703.558C646.593,704.162 646.173,704.932 646.002,705.771C645.832,706.609 645.92,707.478 646.253,708.268C646.587,709.058 647.152,709.733 647.877,710.208C648.603,710.683 649.455,710.936 650.327,710.936C651.496,710.933 652.615,710.476 653.441,709.667C654.268,708.857 654.733,707.759 654.737,706.614L654.737,706.614Z" fill="#4C6ED7"/>
<path d="M669.753,706.614C669.756,705.756 669.499,704.917 669.014,704.202C668.53,703.487 667.84,702.93 667.032,702.599C666.224,702.269 665.335,702.182 664.476,702.347C663.617,702.513 662.828,702.925 662.208,703.531C661.588,704.137 661.165,704.909 660.994,705.75C660.822,706.592 660.909,707.464 661.243,708.257C661.577,709.05 662.144,709.728 662.872,710.205C663.6,710.682 664.455,710.936 665.33,710.936C666.5,710.933 667.621,710.477 668.449,709.667C669.278,708.858 669.746,707.76 669.753,706.614Z" fill="#4C6ED7"/>
<path d="M360.329,516.406L455.671,516.406C457.94,516.406 460.116,517.289 461.72,518.862C463.324,520.434 464.225,522.567 464.225,524.791L464.225,589.574L351.814,589.574L351.814,524.791C351.814,522.574 352.71,520.447 354.306,518.876C355.902,517.304 358.067,516.416 360.329,516.406L360.329,516.406Z" fill="#4C6ED7"/>
<path d="M464.173,579.125L351.815,579.125L351.815,589.535L464.173,589.535L464.173,579.125Z" fill="#263238"/>
<path d="M459.035,582.682L356.966,582.682L356.966,585.978L459.035,585.978L459.035,582.682Z" fill="#FFFFFF"/>
<path d="M408,564.821C416.571,564.821 423.519,558.01 423.519,549.609C423.519,541.207 416.571,534.396 408,534.396C399.429,534.396 392.48,541.207 392.48,549.609C392.48,558.01 399.429,564.821 408,564.821Z" fill="#263238"/>
<path d="M400.995,540.146L417.746,549.622L400.995,559.097L400.995,540.146Z" fill="#FFFFFF"/>
<path d="M415.171,616.684L308.534,616.684C306.472,616.684 304.8,618.322 304.8,620.344L304.8,660.179C304.8,662.201 306.472,663.84 308.534,663.84L415.171,663.84C417.234,663.84 418.906,662.201 418.906,660.179L418.906,620.344C418.906,618.322 417.234,616.684 415.171,616.684Z" fill="#263238"/>
<path d="M318.789,622.608L319.345,623.516C316.829,624.892 314.485,627.307 314.485,630.136C314.453,630.622 314.52,631.11 314.683,631.57C314.845,632.03 315.1,632.454 315.431,632.817C315.763,633.18 316.165,633.474 316.615,633.682C317.064,633.89 317.551,634.009 318.047,634.03C318.418,634.03 318.67,633.848 318.67,633.485C318.67,633.122 318.484,633.005 318.114,632.94C317.614,632.807 317.178,632.504 316.885,632.086C316.591,631.668 316.459,631.161 316.511,630.655C316.521,630.252 316.614,629.855 316.785,629.489C316.956,629.122 317.202,628.794 317.506,628.523C317.811,628.252 318.169,628.045 318.558,627.914C318.947,627.783 319.359,627.731 319.769,627.761C320.215,627.762 320.656,627.852 321.067,628.023C321.477,628.195 321.848,628.445 322.158,628.76C322.468,629.075 322.71,629.447 322.871,629.855C323.031,630.263 323.107,630.699 323.093,631.136C323.086,631.685 322.967,632.227 322.742,632.731C322.517,633.234 322.19,633.687 321.782,634.064C321.375,634.441 320.893,634.733 320.368,634.924C319.842,635.114 319.283,635.199 318.723,635.172C318.027,635.217 317.329,635.117 316.675,634.88C316.021,634.643 315.425,634.274 314.925,633.797C314.426,633.319 314.034,632.745 313.776,632.11C313.518,631.474 313.399,630.793 313.426,630.11C313.386,626.826 315.968,624.178 318.789,622.608ZM330.164,622.608L330.72,623.516C328.191,624.892 325.86,627.307 325.86,630.136C325.826,630.623 325.892,631.111 326.054,631.572C326.215,632.033 326.47,632.458 326.802,632.821C327.134,633.184 327.537,633.478 327.987,633.686C328.437,633.893 328.925,634.01 329.422,634.03C329.793,634.03 330.045,633.848 330.045,633.485C330.045,633.122 329.859,633.005 329.488,632.94C328.988,632.807 328.553,632.504 328.259,632.086C327.966,631.668 327.834,631.161 327.886,630.655C327.894,630.252 327.986,629.854 328.156,629.486C328.327,629.119 328.572,628.79 328.877,628.518C329.182,628.247 329.541,628.04 329.93,627.91C330.32,627.78 330.733,627.729 331.144,627.761C331.59,627.762 332.031,627.852 332.442,628.023C332.852,628.195 333.223,628.445 333.533,628.76C333.843,629.075 334.085,629.447 334.246,629.855C334.406,630.263 334.482,630.699 334.468,631.136C334.459,631.684 334.339,632.226 334.113,632.728C333.887,633.231 333.561,633.683 333.153,634.06C332.746,634.436 332.265,634.729 331.741,634.92C331.216,635.111 330.657,635.197 330.098,635.172C329.402,635.215 328.705,635.113 328.052,634.876C327.399,634.638 326.804,634.269 326.305,633.792C325.806,633.315 325.414,632.741 325.155,632.107C324.896,631.473 324.775,630.793 324.801,630.11C324.748,626.826 327.33,624.178 330.164,622.608Z" fill="#4C6ED7"/>
<path d="M390.536,736.782C404.11,736.782 415.114,725.985 415.114,712.665C415.114,699.346 404.11,688.549 390.536,688.549C376.962,688.549 365.958,699.346 365.958,712.665C365.958,725.985 376.962,736.782 390.536,736.782Z" transform="rotate(-18.179 390.536 712.665)" fill="#263238"/>
<path d="M390.542,733.265C401.875,733.265 411.062,724.055 411.062,712.693C411.062,701.331 401.875,692.121 390.542,692.121C379.21,692.121 370.023,701.331 370.023,712.693C370.023,724.055 379.21,733.265 390.542,733.265Z" transform="rotate(-96.283 390.542 712.693)" fill="#F8F4F4"/>
<path d="M544.393,712.714C544.393,712.714 558.495,742.218 558.495,743.775C558.495,745.333 545.982,752.005 543.598,753.407C541.749,754.439 539.844,755.371 537.891,756.197L539.321,769.865C539.321,769.865 560.866,765.05 569.897,760.234C578.928,755.418 578.61,749.98 576.518,741.906C574.425,733.833 560.508,702.629 560.508,702.629L544.393,712.714Z" fill="#FCD9D9"/>
<g opacity="0.5" style="mix-blend-mode:multiply">
<path d="M569.857,760.234C578.888,755.418 578.57,749.98 576.478,741.906C574.386,733.833 560.468,702.629 560.468,702.629L558.217,704.031L557.502,705.329C557.502,705.329 570.492,736.585 571.274,746.994C571.803,753.991 557.436,762.713 547.941,767.698C554.986,765.867 564.573,763.051 569.857,760.234Z" fill="#4C6ED7"/>
</g>
<path d="M442.641,706.199C442.641,706.199 432.352,743.153 432.048,749.681C431.743,756.21 452.48,769.086 453.235,769.865C453.989,770.644 452.056,747.41 452.056,747.41L459.088,713.662L442.641,706.199Z" fill="#FCD9D9"/>
<g opacity="0.5" style="mix-blend-mode:multiply">
<path d="M447.355,709.223L447.13,708.223L442.641,706.199C442.641,706.199 432.352,743.153 432.048,749.681C431.743,756.21 452.48,769.086 453.235,769.865C453.539,770.177 453.42,766.698 453.168,762.402C446.998,757.275 438.139,750.058 437.106,747.021Z" fill="#4C6ED7"/>
</g>
<path d="M490.961,669.076C490.961,669.076 486.988,671.88 479.242,672.191C471.495,672.503 471.125,666.999 461.498,666.999C449.832,666.999 435.199,703.174 435.199,703.174C435.199,703.174 442.482,710.171 449.62,713.117C453.568,714.812 457.719,716.012 461.974,716.686L463.087,740.453L541.665,740.453L542.605,716.686L567.169,701.072C567.169,701.072 555.118,679.953 549.265,672.035C543.412,664.118 533.574,667.064 530.568,669.076C527.562,671.088 518.65,671.568 515.366,671.101C511.082,670.171 506.848,669.032 502.68,667.687C502.68,667.687 497.622,663.559 490.961,669.076Z" fill="#4C6ED7"/>
<path d="M475.283,643.453C475.283,643.453 472.264,638.339 469.893,640.974C467.523,643.609 471.8,649.671 474.17,651.683C476.541,653.695 478.289,652.462 478.143,650.294C477.997,648.126 475.283,643.453 475.283,643.453Z" fill="#4C6ED7"/>
<g opacity="0.5">
<path d="M475.283,643.453C475.283,643.453 472.264,638.339 469.893,640.974C467.523,643.609 471.8,649.671 474.17,651.683C476.541,653.695 478.289,652.462 478.143,650.294C477.997,648.126 475.283,643.453 475.283,643.453Z" fill="#FCD9D9"/>
</g>
<path d="M523.205,643.453C523.205,643.453 526.211,638.339 528.595,640.974C530.978,643.609 526.688,649.671 524.318,651.683C521.947,653.695 520.186,652.462 520.345,650.294C520.504,648.126 523.205,643.453 523.205,643.453Z" fill="#4C6ED7"/>
<g opacity="0.5">
<path d="M523.205,643.453C523.205,643.453 526.211,638.339 528.595,640.974C530.978,643.609 526.688,649.671 524.318,651.683C521.947,653.695 520.186,652.462 520.345,650.294C520.504,648.126 523.205,643.453 523.205,643.453Z" fill="#FCD9D9"/>
</g>
<path d="M489.531,667.999C491.027,674.626 492.933,681.159 495.238,687.559C498.099,694.543 503.475,694.543 505.699,690.039C507.924,685.535 509.341,668.751 509.341,668.751C509.341,668.751 494.444,670.789 489.531,667.999Z" fill="#FCD9D9"/>
<path d="M475.601,645.167C475.601,645.167 479.719,659.445 487.518,667.843C495.318,676.241 498.112,678.227 502.257,677.617C506.401,677.007 510.811,671.724 516.982,660.743C523.153,649.762 523.603,641.338 524.119,640.559C524.636,639.78 522.795,624.256 513.976,617.572C505.157,610.887 495.278,607.953 486.724,615.248C478.17,622.543 472.74,634.445 475.601,645.167Z" fill="#FCD9D9"/>
<g opacity="0.5" style="mix-blend-mode:multiply">
<path d="M513.936,617.52C505.064,610.848 495.238,607.901 486.684,615.196C478.129,622.491 472.74,634.445 475.6,645.167C475.6,645.167 476.382,647.919 477.931,651.657C477.926,651.178 477.993,650.702 478.129,650.242C480.023,644.362 485.611,632.979 504.415,638.197C519.352,642.324 517.524,655.2 516.134,662.067L516.942,660.639C523.126,649.619 523.563,641.234 524.079,640.455C524.595,639.676 522.808,624.204 513.936,617.52Z" fill="#4C6ED7"/>
</g>
<path d="M388.971,780.158L388.323,937.514C388.323,938.01 388.523,938.486 388.881,938.836C389.239,939.187 389.724,939.384 390.229,939.384L390.229,939.384C390.723,939.384 391.196,939.195 391.55,938.858C391.904,938.521 392.109,938.063 392.123,937.579L396.705,780.379L388.971,780.158Z" fill="#F8F4F4"/>
<path d="M378.166,816.944L377.544,979.621C377.542,979.867 377.59,980.111 377.685,980.339C377.78,980.566 377.921,980.773 378.098,980.947C378.276,981.121 378.486,981.258 378.719,981.352C378.951,981.445 379.199,981.492 379.45,981.491L379.45,981.491C379.943,981.491 380.416,981.305 380.771,980.971C381.127,980.637 381.337,980.181 381.357,979.699L385.926,817.151L378.166,816.944Z" fill="#F8F4F4"/>
<path d="M610.907,780.158L611.555,937.514C611.557,937.759 611.51,938.002 611.415,938.229C611.321,938.455 611.182,938.662 611.006,938.835C610.83,939.009 610.62,939.147 610.39,939.241C610.159,939.335 609.912,939.384 609.662,939.384L609.662,939.384C609.167,939.384 608.692,939.196 608.336,938.859C607.981,938.523 607.772,938.064 607.755,937.579L603.187,780.379L610.907,780.158Z" fill="#F8F4F4"/>
<path d="M621.725,816.944L622.374,979.621C622.376,979.867 622.328,980.111 622.233,980.339C622.138,980.566 621.997,980.773 621.82,980.947C621.642,981.121 621.431,981.258 621.199,981.352C620.967,981.445 620.718,981.492 620.468,981.491L620.468,981.491C619.977,981.491 619.505,981.304 619.151,980.97C618.798,980.636 618.591,980.18 618.574,979.699L613.992,817.151L621.725,816.944Z" fill="#F8F4F4"/>
<path d="M453.407,823.706L453.023,968.095C452.981,968.455 453.083,968.818 453.308,969.106C453.532,969.394 453.862,969.585 454.228,969.64L454.228,969.64C454.585,969.591 454.91,969.411 455.136,969.136C455.362,968.862 455.473,968.512 455.446,968.16L458.32,823.875L453.407,823.706Z" fill="#FFFFFF"/>
<path d="M546.644,819.059L547.001,945.069C547.032,945.374 546.941,945.679 546.749,945.92C546.557,946.162 546.277,946.322 545.968,946.367C545.66,946.322 545.382,946.161 545.191,945.919C545.001,945.677 544.914,945.372 544.949,945.069L542.499,819.163L546.644,819.059Z" fill="#FFFFFF"/>
<path d="M451.964,819.059L452.321,945.069C452.352,945.374 452.262,945.679 452.07,945.92C451.877,946.162 451.598,946.322 451.288,946.367C450.98,946.322 450.702,946.161 450.512,945.919C450.322,945.677 450.235,945.372 450.269,945.069L447.819,819.163L451.964,819.059Z" fill="#FFFFFF"/>
<path d="M543.982,823.706L544.392,968.095C544.434,968.455 544.332,968.818 544.107,969.106C543.883,969.394 543.553,969.585 543.187,969.64C542.832,969.588 542.509,969.408 542.283,969.133C542.057,968.859 541.945,968.512 541.969,968.16L539.095,823.875L543.982,823.706Z" fill="#FFFFFF"/>
<path d="M498.046,833.818C530.59,833.818 556.973,827.908 556.973,820.617C556.973,813.326 530.59,807.416 498.046,807.416C465.502,807.416 439.119,813.326 439.119,820.617C439.119,827.908 465.502,833.818 498.046,833.818Z" fill="#FCD9D9"/>
<path d="M469.351,932.673C469.351,932.673 466.265,937.008 468.477,939.163C470.688,941.317 472.886,940.461 472.661,942.628C472.436,944.796 468.914,952.143 465.828,959.931C462.743,967.719 469.139,975.507 475.098,973.352C481.056,971.197 480.394,949.547 481.268,945.653C482.142,941.759 482.818,941.11 482.593,937.436C482.367,933.763 482.156,929.869 479.282,929.428C476.409,928.986 470.675,931.167 469.351,932.673Z" fill="#FCD9D9"/>
<path d="M478.819,967.381C474.846,965.902 468.755,966.2 465.325,966.538C466.477,971.431 470.887,974.871 475.098,973.352C476.859,972.716 478.011,970.406 478.819,967.381Z" fill="#4C6ED7"/>
<path d="M462.518,923.159C462.518,923.159 468.913,933.763 470.675,936.567C472.436,939.371 478.408,938.514 479.07,934.62C479.732,930.726 476.633,919.914 476.633,919.914L463.392,923.159L462.518,923.159Z" fill="#FCD9D9"/>
<path d="M447.289,906.285C447.289,906.285 445.515,909.101 446.402,911.048C447.289,912.995 449.712,918.616 451.262,921.432C452.811,924.249 459.869,925.975 468.026,924.677C476.183,923.379 480.831,919.693 481.056,916.448C481.281,913.203 479.732,908.881 478.62,903.689C477.507,898.497 474.647,898.717 470.675,898.717C466.702,898.717 450.6,903.26 447.289,906.285Z" fill="#4C6ED7"/>
<path d="M471.124,842.683C471.244,837.361 474.382,834.739 474.62,831.092C474.994,826.27 474.587,821.42 473.415,816.723L467.377,808.636C450.003,808.857 437.556,809.143 437.357,809.208C436.695,809.415 436.245,813.102 435.808,816.126C435.808,816.126 428.432,817.047 429.757,837.166C429.942,839.97 437.384,872.407 437.927,876.106C441.237,898.704 448.613,910.023 448.613,910.023C448.613,910.023 449.275,912.84 457.882,912.191C466.49,911.542 475.097,905.921 475.097,905.921C475.097,905.921 470.674,861.932 471.124,842.683Z" fill="#263238"/>
<path d="M434.616,812.829C434.616,812.829 425.493,814.127 419.904,820.383C414.316,826.64 419.057,830.767 429.915,829.651C440.774,828.535 453.301,817.645 453.83,817.06C454.36,816.476 442.508,809.078 434.616,812.829Z" fill="#FCD9D9"/>
<path d="M450.812,816.723C456.625,817.016 462.392,817.886 468.027,819.319C475.535,821.487 488.777,825.809 491.862,825.809C494.947,825.809 494.073,814.555 494.073,812.401C494.073,810.246 454.348,808.935 449.488,808.935C444.628,808.935 450.812,816.723 450.812,816.723Z" fill="#FCD9D9"/>
<path d="M494.073,812.401C494.073,812.401 490.537,814.127 489.213,820.617C487.889,827.107 486.127,830.573 488.776,832.299C491.424,834.025 502.905,835.323 504.666,833.597C506.427,831.871 511.287,823.213 512.174,817.593C513.061,811.972 494.073,812.401 494.073,812.401Z" fill="#4C6ED7"/>
<path d="M509.076,814.555C507.024,816.864 505.385,819.498 504.23,822.343C503.294,825.322 502.555,828.357 502.018,831.429C506.243,832.564 510.373,834.014 514.373,835.765C521.444,838.789 533.362,840.957 544.83,843.553C556.297,846.149 559.396,848.745 563.368,848.745C567.341,848.745 572.201,845.707 578.385,838.361C584.569,831.014 579.259,815.425 573.088,810.661C566.917,805.898 533.799,802.017 529.39,803.315C524.98,804.613 509.076,814.555 509.076,814.555Z" fill="#263238"/>
<path d="M426.261,829.768C425.389,825.885 423.622,822.248 421.097,819.137C420.686,819.514 420.289,819.903 419.905,820.331C414.992,825.809 418.064,829.703 426.261,829.768Z" fill="#4C6ED7"/>
<path d="M628.425,808.143L623.659,803.938L612.641,780.574C612.119,779.511 611.299,778.616 610.275,777.993C609.253,777.37 608.071,777.045 606.867,777.056L392.878,777.056C391.672,777.043 390.487,777.366 389.462,777.989C388.437,778.612 387.615,779.509 387.091,780.574L373.359,809.675L371.095,808.857L371.095,815.516L371.201,815.438C371.336,816.326 371.796,817.136 372.495,817.717C373.194,818.297 374.085,818.608 375.001,818.592L624.731,818.592C625.697,818.614 626.631,818.267 627.341,817.625C628.051,816.984 628.477,816.097 628.531,815.152L628.425,808.143Z" fill="#263238"/>
<path d="M624.731,812.504L375.001,812.504C374.382,812.529 373.768,812.398 373.215,812.126C372.662,811.854 372.188,811.448 371.839,810.947C371.489,810.447 371.275,809.867 371.217,809.263C371.159,808.659 371.258,808.05 371.505,807.494L387.091,774.486C387.612,773.419 388.433,772.521 389.459,771.898C390.484,771.274 391.671,770.952 392.877,770.969L606.867,770.969C608.071,770.954 609.255,771.278 610.279,771.901C611.301,772.524 612.121,773.421 612.641,774.486L628.227,807.494C628.473,808.05 628.573,808.659 628.515,809.263C628.457,809.867 628.243,810.447 627.893,810.947C627.543,811.448 627.069,811.854 626.517,812.126C625.963,812.398 625.349,812.529 624.731,812.504L624.731,812.504Z" fill="#FFFFFF"/>
<g opacity="0.5" style="mix-blend-mode:multiply">
<path d="M387.647,790.335C387.647,790.335 381.993,794.138 385.528,795.527C389.064,796.916 429.703,795.877 434.656,794.488C439.608,793.099 445.249,780.288 445.249,778.211C445.249,776.135 438.125,774.642 435.503,774.525C432.881,774.408 398.241,776.472 398.241,776.472L387.647,790.335Z" fill="#4C6ED7"/>
</g>
<g opacity="0.5" style="mix-blend-mode:multiply">
<path d="M589.799,796.916C597.8,796.916 604.286,794.277 604.286,791.023C604.286,787.768 597.8,785.13 589.799,785.13C581.798,785.13 575.312,787.768 575.312,791.023C575.312,794.277 581.798,796.916 589.799,796.916Z" fill="#4C6ED7"/>
</g>
<g opacity="0.5" style="mix-blend-mode:multiply">
<path d="M497.569,804.197C526.259,804.197 549.517,799.932 549.517,794.67C549.517,789.408 526.259,785.143 497.569,785.143C468.879,785.143 445.621,789.408 445.621,794.67C445.621,799.932 468.879,804.197 497.569,804.197Z" fill="#4C6ED7"/>
</g>
<path d="M579.205,767.84C579.205,767.84 578.252,764.115 575.087,765.361C571.922,766.607 572.24,774.837 572.862,779.496C573.485,784.156 577.775,781.976 577.775,781.976L577.775,779.185C577.775,779.185 576.199,780.418 575.405,778.718C574.61,777.017 574.769,768.464 575.564,768.619C576.358,768.775 577.934,771.41 577.934,771.41C577.934,771.41 578.411,771.111 579.205,767.84Z" fill="#4C6ED7"/>
<path d="M576.928,768.463L576.928,788.868C576.928,791.269 582.556,793.216 589.508,793.216C596.46,793.216 602.074,791.269 602.074,788.868L602.074,768.463L576.928,768.463Z" fill="#4C6ED7"/>
<path d="M602.074,768.464C602.074,770.54 596.446,772.215 589.508,772.215C582.569,772.215 576.928,770.54 576.928,768.464C576.928,766.387 582.556,764.712 589.508,764.712C596.46,764.712 602.074,766.4 602.074,768.464Z" fill="#FCD9D9"/>
<path d="M600.432,768.463C600.432,770.268 595.533,771.721 589.507,771.721C583.482,771.721 578.57,770.268 578.57,768.463C578.57,766.659 583.469,765.205 589.507,765.205C595.546,765.205 600.432,766.659 600.432,768.463Z" fill="#FCD9D9"/>
<path d="M581.073,770.54C586.577,772.115 592.425,772.115 597.929,770.54C592.425,768.966 586.577,768.966 581.073,770.54L581.073,770.54Z" fill="#263238"/>
<path d="M386.085,777.783L386.244,784.766L434.246,785.234L434.246,777.16L386.085,777.783Z" fill="#FFFFFF"/>
<path d="M434.246,785.234L441.224,770.488L441.224,766.14L433.928,778.562L434.246,785.234Z" fill="#FCD9D9"/>
<path d="M386.085,784.143L386.244,791.139L434.246,791.607L434.246,783.533L386.085,784.143Z" fill="#F8F4F4"/>
<path d="M434.246,791.607L441.224,776.849L441.224,772.5L433.928,784.922L434.246,791.607Z" fill="#FCD9D9"/>
<path d="M404.624,760.078C404.624,760.078 405.736,757.911 404.147,756.976C402.558,756.042 400.823,758.274 399.87,758.988C398.917,759.702 378.961,772.656 378.325,774.681C377.69,776.706 378.325,781.171 382.602,781.664C386.88,782.157 390.68,779.341 392.587,778.873C394.494,778.406 395.235,778.25 395.235,778.25L408.385,760.857L404.624,760.078Z" fill="#FFFFFF"/>
<path d="M382.602,781.677C386.88,782.144 390.68,779.354 392.587,778.886C394.494,778.419 395.235,778.263 395.235,778.263L395.712,777.627L383.357,775.161C382.685,774.541 381.822,774.158 380.903,774.074C379.985,773.989 379.063,774.207 378.285,774.694C377.69,776.693 378.325,781.197 382.602,781.677Z" fill="#FFFFFF"/>
<path d="M383.397,775.187L420.474,775.187C432.048,775.187 435.53,774.564 435.53,774.564L442.655,760.117C442.655,760.117 420.143,761.519 413.191,761.052C410.318,760.971 407.457,760.658 404.637,760.117L383.397,775.187Z" fill="#F8F4F4"/>
<path d="M383.397,775.187L384.032,777.978C384.032,777.978 414.131,778.133 422.05,778.133C429.969,778.133 435.994,778.445 435.994,778.445L435.517,774.551L383.397,775.187Z" fill="#D4D4D4"/>
<path d="M435.994,778.406L442.641,763.492L442.641,760.078L435.517,774.525L435.994,778.406Z" fill="#FCD9D9"/>
<path d="M542.936,795.851L452.162,795.851C451.961,795.853 451.762,795.816 451.575,795.741C451.389,795.667 451.22,795.557 451.077,795.419C450.934,795.28 450.821,795.115 450.743,794.933C450.666,794.751 450.626,794.556 450.626,794.358C450.626,794.161 450.666,793.966 450.743,793.784C450.821,793.602 450.934,793.437 451.077,793.298C451.22,793.16 451.389,793.05 451.575,792.976C451.762,792.901 451.961,792.864 452.162,792.866L542.936,792.866C543.136,792.864 543.335,792.901 543.521,792.976C543.706,793.05 543.875,793.16 544.017,793.299C544.158,793.438 544.27,793.603 544.346,793.785C544.422,793.967 544.46,794.162 544.459,794.358C544.46,794.555 544.422,794.75 544.346,794.932C544.27,795.114 544.158,795.279 544.017,795.418C543.875,795.557 543.706,795.667 543.521,795.741C543.335,795.815 543.136,795.853 542.936,795.851L542.936,795.851Z" fill="#FCD9D9"/>
<path d="M543.704,792.84L451.381,792.84C451.043,792.84 450.718,792.714 450.471,792.488C450.225,792.261 450.077,791.95 450.057,791.62L445.038,732.496C445.015,732.313 445.033,732.127 445.089,731.951C445.145,731.775 445.239,731.613 445.365,731.476C445.49,731.338 445.644,731.228 445.816,731.154C445.988,731.079 446.174,731.041 446.362,731.042L548.736,731.042C548.924,731.041 549.11,731.079 549.282,731.154C549.454,731.228 549.608,731.338 549.733,731.476C549.858,731.613 549.952,731.775 550.009,731.951C550.065,732.127 550.082,732.313 550.06,732.496L545.041,791.62C545.021,791.953 544.871,792.265 544.622,792.492C544.373,792.719 544.044,792.844 543.704,792.84L543.704,792.84Z" fill="#F8F4F4"/>
<path d="M506.256,762.96C506.256,766.49 502.349,769.346 497.542,769.346C492.736,769.346 488.816,766.49 488.816,762.96C488.816,759.429 492.722,756.587 497.542,756.587C502.362,756.587 506.256,759.442 506.256,762.96Z" fill="#F8F4F4"/>
<path d="M513.049,604.176C514.625,603.852 518.001,602.58 520.279,597.401C520.314,597.322 520.333,597.238 520.335,597.152C520.336,597.067 520.321,596.982 520.289,596.902C520.257,596.822 520.209,596.75 520.148,596.688C520.087,596.627 520.015,596.578 519.935,596.544C519.773,596.478 519.591,596.476 519.428,596.539C519.265,596.602 519.133,596.725 519.061,596.881C516.968,601.632 513.976,602.684 512.731,602.917C514.959,600.275 516.188,596.96 516.214,593.533C516.214,584.525 507.699,577.23 497.198,577.23C486.697,577.23 478.183,584.525 478.183,593.533C478.19,596.822 479.307,600.017 481.361,602.619C479.361,602.515 475.985,603.345 471.707,608.239C471.585,608.362 471.517,608.528 471.517,608.7C471.517,608.872 471.585,609.037 471.707,609.16C471.83,609.261 471.985,609.316 472.144,609.316C472.241,609.316 472.336,609.295 472.423,609.255C472.51,609.215 472.587,609.156 472.648,609.083C478.117,602.839 481.732,603.891 482.46,604.176C481.223,604.843 480.065,605.639 479.004,606.552C472.899,611.938 469.178,622.127 469.655,630.616C470.191,636.247 472.273,641.629 475.68,646.192C480.114,643.082 483.79,639.048 486.446,634.381C488.425,630.952 490.193,627.411 491.743,623.776C491.743,627.579 492.246,632.174 494.285,635.458C495.756,638.052 497.911,640.211 500.525,641.709C503.139,643.206 506.115,643.988 509.142,643.973C510.188,643.987 511.232,643.887 512.254,643.674C512.344,643.652 512.428,643.612 512.501,643.556C512.574,643.5 512.634,643.43 512.678,643.35C517.789,644.414 522.874,644.323 523.656,643.259C524.914,641.558 526.701,636.25 527.297,629.76C528.383,618.753 521.312,609.199 513.049,604.176ZM495.516,634.666C492.948,630.551 493.027,623.841 493.332,619.986L493.504,619.544C493.626,623.509 494.657,627.396 496.521,630.917C498.384,634.438 501.033,637.503 504.269,639.884C506.057,641.095 508.04,642.004 510.136,642.571C506.891,642.792 500.217,642.182 495.516,634.666L495.516,634.666Z" fill="#263238"/>
<defs>
<linearGradient id="pf_0_105_1857" x1="360" y1="362.506" x2="715" y2="1111.987" gradientUnits="userSpaceOnUse">
<stop stop-color="#4C6ED7"/>
<stop offset="0.729" stop-color="#1E42B1"/>
<stop offset="1" stop-color="#0F35A9"/>
</linearGradient>
</defs>
</svg>
