<svg width="48" height="40" viewBox="0 0 48 40" fill="none" xmlns="http://www.w3.org/2000/svg" xmlns:xlink="http://www.w3.org/1999/xlink">
<path d="M32.37,34.736L27.528,29.891C25.656,30.56 23.631,30.684 21.691,30.249C19.751,29.813 17.975,28.835 16.568,27.429C15.162,26.022 14.184,24.246 13.748,22.306C13.313,20.366 13.437,18.341 14.106,16.469L7.926,10.289C2.814,14.834 0,20 0,20C0,20 9,36.5 24,36.5C26.881,36.49 29.73,35.89 32.37,34.736ZM15.63,5.264C18.27,4.11 21.119,3.51 24,3.5C39,3.5 48,20 48,20C48,20 45.183,25.163 40.077,29.714L33.891,23.528C34.56,21.656 34.684,19.631 34.249,17.691C33.813,15.751 32.835,13.975 31.429,12.568C30.022,11.162 28.246,10.184 26.306,9.748C24.366,9.313 22.341,9.437 20.469,10.106L15.63,5.267L15.63,5.264Z" fill="#BDBDBD"/>
<path d="M16.575,18.938C16.41,20.091 16.516,21.266 16.884,22.371C17.252,23.476 17.872,24.48 18.696,25.304C19.52,26.128 20.524,26.748 21.629,27.116C22.734,27.484 23.909,27.59 25.062,27.425L16.572,18.938L16.575,18.938ZM31.425,21.062L22.938,12.572C24.091,12.407 25.266,12.513 26.371,12.881C27.476,13.249 28.48,13.869 29.304,14.693C30.128,15.517 30.748,16.521 31.116,17.626C31.484,18.731 31.59,19.906 31.425,21.059L31.425,21.062Z" fill="#BDBDBD"/>
<path d="M40.938,39.062L4.938,3.062L7.062,0.938L43.062,36.938L40.938,39.062Z" clip-rule="evenodd" fill-rule="evenodd" fill="#BDBDBD"/>
</svg>
