<svg width="32" height="32" viewBox="0 0 32 32" fill="none" xmlns="http://www.w3.org/2000/svg" xmlns:xlink="http://www.w3.org/1999/xlink">
<path d="M12.1,11.55L19.975,11.55L27.475,-0.55L19.6,-0.55L12.1,11.55Z" fill="url(#pf_0_93_981)"/>
<path d="M14.825,11.55L18.175,11.55L25.675,-0.575L22.325,-0.575L14.825,11.55Z" fill="url(#pf_0_93_982)"/>
<path d="M17.15,11.55L19.975,11.55L27.475,-0.575L24.675,-0.575L17.15,11.55Z" fill="url(#pf_0_93_983)"/>
<g opacity="0.2">
<g opacity="0.2">
<path d="M26.125,0.2L19.55,10.8L13.45,10.8L20.025,0.2L26.125,0.2ZM27.475,-0.55L19.6,-0.55L12.1,11.55L19.95,11.55L27.475,-0.55L27.475,-0.55Z" fill="#424242"/>
</g>
</g>
<path d="M20.5,8.5L11.5,8.5C10.4,8.5 9.5,9.4 9.5,10.5L9.5,14.5C9.5,15.05 9.95,15.5 10.5,15.5C11.05,15.5 11.75,15.05 11.75,14.5L11.75,12C11.75,11.725 11.975,11.5 12.25,11.5L19.75,11.5C20.025,11.5 20.25,11.725 20.25,12L20.25,14.475C20.25,14.975 20.825,15.4 21.3,15.475C21.375,15.475 21.425,15.5 21.5,15.5C22.05,15.5 22.5,15.05 22.5,14.5L22.5,10.5C22.5,9.4 21.6,8.5 20.5,8.5Z" fill="#FDD835"/>
<g opacity="0.2">
<g opacity="0.2">
<path d="M20.5,9C21.325,9 22,9.675 22,10.5L22,14.5C22,14.775 21.775,15 21.5,15L21.4,15C21.1,14.95 20.75,14.675 20.75,14.475L20.75,12C20.75,11.45 20.3,11 19.75,11L12.25,11C11.7,11 11.25,11.45 11.25,12L11.25,14.5C11.25,14.725 10.85,15 10.5,15C10.225,15 10,14.775 10,14.5L10,10.5C10,9.675 10.675,9 11.5,9L20.5,9ZM20.5,8.5L11.5,8.5C10.4,8.5 9.5,9.4 9.5,10.5L9.5,14.5C9.5,15.05 9.95,15.5 10.5,15.5C11.05,15.5 11.75,15.05 11.75,14.5L11.75,12C11.75,11.725 11.975,11.5 12.25,11.5L19.75,11.5C20.025,11.5 20.25,11.725 20.25,12L20.25,14.475C20.25,14.975 20.825,15.4 21.3,15.475C21.375,15.475 21.425,15.5 21.5,15.5C22.05,15.5 22.5,15.05 22.5,14.5L22.5,10.5C22.5,9.4 21.6,8.5 20.5,8.5Z" fill="#424242"/>
</g>
</g>
<path d="M19.975,11.55L12.1,11.55L4.6,-0.55L12.475,-0.55L19.975,11.55Z" fill="url(#pf_0_93_990)"/>
<path d="M18.25,11.55L14.9,11.55L7.4,-0.575L10.75,-0.575L18.25,11.55Z" fill="url(#pf_0_93_992)"/>
<path d="M19.95,11.55L17.15,11.55L9.65,-0.575L12.45,-0.575L19.95,11.55Z" fill="url(#pf_0_93_994)"/>
<g opacity="0.2">
<g opacity="0.2">
<path d="M12.05,0.2L18.625,10.8L12.525,10.8L5.95,0.2L12.05,0.2ZM12.475,-0.55L4.6,-0.55L12.1,11.55L19.95,11.55C19.975,11.55 12.475,-0.55 12.475,-0.55L12.475,-0.55Z" fill="#424242"/>
</g>
</g>
<path d="M16,31C21.247,31 25.5,26.747 25.5,21.5C25.5,16.253 21.247,12 16,12C10.753,12 6.5,16.253 6.5,21.5C6.5,26.747 10.753,31 16,31Z" fill="url(#pf_0_93_998)"/>
<g opacity="0.2">
<g opacity="0.2">
<path d="M16,12.75C20.825,12.75 24.75,16.675 24.75,21.5C24.75,26.325 20.825,30.25 16,30.25C11.175,30.25 7.25,26.325 7.25,21.5C7.25,16.675 11.175,12.75 16,12.75ZM16,12C10.75,12 6.5,16.25 6.5,21.5C6.5,26.75 10.75,31 16,31C21.25,31 25.5,26.75 25.5,21.5C25.5,16.25 21.25,12 16,12Z" fill="#424242"/>
</g>
</g>
<path d="M16.55,14.3L18.275,17.775C18.375,17.95 18.55,18.075 18.725,18.1L22.575,18.65C22.625,18.65 22.675,18.675 22.725,18.7C21.725,16.175 19.325,14.35 16.475,14.15C16.5,14.225 16.525,14.25 16.55,14.3L16.55,14.3Z" fill="url(#pf_0_93_1002)"/>
<path d="M9.425,18.675L13.275,18.125C13.475,18.1 13.65,17.975 13.725,17.8L15.45,14.325C15.475,14.275 15.5,14.25 15.525,14.2C12.675,14.375 10.275,16.2 9.275,18.725C9.325,18.7 9.375,18.675 9.425,18.675L9.425,18.675Z" fill="url(#pf_0_93_1003)"/>
<path d="M11.4,26.8L12.05,22.975C12.075,22.775 12.025,22.575 11.875,22.425L9.1,19.725C9.05,19.675 9.025,19.65 9,19.6C8.85,20.175 8.775,20.775 8.775,21.4C8.775,23.65 9.8,25.65 11.4,26.975C11.375,26.925 11.375,26.85 11.4,26.8Z" fill="url(#pf_0_93_1004)"/>
<path d="M23,19.6C22.975,19.65 22.95,19.7 22.9,19.725L20.125,22.425C19.975,22.575 19.925,22.775 19.95,22.975L20.6,26.8C20.6,26.85 20.625,26.925 20.6,26.975C22.2,25.65 23.225,23.65 23.225,21.4C23.225,20.775 23.15,20.175 23,19.6L23,19.6Z" fill="url(#pf_0_93_1005)"/>
<path d="M19.725,27.45L16.3,25.65C16.125,25.55 15.9,25.55 15.725,25.65L12.3,27.45C12.25,27.475 12.175,27.5 12.125,27.5C13.25,28.225 14.575,28.625 16.025,28.625C17.475,28.625 18.8,28.2 19.925,27.5C19.825,27.475 19.775,27.475 19.725,27.45L19.725,27.45Z" fill="url(#pf_0_93_1006)"/>
<g opacity="0.2">
<g opacity="0.2">
<path d="M17.825,15.175C19.25,15.6 20.5,16.5 21.35,17.75L18.9,17.4L17.825,15.175L17.825,15.175ZM16.475,14.175C16.5,14.225 16.525,14.25 16.55,14.3L18.275,17.775C18.375,17.95 18.55,18.075 18.725,18.1L22.575,18.65C22.625,18.65 22.675,18.675 22.725,18.7C21.7,16.2 19.3,14.35 16.475,14.175Z" fill="#424242"/>
</g>
</g>
<g opacity="0.2">
<g opacity="0.2">
<path d="M14.175,15.175L13.075,17.375L10.65,17.75C11.5,16.5 12.75,15.6 14.175,15.175L14.175,15.175ZM15.525,14.175C12.675,14.35 10.275,16.175 9.275,18.7C9.325,18.675 9.375,18.65 9.425,18.65L13.275,18.1C13.475,18.075 13.65,17.95 13.725,17.775L15.45,14.3C15.475,14.25 15.5,14.225 15.525,14.175L15.525,14.175Z" fill="#424242"/>
</g>
</g>
<g opacity="0.2">
<g opacity="0.2">
<path d="M9.525,21.175L11.3,22.9L10.875,25.35C10,24.25 9.525,22.85 9.525,21.4L9.525,21.175ZM9,19.6C8.85,20.175 8.775,20.775 8.775,21.4C8.775,23.65 9.8,25.65 11.4,26.975L11.4,26.8L12.05,22.975C12.075,22.775 12.025,22.575 11.875,22.425L9.1,19.725C9.05,19.675 9.025,19.625 9,19.6Z" fill="#424242"/>
</g>
</g>
<g opacity="0.2">
<g opacity="0.2">
<path d="M22.475,21.175L22.475,21.4C22.475,22.85 22,24.25 21.125,25.375L20.7,22.925L22.475,21.175L22.475,21.175ZM23,19.6C22.975,19.65 22.95,19.7 22.9,19.725L20.125,22.425C19.975,22.575 19.925,22.775 19.95,22.975L20.6,26.8C20.6,26.85 20.625,26.925 20.6,26.975C22.2,25.65 23.225,23.65 23.225,21.4C23.225,20.775 23.15,20.175 23,19.6L23,19.6Z" fill="#424242"/>
</g>
</g>
<g opacity="0.2">
<g opacity="0.2">
<path d="M16,26.325L18.225,27.5C17.525,27.75 16.775,27.9 16,27.9C15.225,27.9 14.5,27.775 13.775,27.5L16,26.325ZM16,25.55C15.9,25.55 15.8,25.575 15.725,25.625L12.3,27.425C12.25,27.45 12.175,27.475 12.125,27.475C13.25,28.2 14.575,28.6 16.025,28.6C17.475,28.6 18.8,28.175 19.925,27.475C19.875,27.475 19.825,27.45 19.75,27.425L16.325,25.625C16.2,25.575 16.1,25.55 16,25.55L16,25.55Z" fill="#424242"/>
</g>
</g>
<defs>
<linearGradient id="pf_0_93_981" x1="23.378" y1="-0.229" x2="15.544" y2="12.271" gradientUnits="userSpaceOnUse">
<stop offset="0.185" stop-color="#1E88E5"/>
<stop offset="0.806" stop-color="#1565C0"/>
</linearGradient>
<linearGradient id="pf_0_93_982" x1="22.818" y1="1.475" x2="16.099" y2="11.975" gradientUnits="userSpaceOnUse">
<stop offset="0.461" stop-color="#EEEEEE"/>
<stop offset="1" stop-color="#BDBDBD"/>
</linearGradient>
<linearGradient id="pf_0_93_983" x1="25.057" y1="1.013" x2="18.807" y2="11.201" gradientUnits="userSpaceOnUse">
<stop offset="0.257" stop-color="#E53935"/>
<stop offset="0.886" stop-color="#C62828"/>
</linearGradient>
<linearGradient id="pf_0_93_990" x1="8.698" y1="-0.228" x2="16.531" y2="12.272" gradientUnits="userSpaceOnUse">
<stop offset="0.136" stop-color="#64B5F6"/>
<stop offset="0.946" stop-color="#2196F3"/>
</linearGradient>
<linearGradient id="pf_0_93_992" x1="9.552" y1="0.373" x2="16.271" y2="10.873" gradientUnits="userSpaceOnUse">
<stop offset="0.21" stop-color="#FAFAFA"/>
<stop offset="0.774" stop-color="#E0E0E0"/>
</linearGradient>
<linearGradient id="pf_0_93_994" x1="12.058" y1="1.018" x2="18.308" y2="11.205" gradientUnits="userSpaceOnUse">
<stop offset="0.258" stop-color="#EF5350"/>
<stop offset="0.89" stop-color="#E53935"/>
</linearGradient>
<radialGradient id="pf_0_93_998" cx="0" cy="0" r="1" gradientUnits="userSpaceOnUse" gradientTransform="matrix(9.072125 0 0 9.072125 5.375 7.187)">
<stop offset="0.297" stop-color="#FFEB3B"/>
<stop offset="0.954" stop-color="#FBC02D"/>
</radialGradient>
<radialGradient id="pf_0_93_1002" cx="0" cy="0" r="1" gradientUnits="userSpaceOnUse" gradientTransform="matrix(6.808 0 0 6.808 6.253 7.663)">
<stop offset="0.098" stop-color="#FDD835"/>
<stop offset="0.951" stop-color="#F9A825"/>
</radialGradient>
<radialGradient id="pf_0_93_1003" cx="0" cy="0" r="1" gradientUnits="userSpaceOnUse" gradientTransform="matrix(6.808 0 0 6.808001 6.253 7.663)">
<stop offset="0.098" stop-color="#FDD835"/>
<stop offset="0.951" stop-color="#F9A825"/>
</radialGradient>
<radialGradient id="pf_0_93_1004" cx="0" cy="0" r="1" gradientUnits="userSpaceOnUse" gradientTransform="matrix(6.808001 0 0 6.808 6.253 7.663)">
<stop offset="0.098" stop-color="#FDD835"/>
<stop offset="0.951" stop-color="#F9A825"/>
</radialGradient>
<radialGradient id="pf_0_93_1005" cx="0" cy="0" r="1" gradientUnits="userSpaceOnUse" gradientTransform="matrix(6.808005 0 0 6.808 6.253 7.663)">
<stop offset="0.098" stop-color="#FDD835"/>
<stop offset="0.951" stop-color="#F9A825"/>
</radialGradient>
<radialGradient id="pf_0_93_1006" cx="0" cy="0" r="1" gradientUnits="userSpaceOnUse" gradientTransform="matrix(6.807999 0 0 6.807998 6.252 7.663)">
<stop offset="0.098" stop-color="#FDD835"/>
<stop offset="0.951" stop-color="#F9A825"/>
</radialGradient>
</defs>
</svg>
