<svg width="750" height="88" viewBox="0 0 750 88" fill="none" xmlns="http://www.w3.org/2000/svg" xmlns:xlink="http://www.w3.org/1999/xlink">
<rect  x="0" y="0" width="750" height="88" fill="#FDFDFD"/>
<rect  x="110" y="36" width="428" height="16" rx="20" fill="#8DA6F4"/>
<rect  x="110" y="36" width="110" height="16" rx="20" fill="#4C6ED7"/>
<path d="M58.82,44L67.42,35.42C67.796,35.043 68.008,34.533 68.008,34C68.008,33.467 67.796,32.957 67.42,32.58C67.043,32.203 66.532,31.992 66,31.992C65.467,31.992 64.956,32.203 64.58,32.58L56,41.18L47.42,32.58C47.043,32.203 46.532,31.992 46,31.992C45.467,31.992 44.956,32.203 44.58,32.58C44.203,32.957 43.992,33.467 43.992,34C43.992,34.533 44.203,35.043 44.58,35.42L53.18,44L44.58,52.58C44.392,52.766 44.244,52.987 44.142,53.231C44.041,53.475 43.988,53.736 43.988,54C43.988,54.264 44.041,54.525 44.142,54.769C44.244,55.013 44.392,55.234 44.58,55.42C44.766,55.607 44.987,55.756 45.231,55.858C45.474,55.959 45.736,56.012 46,56.012C46.264,56.012 46.525,55.959 46.769,55.858C47.013,55.756 47.234,55.607 47.42,55.42L56,46.82L64.58,55.42C64.766,55.607 64.987,55.756 65.231,55.858C65.474,55.959 65.736,56.012 66,56.012C66.264,56.012 66.525,55.959 66.769,55.858C67.013,55.756 67.234,55.607 67.42,55.42C67.607,55.234 67.756,55.013 67.858,54.769C67.959,54.525 68.011,54.264 68.011,54C68.011,53.736 67.959,53.475 67.858,53.231C67.756,52.987 67.607,52.766 67.42,52.58L58.82,44Z" fill="#181818"/>
</svg>
