<svg width="602" height="340" viewBox="0 0 602 340" fill="none" xmlns="http://www.w3.org/2000/svg" xmlns:xlink="http://www.w3.org/1999/xlink">
<g opacity="0.1">
<path d="M361.895,245.058C373.523,244.402 387.953,236.592 399.173,233.136C412.451,229.058 425.781,225.136 439.165,221.366C485.757,208.239 532.849,197.053 580.441,187.81C584.881,186.945 589.329,186.101 593.785,185.278C586.845,170.428 576.093,157.642 562.601,148.194C562.947,144.943 563.123,141.677 563.127,138.408C563.127,86.751 521.435,44.874 469.985,44.874C454.147,44.857 438.573,48.905 424.783,56.623C388.369,32.905 340.841,18.55 288.839,18.55C214.947,18.55 150.079,47.536 113.322,91.185L286.071,120.083L392.021,137.799C271.237,141.368 150.079,144.916 29.642,136.538C13.744,151.77 3.681,171.996 1.174,193.76C-1.333,215.524 3.871,237.474 15.897,255.86L15.897,255.86C15.897,257.73 15.976,259.586 16.118,261.426C19.186,262.296 22.149,263.14 24.806,263.692C67.469,272.616 110.405,280.084 153.615,286.096C121.773,305.538 82.996,308.288 46.266,316.522C64.052,331.06 88.206,339.97 114.822,339.97L511.131,339.97C554.045,339.97 588.829,310.388 588.829,273.894C595.269,263.38 599.559,251.714 601.457,239.562C522.051,247.154 441.655,240.562 361.895,245.058Z" fill="#4C6ED7"/>
</g>
<g opacity="0.1">
<path d="M601.999,224.018C602.043,208.977 598.431,194.147 591.471,180.778C584.511,167.409 574.405,155.894 562.007,147.204C562.349,143.955 562.525,140.69 562.533,137.424C562.533,85.766 520.819,43.904 469.391,43.904C453.551,43.887 437.975,47.934 424.183,55.649C387.769,31.92 340.235,17.56 288.233,17.56C203.649,17.56 130.84,55.571 98.551,110.078C96.757,109.974 94.952,109.917 93.131,109.917C41.698,109.917 -0.01,151.794 -0.01,203.452C-0.047,221.698 5.278,239.562 15.313,254.864L15.313,254.864C15.313,301.344 59.616,339.02 114.243,339.02L510.563,339.02C553.471,339.02 588.255,309.436 588.255,272.94C597.279,258.19 602.035,241.266 601.999,224.018L601.999,224.018Z" fill="#4C6ED7"/>
</g>
<path d="M491.64,166.712C490.888,166.14 490.007,165.757 489.072,165.597C488.088,165.373 487.083,165.232 486.083,165.076L473.128,163.226C471.82,162.986 470.486,162.916 469.16,163.018C468.495,163.072 467.847,163.256 467.254,163.56C466.662,163.864 466.136,164.282 465.708,164.789C465.322,165.261 465.11,165.849 465.108,166.457C465.18,167.068 465.381,167.657 465.698,168.187C465.823,168.434 465.93,168.69 466.019,168.952C466.143,169.542 466.297,170.124 466.482,170.698C466.539,170.822 466.613,170.938 466.703,171.042C466.705,171.071 466.705,171.101 466.703,171.13C466.561,171.85 467.018,172.6 466.813,173.293C466.634,173.887 466.05,174.246 465.682,174.741C465.436,175.093 465.3,175.508 465.291,175.935C465.281,176.362 465.399,176.782 465.629,177.143C466.024,177.748 466.739,178.16 466.945,178.853C467.213,179.764 466.487,180.645 465.84,181.348C464.649,182.643 463.548,184.017 462.545,185.46C462.264,185.814 462.082,186.237 462.019,186.684C461.961,187.591 462.84,188.388 462.688,189.289C462.567,189.998 461.867,190.43 461.261,190.852C459.025,192.311 457.231,194.656 457.052,197.308C456.477,193.089 454.712,189.115 451.958,185.845C451.205,184.949 450.379,184.047 450.069,182.912C449.953,182.458 449.932,181.974 449.774,181.536C449.248,180.155 447.574,179.561 446.843,178.29C446.317,177.394 446.317,176.242 445.664,175.455C445.012,174.668 443.986,174.491 443.423,173.731C443.141,173.215 442.902,172.679 442.707,172.126C442.471,171.675 442.139,171.28 441.733,170.969C441.656,170.907 441.575,170.85 441.491,170.797C441.579,170.72 441.649,170.625 441.697,170.519C441.745,170.413 441.77,170.298 441.77,170.182C441.77,169.573 441.16,169.171 440.628,168.869C439.944,168.484 439.276,168.067 438.623,167.634C439.335,167.306 439.952,166.806 440.418,166.18C441.002,165.247 441.243,164.143 441.102,163.054C441.066,162.175 440.734,161.333 440.16,160.662C439.828,160.313 439.413,160.063 439.065,159.735C438.166,158.865 437.86,157.578 437.487,156.39C436.992,154.827 436.218,153.185 434.777,152.357C434.082,151.956 433.272,151.768 432.593,151.346C431.914,150.924 431.346,150.127 431.582,149.361C431.74,148.84 432.23,148.48 432.561,148.037C432.957,147.465 433.109,146.76 432.984,146.078C432.859,145.395 432.467,144.788 431.893,144.39C431.504,144.145 431.025,143.931 430.946,143.483C430.641,143.405 430.365,143.243 430.149,143.016C429.933,142.79 429.786,142.507 429.725,142.201C429.607,141.589 429.607,140.959 429.725,140.346C429.862,139.377 429.997,138.412 430.13,137.449C430.362,137.545 430.611,137.594 430.862,137.594C431.113,137.594 431.361,137.545 431.593,137.449C432.048,138.181 432.577,138.865 433.172,139.492C434.774,141.366 436.022,143.51 436.855,145.823C437.155,146.656 437.46,147.589 438.239,148.032C438.508,148.183 438.813,148.261 439.076,148.423C439.4,148.647 439.679,148.93 439.897,149.257C440.528,150.085 441.16,150.908 441.786,151.737L441.818,151.862C441.835,151.935 441.863,152.005 441.902,152.07C442.018,152.2 442.18,152.282 442.354,152.299C444.291,152.742 446.464,153.149 448.143,152.101C449.658,151.164 450.321,149.309 451.605,148.069C452.516,147.188 453.805,146.505 454.063,145.265C453.756,145.171 453.453,145.062 453.158,144.937C453.421,144.676 453.684,144.374 454.042,144.03C454.562,143.526 455.03,142.973 455.441,142.379C455.886,141.645 456.239,140.861 456.494,140.044C457.508,137.182 458.525,134.318 459.546,131.452C460.03,130.097 460.514,128.732 461.125,127.414C461.756,125.986 462.503,124.616 463.193,123.214C464.972,119.569 466.345,115.743 467.287,111.803C467.454,111.265 467.509,110.7 467.45,110.141C467.303,109.239 466.613,108.531 465.955,107.89C465.294,107.181 464.54,106.562 463.714,106.05C463.299,105.795 462.837,105.624 462.354,105.547C461.872,105.47 461.379,105.489 460.904,105.602C459.557,105.993 458.709,107.358 458.399,108.729C458.088,110.099 458.204,111.511 458.073,112.897C457.883,114.903 457.189,116.842 457.02,118.853C456.931,120.015 457.02,121.192 456.878,122.354C456.619,123.875 456.084,125.337 455.299,126.669C453.593,129.845 451.282,132.666 448.495,134.974C448.174,135.24 447.843,135.495 447.527,135.782C447.527,135.558 447.564,135.329 447.595,135.105C447.366,135.164 447.143,135.242 446.927,135.339C446.954,135.076 446.927,134.81 446.848,134.558C446.427,133.312 444.554,132.994 444.217,131.728C444.161,131.415 444.131,131.098 444.128,130.78C444.017,129.67 443.254,128.732 442.991,127.654C442.749,126.658 442.933,125.569 442.465,124.647C442.066,124.07 441.595,123.545 441.065,123.084C440.433,122.369 439.977,121.518 439.734,120.598C439.665,120.343 439.602,120.077 439.528,119.822C439.608,119.244 439.543,118.655 439.339,118.108C438.86,116.93 437.624,116.175 437.176,114.981C436.829,114.054 436.982,112.897 436.324,112.178C435.974,111.835 435.547,111.579 435.077,111.433C432.668,110.504 430.141,109.913 427.567,109.677C426.126,109.547 424.536,109.474 423.505,108.468C422.3,107.301 422.242,105.201 420.832,104.3C419.59,103.503 417.832,104.091 416.869,105.212C416.725,105.376 416.591,105.55 416.469,105.733C416.294,105.034 416.256,104.309 416.359,103.596C416.359,103.419 416.396,103.237 416.411,103.075C418.787,102.306 420.81,100.725 422.116,98.615C422.116,98.615 422.116,98.615 422.116,98.646L422.179,98.808C422.331,99.188 422.574,99.553 422.931,99.595C423.169,99.592 423.399,99.509 423.584,99.36C423.901,99.142 424.194,98.89 424.457,98.61C424.591,98.464 424.717,98.313 424.836,98.156C425.079,97.831 425.287,97.482 425.457,97.114C425.719,96.561 425.896,95.973 425.983,95.369C426.078,94.764 426.089,94.144 426.194,93.54C426.292,93.072 426.421,92.611 426.578,92.159C426.631,92.008 426.683,91.857 426.731,91.706C426.778,91.555 426.846,91.351 426.899,91.185C427.228,90.113 427.406,89.001 427.425,87.881C427.425,87.694 427.425,87.506 427.425,87.319C427.406,86.588 427.24,85.868 426.936,85.201C426.633,84.535 426.198,83.935 425.657,83.437C424.752,82.702 423.552,82.395 422.889,81.399C422.458,80.732 422.363,79.873 422.11,79.091C421.837,78.156 421.305,77.315 420.574,76.664C419.843,76.013 418.942,75.577 417.974,75.407C416.808,75.281 415.638,75.599 414.701,76.298L414.701,76.298L414.628,76.355C414.106,76.75 413.663,77.238 413.323,77.794C412.627,77.604 411.991,77.246 411.47,76.751C410.944,76.267 410.539,75.657 410.007,75.188C409.511,74.738 408.901,74.428 408.242,74.29C407.583,74.153 406.899,74.193 406.261,74.407C405.603,74.667 405.018,75.079 404.552,75.607C404.087,76.135 403.754,76.765 403.582,77.444C403.293,78.518 403.345,79.753 402.74,80.649C402.272,81.347 401.504,81.691 400.967,82.327C400.633,82.729 400.406,83.207 400.304,83.718L400.304,83.718C400.24,84.004 400.21,84.296 400.214,84.588L400.214,84.588C400.214,84.718 400.214,84.849 400.246,84.974C400.246,84.974 400.246,85.015 400.246,85.036C400.264,85.179 400.294,85.32 400.335,85.458L400.335,85.458C400.485,85.987 400.753,86.475 401.119,86.886C401.467,87.28 401.901,87.59 402.388,87.793C402.587,87.869 402.791,87.934 402.998,87.985L403.624,88.126L403.845,88.178C403.09,89.583 402.67,91.141 402.619,92.732C402.568,94.323 402.887,95.904 403.551,97.354C403.551,97.5 403.514,97.646 403.498,97.792C403.412,99.843 403.504,101.899 403.772,103.935C403.845,104.743 403.887,105.634 403.387,106.275C403.16,106.527 402.904,106.752 402.624,106.947C402.909,106.582 403.198,106.222 403.493,105.863C402.751,105.123 401.577,105.029 400.525,105.102C398.488,105.253 396.51,105.851 394.736,106.853C393.558,107.525 392.347,108.416 391,108.26C390.206,108.171 389.421,107.739 388.648,107.947C388.213,108.123 387.807,108.362 387.443,108.656C387.155,108.86 386.808,108.966 386.454,108.958C385.627,107.952 384.349,107.27 383.359,106.452C382.233,105.459 381.203,104.366 380.281,103.185C378.576,101.147 376.876,99.105 375.203,97.047C373.793,95.317 372.345,93.446 372.098,91.232C372.073,91.012 372.061,90.791 372.061,90.57C372.096,89.518 372.229,88.471 372.461,87.444C372.524,87.196 372.524,86.936 372.461,86.688C372.303,86.167 371.698,85.974 371.177,85.86C371.246,85.458 371.293,85.047 371.319,84.656C371.614,80.175 371.293,75.621 372.251,71.233C372.614,69.545 373.208,67.836 374.435,66.612C376.355,64.689 379.571,64.225 381.044,61.948C382.275,60.052 381.786,57.368 380.239,55.696C378.692,54.023 376.308,53.34 374.04,53.424C373.404,53.402 372.775,53.569 372.235,53.903C371.73,54.347 371.353,54.915 371.14,55.55L368.883,60.984C368.228,62.399 367.676,63.858 367.231,65.351C366.599,67.633 366.457,70.04 365.957,72.343C365.957,74.115 364.805,76.324 364.173,77.955C363.468,79.789 362.705,81.603 362.068,83.473C361.91,83.942 361.358,85.333 361.016,86.599C360.887,86.674 360.767,86.763 360.658,86.865C360.383,87.214 360.134,87.581 359.911,87.965C359.432,88.59 358.653,88.923 358.127,89.528C357.601,90.132 357.49,91.242 358.222,91.544C358.37,91.594 358.524,91.627 358.679,91.643C358.775,91.651 358.87,91.667 358.964,91.69C359.753,91.909 360.063,92.894 359.948,93.707C359.832,94.52 359.421,95.27 359.353,96.083C359.211,97.521 360.063,98.86 360.884,100.069C361.734,101.379 362.673,102.631 363.694,103.815C364.436,104.638 365.273,105.378 366.02,106.17C368.867,109.067 371.13,112.454 373.687,115.601C374.607,116.789 375.654,117.876 376.808,118.842C377.562,119.426 378.351,119.964 379.171,120.453L383.57,123.214C384.069,123.576 384.633,123.84 385.233,123.99C385.428,124.017 385.626,124.017 385.822,123.99C385.848,124.121 385.869,124.246 385.901,124.376C386.243,125.741 386.996,126.981 387.08,128.373C387.164,129.764 387.038,131.186 387.138,132.593C387.232,133.891 387.522,135.198 387.595,136.475C387.743,138.934 387.132,141.363 386.543,143.77C385.654,147.292 385.117,150.887 383.386,154.082C382.902,154.962 382.333,155.858 382.333,156.864C382.333,156.984 382.333,157.109 382.365,157.229L381.575,157.672C381.344,157.802 381.112,157.932 380.902,158.068C379.902,158.714 378.834,159.428 378.423,160.543C378.092,161.444 378.244,162.476 377.845,163.351C377.826,163.39 377.804,163.429 377.781,163.466C377.36,164.279 376.524,164.883 376.334,165.774C376.192,166.457 376.466,167.181 376.334,167.858C376.334,167.858 376.334,167.858 376.334,167.884C376.215,168.225 376.12,168.573 376.05,168.926C376.044,169.042 376.055,169.158 376.082,169.27C376.182,169.665 376.402,170.02 376.713,170.286C376.903,170.467 377.109,170.629 377.329,170.771C377.553,170.917 377.785,171.052 378.023,171.177L378.16,171.25C378.36,171.355 378.56,171.454 378.765,171.547L378.902,171.605C379.139,171.709 379.381,171.803 379.623,171.886L379.792,171.938C379.981,172.001 380.176,172.058 380.37,172.105L380.502,172.147L380.623,172.173L381.149,172.282L381.344,172.319C381.575,172.357 381.812,172.388 382.054,172.412L382.265,172.412C382.444,172.412 382.617,172.438 382.791,172.444L383.038,172.444C383.223,172.444 383.401,172.444 383.565,172.444L383.754,172.444C384.001,172.444 384.249,172.407 384.496,172.376L384.575,172.376C384.796,172.345 385.017,172.308 385.238,172.261L385.406,172.225C385.612,172.178 385.817,172.131 386.022,172.068L386.133,172.037C386.38,171.964 386.627,171.886 386.869,171.792C387.707,171.451 388.519,171.053 389.3,170.599C389.827,170.312 390.353,170.021 390.879,169.755C391.269,169.56 391.67,169.386 392.079,169.234C393.074,168.813 394.157,168.634 395.236,168.713C395.769,168.785 396.296,168.891 396.815,169.031C396.815,169.088 396.815,169.145 396.815,169.203C397.243,171.704 397.666,174.205 398.083,176.706C398.772,176.215 399.501,175.781 400.262,175.408C400.119,175.786 400.026,176.18 399.983,176.581C399.951,176.891 399.951,177.203 399.983,177.513C400.03,178.008 400.135,178.556 399.835,178.946C399.651,179.186 399.309,179.322 399.209,179.592C399.136,179.869 399.118,180.158 399.157,180.442C399.135,180.766 398.997,181.071 398.767,181.303C398.537,181.534 398.231,181.676 397.904,181.703C398.055,182.122 398.058,182.58 397.914,183.001C397.77,183.423 397.487,183.784 397.11,184.027C396.889,184.132 396.684,184.265 396.499,184.423C396.319,184.653 396.198,184.923 396.147,185.209C395.451,187.79 394.021,190.118 392.026,191.915C391.278,192.498 390.595,193.158 389.99,193.885C389.616,194.448 389.307,195.051 389.069,195.683C387.666,199.08 386.241,202.479 384.796,205.88C383.996,207.782 383.217,209.715 382.965,211.763C382.333,217.379 377.281,222.142 378.229,227.717C378.42,229.11 378.987,230.426 379.87,231.526C380.923,232.782 382.502,233.501 384.08,234.085C388.137,235.648 392.416,236.502 396.678,237.362L403.372,238.722C404.685,239.021 406.018,239.23 407.36,239.347C408.976,239.457 410.634,239.306 412.207,239.712C413.18,239.962 414.112,240.426 415.117,240.478C415.98,240.525 417.043,240.342 417.553,241.041C418.064,241.739 417.669,242.661 418.153,243.281C418.932,244.266 420.832,243.281 421.679,244.209C421.91,244.565 422.088,244.953 422.205,245.36C422.334,245.612 422.513,245.835 422.731,246.017C422.783,246.311 422.804,246.609 422.795,246.908C422.685,248.118 422.43,249.311 422.037,250.461C421.405,252.577 420.776,254.695 420.148,256.813C419.908,257.561 419.732,258.329 419.621,259.105C419.582,259.483 419.582,259.863 419.621,260.241C419.732,261.393 420.4,262.581 421.511,262.957C422.372,263.181 423.288,263.069 424.068,262.643C424.821,262.255 425.527,261.783 426.173,261.237C427.338,260.363 428.362,259.321 429.209,258.141C431.84,254.245 430.988,248.971 432.835,244.662C434.061,241.786 436.45,239.451 437.245,236.419C437.431,235.842 437.452,235.225 437.308,234.637C436.976,233.595 435.855,233.001 434.808,232.626L434.761,232.626C433.901,232.322 433.022,232.073 432.13,231.881C431.909,231.834 431.682,231.797 431.456,231.761C430.955,231.357 430.557,230.843 430.293,230.26C430.252,229.95 430.169,229.647 430.046,229.359C429.962,229.234 429.85,229.132 429.718,229.059C429.586,228.987 429.439,228.946 429.288,228.942C428.762,228.89 428.057,229.077 427.483,229.036C426.31,228.952 425.531,227.811 424.478,227.285C423.426,226.759 422.284,226.889 421.163,226.967C420.762,227.021 420.355,226.996 419.963,226.894C419.496,226.681 419.069,226.39 418.701,226.034C418.053,225.535 417.297,225.192 416.492,225.032C415.688,224.872 414.857,224.899 414.064,225.112C413.561,225.313 413.028,225.433 412.486,225.466C411.46,225.409 410.734,224.502 409.976,223.815C407.902,221.934 404.95,221.438 402.435,220.204C402.05,220.062 401.729,219.788 401.53,219.432C401.24,218.724 401.893,218.015 402.482,217.531L406.808,213.972C411.544,210.074 417.464,207.141 419.664,201.425C419.893,200.658 420.248,199.935 420.716,199.283C420.886,199.084 421.083,198.909 421.3,198.762C422.257,198.148 423.417,197.924 424.536,198.137C425.901,198.439 427.194,198.998 428.346,199.783C430.23,200.912 432.063,202.128 433.845,203.431C435.611,204.68 437.289,206.045 438.871,207.516C441.633,210.121 443.933,213.211 446.506,216.02C449.079,218.828 452.021,221.449 455.594,222.793C459.167,224.138 463.487,224.08 466.555,221.824C470.097,219.219 471.233,214.561 472.128,210.288C474.101,208.402 474.696,205.531 475.659,202.993C476.264,201.383 477.038,199.867 477.69,198.262C478.469,196.376 479.079,194.427 479.69,192.483C480.382,190.532 480.851,188.51 481.09,186.455C481.342,183.209 480.463,179.754 481.384,176.706C482.6,176.44 483.705,175.763 484.899,175.367C486.678,174.788 488.583,174.882 490.467,174.893L490.588,174.893C491.237,174.961 491.89,174.808 492.44,174.46C493.072,173.939 493.172,173.048 493.203,172.24C493.277,170.245 493.151,168.004 491.64,166.712ZM415.396,77.83C414.961,77.937 414.51,77.968 414.064,77.924L415.396,77.83Z" fill="url(#pf_0_93_83)"/>
<path d="M417.469,110.792C416.832,111.328 416.085,111.721 415.28,111.944L411.549,113.267C409.523,113.986 407.408,114.711 405.271,114.45C404.077,114.304 398.957,113.559 398.183,112.637C397.004,111.209 401.135,109.109 402.545,107.906C402.865,107.678 403.161,107.42 403.43,107.134C403.956,106.499 403.887,105.608 403.814,104.805C403.546,102.773 403.455,100.721 403.54,98.673C403.581,98.184 403.651,97.699 403.751,97.219C404.277,94.822 406.529,95.697 408.308,96.333C410.449,97.022 412.519,97.91 414.491,98.985C415.091,99.292 415.613,99.73 416.017,100.267C416.796,101.434 416.485,102.966 416.359,104.435C416.248,105.577 416.254,106.671 416.975,107.499C417.337,107.816 417.67,108.165 417.969,108.541C418.138,108.921 418.18,109.343 418.09,109.748C418,110.152 417.783,110.518 417.469,110.792Z" fill="#FFDCDC"/>
<path d="M365.931,73.24C366.457,70.931 366.573,68.55 367.204,66.263C367.65,64.775 368.202,63.321 368.857,61.912L371.177,56.55C371.39,55.917 371.767,55.351 372.272,54.909C372.813,54.577 373.441,54.41 374.077,54.429C376.345,54.346 378.729,55.044 380.276,56.696C381.823,58.348 382.312,61.021 381.081,62.912C379.607,65.189 376.392,65.648 374.471,67.565C373.245,68.79 372.651,70.494 372.288,72.177C371.33,76.554 371.651,81.092 371.356,85.563C371.261,86.954 370.988,88.543 369.777,89.262C369.046,89.617 368.232,89.773 367.42,89.715L363.968,89.773C363.389,89.773 361.289,90.132 360.905,89.7C360.232,88.944 361.768,85.182 362.047,84.343C362.668,82.483 363.431,80.67 364.152,78.841C364.778,77.21 365.931,75.006 365.931,73.24Z" fill="#FFDCDC"/>
<path d="M437.208,236.935C436.413,239.947 434.024,242.292 432.798,245.163C430.951,249.461 431.782,254.719 429.172,258.606C428.326,259.786 427.302,260.832 426.136,261.706C425.49,262.25 424.784,262.72 424.031,263.108C423.251,263.534 422.335,263.646 421.474,263.42C420.363,263.045 419.695,261.857 419.584,260.711C419.545,260.335 419.545,259.956 419.584,259.58C419.695,258.805 419.871,258.039 420.111,257.293C420.742,255.184 421.372,253.072 422,250.957C422.393,249.809 422.647,248.62 422.758,247.414C422.826,246.1 421.984,244.391 422.342,243.167C422.505,242.615 423.115,242.125 423.394,241.661C423.79,240.994 424.095,240.277 424.299,239.53C424.731,238.076 425.026,236.523 425.931,235.299C426.521,234.573 427.212,233.933 427.983,233.397C428.552,232.903 429.219,232.532 429.941,232.308C430.641,232.186 431.36,232.22 432.046,232.407C432.938,232.596 433.817,232.843 434.677,233.147L434.724,233.147C435.776,233.522 436.892,234.101 437.224,235.153C437.385,235.737 437.379,236.354 437.208,236.935Z" fill="#252431"/>
<path d="M493.198,172.876C493.166,173.684 493.066,174.585 492.435,175.091C491.885,175.439 491.232,175.592 490.583,175.523L490.441,175.523C488.562,175.523 486.652,175.419 484.873,175.997C483.521,176.44 482.279,177.253 480.868,177.415C478.927,177.634 477.101,176.581 475.38,175.664C473.76,174.8 472.097,174.017 470.397,173.319C469.281,172.866 467.002,172.574 466.466,171.365C466.282,170.793 466.127,170.212 466.003,169.625C465.914,169.362 465.807,169.106 465.682,168.859C465.366,168.331 465.165,167.744 465.092,167.134C465.094,166.527 465.306,165.939 465.692,165.467C466.121,164.964 466.647,164.55 467.239,164.248C467.83,163.947 468.476,163.764 469.139,163.711C470.465,163.609 471.799,163.679 473.107,163.919L486.062,165.764C487.062,165.905 488.067,166.045 489.051,166.285C489.986,166.445 490.867,166.828 491.619,167.4C493.151,168.671 493.277,170.907 493.198,172.876Z" fill="#252431"/>
<path d="M481.81,176.211C480.232,179.509 481.368,183.412 481.084,187.059C480.846,189.109 480.376,191.126 479.684,193.072C479.074,195.011 478.464,196.954 477.685,198.835C477.032,200.398 476.259,201.962 475.654,203.556C474.691,206.099 474.075,208.959 472.123,210.851C471.228,215.113 470.091,219.771 466.55,222.356C463.471,224.607 459.183,224.685 455.589,223.325C451.995,221.965 449.074,219.36 446.501,216.551C443.928,213.743 441.628,210.684 438.865,208.068C437.282,206.597 435.599,205.234 433.829,203.988C432.047,202.707 430.214,201.501 428.33,200.372C427.177,199.591 425.884,199.034 424.52,198.731C423.401,198.518 422.241,198.742 421.284,199.356C421.067,199.503 420.87,199.678 420.7,199.877C420.232,200.526 419.876,201.248 419.648,202.014C417.437,207.714 411.507,210.642 406.771,214.529L402.445,218.078C401.856,218.562 401.203,219.271 401.493,219.974C401.692,220.33 402.013,220.604 402.398,220.746C404.913,221.975 407.865,222.47 409.939,224.346C410.697,225.034 411.423,225.941 412.449,225.993C412.991,225.961 413.524,225.843 414.027,225.644C414.819,225.431 415.65,225.404 416.454,225.563C417.259,225.722 418.015,226.064 418.664,226.561C419.032,226.916 419.459,227.207 419.926,227.42C420.318,227.523 420.725,227.548 421.126,227.493C422.247,227.415 423.436,227.316 424.441,227.811C425.447,228.306 426.273,229.473 427.446,229.557C428.02,229.598 428.704,229.411 429.251,229.463C429.402,229.468 429.549,229.508 429.681,229.58C429.813,229.653 429.925,229.756 430.009,229.88C430.132,230.166 430.215,230.468 430.256,230.776C430.472,231.511 431.198,231.959 431.672,232.563C432.398,233.491 432.503,234.752 432.43,235.924C432.191,239.59 430.541,243.025 427.82,245.522C427.047,246.304 426.062,246.847 424.983,247.085C424.443,247.197 423.882,247.138 423.377,246.916C422.873,246.695 422.452,246.322 422.173,245.85C422.056,245.444 421.879,245.058 421.647,244.704C420.8,243.781 418.9,244.761 418.122,243.776C417.637,243.161 417.985,242.177 417.522,241.541C417.059,240.905 415.943,241.02 415.085,240.983C414.08,240.931 413.149,240.462 412.175,240.217C410.597,239.811 408.944,239.962 407.329,239.853C405.986,239.736 404.653,239.527 403.34,239.227L396.646,237.873C392.384,237.013 388.106,236.143 384.049,234.606C382.496,234.022 380.933,233.303 379.839,232.053C378.956,230.954 378.389,229.64 378.197,228.249C377.245,222.689 382.296,217.937 382.933,212.336C383.159,210.293 383.985,208.365 384.764,206.469C386.192,203.078 387.616,199.686 389.037,196.292C389.267,195.66 389.567,195.056 389.932,194.49C390.537,193.764 391.22,193.106 391.968,192.525C393.962,190.733 395.393,188.411 396.089,185.835C396.14,185.548 396.261,185.278 396.441,185.048C396.628,184.893 396.833,184.762 397.052,184.657C397.427,184.415 397.71,184.055 397.854,183.634C397.998,183.214 397.995,182.757 397.846,182.339C398.173,182.312 398.479,182.17 398.709,181.938C398.939,181.707 399.077,181.402 399.099,181.078C399.06,180.796 399.078,180.509 399.151,180.234C399.277,179.963 399.593,179.827 399.777,179.587C400.077,179.197 399.972,178.65 399.925,178.16C399.893,177.85 399.893,177.537 399.925,177.227C400.04,176.124 400.538,175.094 401.335,174.314C402.593,173.09 404.382,173.408 406.118,173.116C407.851,172.746 409.542,172.21 411.17,171.516C415.736,169.735 420.544,168.634 425.436,168.249C430.353,167.866 435.291,168.645 439.844,170.521C440.506,170.787 441.131,171.137 441.702,171.563C442.107,171.872 442.439,172.265 442.675,172.715C442.869,173.266 443.109,173.801 443.391,174.314C443.954,175.075 445.017,175.32 445.632,176.039C446.248,176.758 446.301,177.972 446.811,178.863C447.543,180.135 449.237,180.723 449.742,182.104C449.9,182.542 449.921,183.021 450.037,183.474C450.321,184.61 451.174,185.507 451.926,186.403C454.685,189.67 456.451,193.645 457.02,197.866C457.188,195.224 458.983,192.885 461.23,191.426C461.835,191.035 462.535,190.602 462.656,189.894C462.808,188.998 461.93,188.2 461.988,187.289C462.051,186.843 462.233,186.423 462.514,186.069C463.517,184.63 464.617,183.26 465.808,181.969C466.455,181.265 467.181,180.405 466.913,179.478C466.708,178.785 465.992,178.379 465.597,177.774C465.367,177.414 465.249,176.994 465.259,176.568C465.268,176.142 465.404,175.727 465.65,175.377C466.018,174.882 466.602,174.523 466.781,173.934C466.987,173.241 466.529,172.491 466.671,171.777C466.863,171.205 467.245,170.715 467.755,170.386C468.453,169.756 469.247,169.239 470.107,168.854C471.496,168.333 473.043,168.525 474.517,168.729C476.98,169.067 479.742,169.588 481.132,171.631C482.021,172.907 482.473,174.846 481.81,176.211Z" fill="#201E2E"/>
<g opacity="0.1">
<path d="M493.198,172.876C493.166,173.684 493.066,174.585 492.435,175.091C491.885,175.439 491.232,175.592 490.583,175.523L490.441,175.523C490.656,174.439 491.988,173.819 492.219,172.72C492.259,172.382 492.228,172.04 492.128,171.715C492.029,171.389 491.863,171.088 491.64,170.829C490.514,169.323 488.704,168.489 486.904,167.879C481.82,166.153 476.373,165.75 471.086,166.707C469.648,166.939 468.25,167.365 466.929,167.973C466.491,168.244 466.069,168.54 465.666,168.859C465.35,168.331 465.149,167.744 465.077,167.134C465.079,166.527 465.29,165.939 465.676,165.467C466.106,164.964 466.631,164.55 467.223,164.248C467.814,163.947 468.46,163.764 469.123,163.711C470.449,163.609 471.783,163.679 473.091,163.919L486.047,165.764C487.046,165.905 488.051,166.045 489.036,166.285C489.97,166.445 490.851,166.828 491.603,167.4C493.151,168.671 493.277,170.907 493.198,172.876Z" fill="#000000"/>
</g>
<g opacity="0.1">
<path d="M437.208,236.935C436.413,239.947 434.024,242.292 432.798,245.163C430.951,249.461 431.782,254.719 429.172,258.606C428.326,259.786 427.302,260.832 426.136,261.706C425.49,262.25 424.784,262.72 424.031,263.108C423.251,263.534 422.335,263.646 421.474,263.42C420.363,263.045 419.695,261.857 419.584,260.711C419.545,260.335 419.545,259.956 419.584,259.58L419.616,259.664C420.074,260.758 420.821,261.904 422,262.097C422.442,262.128 422.887,262.069 423.305,261.923C423.723,261.777 424.107,261.547 424.431,261.248C426.168,259.867 427.178,257.809 428.141,255.823C428.895,254.392 429.491,252.884 429.92,251.327C430.13,250.441 430.23,249.534 430.446,248.648C431.446,244.344 434.85,240.833 435.603,236.471C435.664,236.171 435.678,235.864 435.645,235.559C435.546,235.163 435.393,234.781 435.192,234.424C435.009,234.02 434.875,233.597 434.792,233.163C435.845,233.538 436.96,234.116 437.292,235.169C437.428,235.754 437.399,236.365 437.208,236.935Z" fill="#000000"/>
</g>
<g opacity="0.1">
<path d="M429.262,229.463C428.775,230.724 427.955,231.832 426.889,232.673C425.39,233.803 423.637,234.554 421.779,234.861C420.914,235.08 420.007,235.069 419.148,234.83C417.98,234.429 417.138,233.345 415.943,233.033C415.091,232.803 414.175,233.007 413.312,232.881C411.76,232.668 410.555,231.495 409.302,230.558C405.466,227.702 400.43,226.78 396.594,223.924C396.423,223.821 396.282,223.675 396.183,223.502C396.11,223.315 396.083,223.113 396.104,222.914C396.119,221.182 396.512,219.473 397.257,217.906C397.867,216.813 398.594,215.788 399.425,214.848C402.861,210.679 406.313,206.48 410.428,202.962C412.154,201.488 414.038,200.112 416.217,199.445C417.427,199.075 419.816,198.726 421.29,199.351C421.072,199.498 420.876,199.674 420.705,199.873C420.237,200.522 419.881,201.244 419.653,202.009C417.438,207.714 411.507,210.643 406.771,214.53L402.445,218.078C401.856,218.563 401.204,219.271 401.493,219.975C401.692,220.331 402.013,220.604 402.398,220.746C404.913,221.976 407.866,222.471 409.939,224.347C410.697,225.034 411.423,225.941 412.449,225.993C412.991,225.962 413.524,225.844 414.028,225.644C414.819,225.432 415.65,225.404 416.454,225.563C417.259,225.723 418.015,226.064 418.664,226.561C419.032,226.917 419.459,227.208 419.927,227.421C420.318,227.523 420.726,227.548 421.126,227.494C422.247,227.416 423.436,227.317 424.442,227.812C425.447,228.307 426.273,229.474 427.446,229.557C428.03,229.599 428.715,229.401 429.262,229.463Z" fill="#000000"/>
</g>
<path d="M380.865,158.745C379.865,159.381 378.802,160.1 378.392,161.205C378.055,162.106 378.213,163.138 377.808,164.013C377.403,164.889 376.492,165.498 376.292,166.436C376.15,167.119 376.429,167.838 376.292,168.52C376.173,168.875 376.076,169.237 376.003,169.604C375.95,170.381 376.624,171.011 377.281,171.444C378.682,172.345 380.276,172.91 381.937,173.091C383.598,173.272 385.278,173.064 386.843,172.486C388.248,171.965 389.516,171.115 390.863,170.448C392.177,169.699 393.68,169.338 395.194,169.406C396.062,169.5 396.894,169.813 397.762,169.927C398.191,170.011 398.634,169.99 399.053,169.867C399.472,169.744 399.854,169.521 400.167,169.219C400.435,168.852 400.615,168.43 400.693,167.984C401.425,165.123 401.093,162.091 400.398,159.214C399.704,156.338 398.651,153.571 397.909,150.711C397.383,148.59 396.978,146.417 396.099,144.411C395.22,142.405 393.742,140.54 391.674,139.774C391.511,139.694 391.326,139.671 391.148,139.706C391.015,139.761 390.898,139.847 390.805,139.956C389.17,141.673 387.937,143.726 387.196,145.969C386.369,148.465 386.143,151.112 385.385,153.618C385.059,154.66 384.638,156.057 383.807,156.854C382.975,157.651 381.807,158.146 380.865,158.745Z" fill="#252431"/>
<g opacity="0.1">
<path d="M400.709,167.968C400.621,168.415 400.432,168.837 400.156,169.203C399.845,169.506 399.462,169.729 399.043,169.852C398.623,169.974 398.18,169.993 397.752,169.906C396.889,169.802 396.057,169.484 395.189,169.385C393.674,169.316 392.171,169.677 390.858,170.427C389.511,171.094 388.227,171.923 386.832,172.459C384.792,173.225 382.564,173.351 380.449,172.819C379.326,172.539 378.259,172.074 377.292,171.443C376.629,171.016 375.961,170.401 376.013,169.604C376.087,169.239 376.183,168.878 376.303,168.525C376.439,167.843 376.166,167.124 376.303,166.441C376.503,165.503 377.418,164.878 377.818,164.013C378.218,163.148 378.066,162.111 378.397,161.21C378.807,160.1 379.876,159.386 380.876,158.745C381.875,158.104 383.065,157.614 383.864,156.838C383.968,156.717 384.061,156.588 384.143,156.452C384.72,155.571 385.144,154.601 385.396,153.581C386.169,151.07 386.38,148.428 387.201,145.927C387.945,143.686 389.18,141.634 390.816,139.919C390.903,139.807 391.02,139.721 391.153,139.669C391.33,139.633 391.515,139.655 391.679,139.732C393.742,140.503 395.22,142.368 396.105,144.374C396.989,146.38 397.362,148.543 397.915,150.669C398.651,153.529 399.709,156.306 400.404,159.177C401.098,162.049 401.44,165.102 400.709,167.968Z" fill="#000000"/>
</g>
<g opacity="0.1">
<path d="M416.359,104.42C413.884,105.198 411.207,105.044 408.84,103.986C406.474,102.928 404.586,101.041 403.54,98.688C403.581,98.2 403.651,97.714 403.751,97.234C404.277,94.838 406.529,95.713 408.308,96.349C410.449,97.037 412.519,97.925 414.491,99.001C415.091,99.307 415.613,99.746 416.017,100.283C416.795,101.434 416.485,102.966 416.359,104.42Z" fill="#000000"/>
</g>
<path d="M413.18,104.389C418.993,104.389 423.705,99.723 423.705,93.968C423.705,88.212 418.993,83.546 413.18,83.546C407.368,83.546 402.656,88.212 402.656,93.968C402.656,99.723 407.368,104.389 413.18,104.389Z" fill="#FFDCDC"/>
<g opacity="0.1">
<path d="M441.739,171.845C441.739,172.71 440.555,172.986 439.676,172.939C436.519,172.757 433.43,171.897 430.304,172.157C426.352,172.512 422.721,174.674 418.758,174.872C417.232,174.95 415.68,174.726 414.175,175.002C412.228,175.362 410.491,176.534 408.508,176.701C406.787,176.847 405.087,176.206 403.366,176.274C402.163,176.345 400.99,176.676 399.93,177.243C400.045,176.14 400.544,175.11 401.34,174.33C402.598,173.106 404.387,173.424 406.124,173.132C407.856,172.762 409.548,172.226 411.176,171.532C415.742,169.751 420.549,168.65 425.442,168.265C430.355,167.878 435.291,168.651 439.844,170.521C440.507,170.787 441.131,171.137 441.702,171.563C441.731,171.654 441.743,171.75 441.739,171.845L441.739,171.845Z" fill="#000000"/>
</g>
<path d="M408.313,112.996L404.05,111.433L402.251,110.777C401.517,110.472 400.746,110.269 399.956,110.172C397.894,110.016 395.952,111.376 394.852,113.111C393.752,114.846 393.337,116.915 392.984,118.931C392.5,121.689 392.089,124.458 391.753,127.237C391.39,129.746 391.205,132.278 391.2,134.813C391.321,141.264 392.7,147.626 394.215,153.905C394.958,156.688 395.518,159.517 395.894,162.372C396.02,163.549 396.078,164.732 396.204,165.915C396.341,167.244 396.562,168.557 396.783,169.875L398.052,177.363C399.63,176.253 401.425,175.278 403.366,175.221C405.087,175.159 406.792,175.794 408.508,175.648C410.481,175.487 412.228,174.314 414.175,173.955C415.68,173.679 417.232,173.898 418.764,173.825C422.721,173.627 426.357,171.459 430.304,171.11C433.435,170.829 436.545,171.704 439.681,171.886C440.555,171.938 441.739,171.662 441.739,170.792C441.739,170.188 441.128,169.786 440.597,169.484C438.091,167.991 435.707,166.306 433.466,164.446C431.393,162.82 429.288,161.152 427.862,158.954C424.426,153.665 425.605,146.511 422.674,140.93C420.29,136.397 422.674,130.457 422.674,125.345C422.674,122.797 422.674,120.218 422.068,117.743C421.69,116.359 421.219,115.001 420.658,113.679L418.611,108.547C418.569,108.397 418.485,108.261 418.369,108.156C418.231,108.062 418.068,108.013 417.901,108.015C416.671,107.942 415.459,108.327 414.501,109.094C413.538,109.87 412.923,110.985 411.975,111.793C410.939,112.684 409.602,113.465 408.313,112.996Z" fill="#45566C"/>
<path d="M415.191,110.037C415.527,108.609 415.891,107.124 416.854,106.009C417.817,104.894 419.574,104.305 420.816,105.102C422.226,106.009 422.284,108.103 423.489,109.271C424.542,110.271 426.12,110.349 427.552,110.479C430.125,110.711 432.653,111.301 435.061,112.23C435.53,112.374 435.958,112.628 436.308,112.97C436.966,113.71 436.834,114.846 437.161,115.768C437.608,116.956 438.844,117.712 439.323,118.894C439.85,120.208 439.323,121.677 438.881,123.026C438.087,125.449 437.587,127.966 436.813,130.399C436.04,132.833 434.94,135.23 433.13,137.064C432.33,137.877 431.141,138.627 430.088,138.142L429.683,141.034C429.565,141.645 429.565,142.273 429.683,142.884C429.744,143.19 429.891,143.472 430.107,143.699C430.323,143.926 430.599,144.087 430.904,144.166C430.983,144.614 431.462,144.827 431.851,145.072C432.138,145.267 432.384,145.516 432.573,145.806C432.763,146.095 432.892,146.419 432.955,146.758C433.017,147.097 433.01,147.445 432.936,147.782C432.861,148.119 432.719,148.438 432.519,148.72C432.188,149.163 431.698,149.512 431.54,150.038C431.304,150.799 431.867,151.601 432.551,152.018C433.235,152.435 434.04,152.628 434.735,153.029C436.176,153.852 436.95,155.473 437.445,157.046C437.813,158.234 438.118,159.521 439.023,160.386C439.371,160.715 439.786,160.965 440.118,161.309C440.692,161.98 441.023,162.821 441.06,163.7C441.204,164.789 440.962,165.894 440.376,166.827C439.323,168.317 437.36,168.76 435.64,169.432C432.845,170.568 430.546,172.6 428.083,174.33C427.08,175.13 425.898,175.68 424.636,175.935C422.931,176.159 421.253,175.414 419.537,175.346C418.511,175.355 417.49,175.488 416.496,175.742L413.338,176.419C413.507,173.996 412.16,171.568 411.407,169.26C409.986,164.914 409.723,160.266 410.06,155.712C410.397,151.158 411.333,146.667 412.26,142.196C412.907,139.07 412.844,135.803 413.838,132.765C414.77,129.842 416.101,127.033 416.59,123.99C417.39,119.066 414.065,114.893 415.191,110.037Z" fill="#252431"/>
<path d="M439.128,119.671C439.419,120.2 439.623,120.772 439.734,121.364C439.977,122.282 440.433,123.131 441.065,123.845C441.594,124.307 442.064,124.832 442.465,125.408C442.949,126.314 442.765,127.419 442.991,128.409C443.254,129.488 444.017,130.426 444.128,131.535C444.131,131.853 444.161,132.171 444.217,132.484C444.559,133.745 446.432,134.047 446.848,135.308C447.127,136.126 446.648,137.017 446.738,137.877C446.803,138.143 446.819,138.418 446.785,138.69C446.666,138.997 446.457,139.262 446.185,139.45C444.443,141.098 443.238,143.222 442.723,145.552C442.216,147.869 441.949,150.231 441.928,152.602L439.87,149.908C439.653,149.581 439.374,149.298 439.05,149.074C438.786,148.918 438.481,148.84 438.213,148.684C437.434,148.246 437.129,147.318 436.829,146.485C435.996,144.177 434.748,142.037 433.145,140.169C432.309,139.195 431.335,138.215 431.151,136.949C431.096,136.368 431.128,135.781 431.246,135.209C431.772,131.796 432.335,128.3 434.014,125.272C434.798,123.855 435.813,122.573 436.566,121.135C437.071,120.182 437.781,117.701 439.128,119.671Z" fill="#252431"/>
<path d="M387.217,122.948C387.226,123.387 387.113,123.82 386.89,124.199C386.689,124.43 386.427,124.601 386.133,124.693C385.84,124.785 385.526,124.794 385.227,124.72C384.628,124.571 384.064,124.309 383.565,123.949C382.098,123.032 380.632,122.113 379.165,121.192C378.347,120.704 377.558,120.168 376.803,119.588C375.648,118.623 374.602,117.538 373.682,116.352C371.125,113.226 368.862,109.833 366.015,106.973C365.242,106.191 364.436,105.441 363.689,104.623C362.668,103.44 361.729,102.19 360.879,100.882C360.058,99.678 359.206,98.344 359.348,96.906C359.432,96.093 359.827,95.343 359.942,94.535C360.058,93.727 359.748,92.743 358.958,92.524C358.865,92.501 358.77,92.485 358.674,92.477C358.518,92.461 358.365,92.427 358.216,92.378C357.485,92.076 357.595,90.955 358.122,90.367C358.648,89.778 359.427,89.45 359.906,88.804C360.128,88.42 360.378,88.053 360.653,87.704C361.005,87.405 361.426,87.196 361.879,87.094C364.914,86.209 368.125,86.089 371.219,86.745C371.746,86.86 372.346,87.068 372.503,87.574C372.566,87.82 372.566,88.078 372.503,88.324C372.271,89.352 372.137,90.398 372.103,91.45C372.103,91.67 372.115,91.889 372.14,92.107C372.388,94.316 373.835,96.187 375.245,97.912C376.918,99.965 378.618,102.002 380.323,104.034C381.245,105.212 382.276,106.302 383.401,107.291C384.454,108.156 385.817,108.854 386.638,109.964C387.306,110.86 387.09,112.084 387.164,113.163C387.409,116.42 387.426,119.689 387.217,122.948Z" fill="#252431"/>
<path d="M454.047,144.687C454.567,144.187 455.036,143.637 455.447,143.046C455.889,142.313 456.242,141.531 456.499,140.717L459.551,132.145C460.035,130.791 460.519,129.431 461.13,128.112C461.761,126.69 462.509,125.32 463.198,123.944C464.971,120.324 466.342,116.524 467.287,112.611C467.453,112.073 467.508,111.508 467.45,110.949C467.302,110.047 466.613,109.344 465.955,108.703C465.294,107.996 464.54,107.379 463.714,106.869C463.299,106.613 462.836,106.442 462.354,106.365C461.872,106.288 461.379,106.307 460.904,106.421C459.556,106.812 458.709,108.177 458.399,109.547C458.088,110.918 458.204,112.319 458.072,113.716C457.883,115.716 457.188,117.65 457.02,119.656C456.931,120.818 457.02,121.99 456.878,123.147C456.619,124.666 456.084,126.126 455.299,127.456C453.589,130.624 451.279,133.437 448.495,135.741C447.732,136.298 447.046,136.951 446.453,137.684C445.959,138.417 445.623,139.244 445.469,140.112C445.12,141.435 445.271,142.838 445.896,144.057C446.753,145.505 448.4,146.141 449.974,146.464C452.1,146.902 452.589,146.183 454.047,144.687Z" fill="#FFDCDC"/>
<path d="M413.244,78.867C413.697,78.024 414.39,77.332 415.238,76.877C416.086,76.422 417.05,76.224 418.011,76.309C418.979,76.478 419.879,76.913 420.61,77.563C421.341,78.213 421.873,79.053 422.147,79.987C422.395,80.764 422.495,81.623 422.926,82.29C423.579,83.296 424.789,83.588 425.694,84.317C426.235,84.814 426.669,85.413 426.973,86.079C427.277,86.745 427.443,87.464 427.462,88.194C427.512,89.685 427.275,91.173 426.762,92.576C426.545,93.175 426.369,93.788 426.236,94.41C426.131,95.015 426.12,95.629 426.026,96.234C425.909,97.018 425.635,97.77 425.22,98.448C424.806,99.125 424.258,99.714 423.61,100.178C423.426,100.327 423.196,100.41 422.958,100.413C422.547,100.366 422.295,99.892 422.142,99.464C421.305,97.073 421.505,94.15 419.963,92.243C419.262,91.473 418.414,90.848 417.469,90.403C417.084,90.157 416.649,89.995 416.196,89.929C415.528,89.965 414.887,90.197 414.354,90.596C413.243,91.334 412.011,91.873 410.712,92.19C410.064,92.342 409.39,92.349 408.74,92.21C408.089,92.072 407.477,91.791 406.95,91.388C406.224,90.794 405.692,89.903 404.887,89.439C404.082,88.976 403.24,89.002 402.445,88.684C401.939,88.47 401.488,88.146 401.128,87.734C400.768,87.322 400.507,86.834 400.366,86.307C400.225,85.781 400.207,85.229 400.314,84.695C400.421,84.16 400.649,83.657 400.983,83.223C401.509,82.598 402.288,82.243 402.756,81.55C403.361,80.654 403.308,79.425 403.598,78.351C403.769,77.672 404.101,77.043 404.567,76.517C405.033,75.99 405.619,75.581 406.276,75.324C406.914,75.109 407.598,75.068 408.257,75.205C408.916,75.342 409.526,75.651 410.023,76.1C410.549,76.569 410.97,77.174 411.486,77.663C411.995,78.146 412.618,78.494 413.299,78.676C413.979,78.858 414.695,78.868 415.38,78.705Z" fill="#252431"/>
<g opacity="0.1">
<path d="M421.895,155.561C421.588,155.832 421.371,156.187 421.272,156.581C421.172,156.975 421.195,157.39 421.337,157.771C421.453,158.016 426.883,156.979 427.457,156.9C428.888,156.697 431.398,156.796 432.361,155.499C434.077,153.201 428.762,153.712 427.788,153.795C425.936,153.951 423.305,154.201 421.895,155.561Z" fill="#000000"/>
</g>
<path d="M372.493,88.345C372.261,89.372 372.127,90.419 372.093,91.471C370.514,91.789 368.872,91.268 367.357,90.747L363.005,89.278C362.74,89.11 362.421,89.049 362.112,89.106C361.803,89.163 361.528,89.334 361.342,89.585C360.642,90.304 359.679,91.669 358.711,92.477C358.555,92.461 358.402,92.427 358.253,92.378C357.522,92.076 357.632,90.955 358.158,90.367C358.685,89.778 359.463,89.45 359.942,88.804C360.165,88.42 360.415,88.053 360.69,87.704C361.042,87.405 361.463,87.196 361.916,87.094C364.951,86.209 368.162,86.089 371.256,86.745C371.782,86.86 372.382,87.068 372.54,87.574C372.591,87.831 372.575,88.096 372.493,88.345Z" fill="#252431"/>
<g opacity="0.1">
<path d="M372.493,88.345C372.261,89.372 372.127,90.419 372.093,91.471C370.514,91.789 368.872,91.268 367.357,90.747L363.005,89.278C362.74,89.11 362.421,89.049 362.112,89.106C361.803,89.163 361.528,89.334 361.342,89.585C360.642,90.304 359.679,91.669 358.711,92.477C358.555,92.461 358.402,92.427 358.253,92.378C357.522,92.076 357.632,90.955 358.158,90.367C358.685,89.778 359.463,89.45 359.942,88.804C360.165,88.42 360.415,88.053 360.69,87.704C361.042,87.405 361.463,87.196 361.916,87.094C364.951,86.209 368.162,86.089 371.256,86.745C371.782,86.86 372.382,87.068 372.54,87.574C372.591,87.831 372.575,88.096 372.493,88.345Z" fill="#000000"/>
</g>
<g opacity="0.1">
<path d="M412.302,187.268C413.059,187.518 413.88,187.883 414.138,188.633L408.044,187.101L404.887,186.304C404.329,186.163 402.33,186.002 401.961,185.569C401.435,184.933 403.303,185.371 403.64,185.418C404.661,185.569 405.682,185.725 406.697,185.908C408.613,186.246 410.455,186.804 412.302,187.268Z" fill="#000000"/>
</g>
<g opacity="0.1">
<path d="M414.664,192.609C414.138,192.26 412.628,192.301 411.981,192.15C411.033,191.926 410.102,191.629 409.171,191.342C407.281,190.733 405.408,190.04 403.466,189.592C403.108,189.514 401.888,189.493 401.945,189.045C402.003,188.596 403.166,188.44 403.456,188.419C405.177,188.294 407.324,189.092 408.923,189.659C410.962,190.383 412.893,191.375 414.664,192.609L414.664,192.609Z" fill="#000000"/>
</g>
<g opacity="0.1">
<path d="M410.802,182.505C408.871,181.984 407.118,180.796 405.129,180.567C404.611,180.587 404.101,180.432 403.682,180.129C403.448,179.902 403.286,179.612 403.214,179.296C404.545,179.228 406.092,179.785 407.302,180.312C407.969,180.595 408.609,180.933 409.218,181.323C409.66,181.588 410.323,182.354 410.802,182.505Z" fill="#000000"/>
</g>
<path d="M447.616,135.85C447.29,138.016 447.762,140.227 448.947,142.076C450.132,143.926 451.95,145.291 454.068,145.922C453.81,147.157 452.521,147.84 451.61,148.72C450.326,149.955 449.663,151.805 448.148,152.743C446.459,153.785 444.285,153.378 442.359,152.941C442.184,152.921 442.023,152.838 441.907,152.706C441.867,152.644 441.839,152.575 441.823,152.503C441.186,150.195 440.77,147.73 441.423,145.417C441.949,143.447 443.212,141.769 444.222,140.029C445.233,138.289 445.327,136.423 447.616,135.85Z" fill="#252431"/>
<path d="M400.567,105.973C398.53,106.119 396.552,106.716 394.778,107.718C393.6,108.385 392.389,109.281 391.042,109.12C390.247,109.031 389.463,108.599 388.69,108.807C388.254,108.981 387.848,109.22 387.485,109.516C387.301,109.661 387.082,109.756 386.85,109.793C386.617,109.83 386.379,109.806 386.159,109.724L385.633,116.936C385.433,119.676 385.238,122.475 385.901,125.148C386.243,126.513 386.995,127.753 387.08,129.139C387.164,130.525 387.038,131.947 387.138,133.349C387.232,134.646 387.522,135.923 387.595,137.22C387.743,139.669 387.132,142.098 386.543,144.479C385.654,147.991 385.117,151.581 383.386,154.759C382.901,155.64 382.333,156.536 382.333,157.536C382.333,157.662 382.333,157.781 382.365,157.901C381.838,158.188 381.349,158.459 380.902,158.74C379.902,159.381 378.834,160.095 378.423,161.205C378.092,162.106 378.244,163.138 377.844,164.008C377.444,164.878 376.529,165.498 376.329,166.436C376.187,167.119 376.46,167.838 376.329,168.52C376.21,168.874 376.113,169.234 376.039,169.599C375.987,170.381 376.655,171.011 377.318,171.438C378.285,172.069 379.352,172.534 380.476,172.814L383.617,160.465C386.481,155.221 388.864,149.733 390.737,144.067C391.273,142.215 391.961,140.41 392.794,138.669C393.39,137.684 393.917,136.661 394.373,135.605C394.852,134.292 394.899,132.87 395.131,131.484C395.406,129.866 395.819,128.274 396.367,126.726C396.936,125.054 397.594,123.386 397.709,121.63C397.883,119.119 396.962,116.467 397.941,114.143C398.356,113.273 398.897,112.467 399.546,111.751C400.903,110.105 402.14,108.38 403.498,106.733C402.793,105.988 401.619,105.91 400.567,105.973Z" fill="#252431"/>
<g opacity="0.1">
<g opacity="0.1">
<path d="M415.396,77.153L414.738,77.2L414.664,77.253C414.911,77.243 415.156,77.209 415.396,77.153L415.396,77.153Z" fill="#000000"/>
</g>
<g opacity="0.1">
<path d="M427.436,87.97C427.326,89.006 427.1,90.026 426.762,91.013C426.545,91.612 426.369,92.224 426.236,92.847C426.131,93.451 426.12,94.066 426.025,94.671C425.909,95.454 425.635,96.207 425.22,96.884C424.805,97.562 424.258,98.15 423.61,98.615C423.426,98.764 423.196,98.847 422.958,98.85C422.547,98.803 422.295,98.328 422.142,97.901C421.305,95.51 421.505,92.586 419.963,90.679C419.262,89.91 418.414,89.285 417.469,88.84C417.084,88.594 416.649,88.432 416.196,88.366C415.528,88.401 414.887,88.634 414.354,89.033C413.243,89.77 412.011,90.31 410.712,90.627C410.064,90.779 409.39,90.786 408.74,90.647C408.089,90.508 407.477,90.227 406.95,89.825C406.224,89.231 405.692,88.34 404.887,87.876C404.082,87.412 403.24,87.438 402.445,87.121C401.949,86.911 401.507,86.593 401.152,86.19C400.796,85.788 400.537,85.312 400.393,84.797C400.375,84.732 400.361,84.665 400.351,84.599C400.22,85.18 400.234,85.785 400.393,86.36C400.537,86.875 400.796,87.351 401.152,87.754C401.507,88.156 401.949,88.474 402.445,88.684C403.24,89.002 404.135,89.007 404.887,89.439C405.64,89.872 406.224,90.794 406.95,91.388C407.477,91.791 408.089,92.072 408.74,92.21C409.39,92.349 410.064,92.342 410.712,92.19C412.011,91.873 413.243,91.334 414.354,90.596C414.887,90.197 415.528,89.965 416.196,89.929C416.649,89.995 417.084,90.157 417.469,90.403C418.403,90.857 419.237,91.487 419.927,92.258C421.468,94.165 421.268,97.088 422.105,99.48C422.258,99.912 422.51,100.381 422.921,100.428C423.173,100.43 423.418,100.341 423.61,100.178C424.261,99.712 424.81,99.122 425.226,98.441C425.642,97.761 425.915,97.005 426.031,96.218C426.125,95.614 426.136,94.999 426.241,94.394C426.374,93.772 426.55,93.159 426.767,92.56C427.28,91.157 427.518,89.67 427.467,88.178C427.457,88.116 427.446,88.043 427.436,87.97Z" fill="#000000"/>
</g>
</g>
<path d="M394.142,129.78L393.784,134.537C393.731,135.183 392.484,150.565 383.286,168.541C375.392,183.959 360.032,204.041 331.032,215.327C328.769,216.213 326.42,217.039 323.985,217.807L321.27,209.366C328.087,207.242 334.653,204.398 340.856,200.883C355.638,192.432 367.131,180.369 375.145,164.847C379.397,156.583 382.428,147.756 384.143,138.638L351.149,138.638L351.149,129.78L394.142,129.78Z" fill="#4C6ED7"/>
<g opacity="0.1">
<path d="M327.48,215.332C356.475,204.046 371.84,183.969 379.728,168.551C388.927,150.575 390.179,135.204 390.227,134.547L390.584,129.79L394.268,129.79L393.91,134.547C393.863,135.193 392.61,150.575 383.412,168.551C375.519,183.969 360.158,204.046 331.163,215.332C328.9,216.218 326.55,217.046 324.112,217.817L323.754,216.708C325.024,216.259 326.266,215.801 327.48,215.332Z" fill="#FFFFFF"/>
</g>
<path d="M269.427,209.366L266.711,217.807C264.273,217.036 261.923,216.207 259.66,215.322C230.665,204.036 215.299,183.959 207.411,168.541C198.213,150.565 196.96,135.194 196.913,134.537L196.555,129.78L239.527,129.78L239.527,138.638L206.527,138.638C208.252,147.757 211.291,156.584 215.552,164.847C223.566,180.369 235.054,192.432 249.835,200.878C256.039,204.396 262.607,207.242 269.427,209.366L269.427,209.366Z" fill="#4C6ED7"/>
<g opacity="0.1">
<path d="M263.207,215.332C234.212,204.046 218.846,183.969 210.958,168.551C201.759,150.575 200.507,135.204 200.46,134.547L200.102,129.79L196.418,129.79L196.776,134.547C196.823,135.193 198.076,150.575 207.274,168.551C215.168,183.969 230.528,204.046 259.523,215.332C261.786,216.218 264.136,217.046 266.574,217.817L266.932,216.708C265.666,216.259 264.424,215.801 263.207,215.332Z" fill="#FFFFFF"/>
</g>
<path d="M344.987,290.963L344.987,338.729L245.704,338.729L245.704,290.963L248.862,286.795C281.035,275.488 287.555,246.001 288.855,234.335C289.048,232.723 289.159,231.102 289.186,229.479L301.463,229.479C301.491,231.102 301.601,232.723 301.795,234.335C303.115,246.001 309.635,275.498 341.788,286.795L344.987,290.963Z" fill="#4C6ED7"/>
<g opacity="0.1">
<path d="M344.987,290.963L245.704,290.963L245.704,296.955L344.987,296.955L344.987,290.963Z" fill="#000000"/>
</g>
<g opacity="0.1">
<path d="M254.124,286.795C286.297,275.488 292.817,246.001 294.117,234.335C294.31,232.723 294.421,231.102 294.449,229.479L289.186,229.479C289.159,231.102 289.048,232.723 288.855,234.335C287.534,246.001 281.014,275.498 248.862,286.795L245.704,290.963L245.704,338.729L250.967,338.729L250.967,290.963L254.124,286.795Z" fill="#FFFFFF"/>
</g>
<g opacity="0.1">
<path d="M230.623,129.78L239.527,129.78L239.527,138.638L231.412,138.638C231.093,135.72 230.83,132.767 230.623,129.78Z" fill="#000000"/>
</g>
<g opacity="0.1">
<path d="M269.427,209.366L266.711,217.807C264.273,217.036 261.923,216.207 259.66,215.322C255.938,210.821 252.648,205.985 249.835,200.878C256.039,204.396 262.607,207.242 269.427,209.366Z" fill="#000000"/>
</g>
<g opacity="0.1">
<path d="M321.265,209.366C328.082,207.241 334.648,204.397 340.851,200.883C338.036,205.991 334.747,210.828 331.026,215.332C328.764,216.218 326.415,217.044 323.98,217.812L321.265,209.366Z" fill="#000000"/>
</g>
<g opacity="0.1">
<path d="M360.063,129.78C359.856,132.767 359.593,135.72 359.274,138.638L351.165,138.638L351.165,129.78L360.063,129.78Z" fill="#000000"/>
</g>
<g opacity="0.1">
<path d="M301.816,234.335C297.542,235.155 293.149,235.155 288.876,234.335C289.069,232.723 289.18,231.102 289.207,229.479L301.484,229.479C301.512,231.102 301.622,232.723 301.816,234.335L301.816,234.335Z" fill="#000000"/>
</g>
<path d="M231.675,115.107C231.902,180.791 260.318,233.908 295.348,233.908C330.379,233.908 358.79,180.791 359.022,115.107L231.675,115.107Z" fill="#4C6ED7"/>
<g opacity="0.1">
<path d="M242.989,115.107L231.675,115.107C231.902,180.791 260.318,233.908 295.349,233.908C297.244,233.905 299.136,233.746 301.005,233.434C268.622,228.077 243.205,177.217 242.989,115.107Z" fill="#FFFFFF"/>
</g>
<path d="M329.111,309.247L261.58,309.247L261.58,326.442L329.111,326.442L329.111,309.247Z" fill="#CBA110"/>
<g opacity="0.1">
<path d="M264.738,311.592L329.111,311.592L329.111,309.247L261.58,309.247L261.58,326.442L264.738,326.442L264.738,311.592Z" fill="#FFFFFF"/>
</g>
<path d="M195.66,178.524C194.445,178.123 187.288,172.517 186.746,169.979C186.204,167.441 190.53,143.801 190.53,143.801C190.53,143.801 190.13,143.801 189.477,143.723L189.477,143.343L190.367,112.288C190.367,112.288 194.013,91.445 187.125,92.659C180.237,93.874 184.557,112.288 184.557,112.288C184.557,112.288 183.773,121.635 183.22,124.439C182.694,127.143 180.284,138.158 181.926,141.581C181.986,141.703 182.053,141.821 182.126,141.936C182.126,141.936 182.4,153.686 179.426,155.29C176.59,156.817 175.411,164.503 175.311,165.191L175.159,165.128C174.312,164.603 173.568,163.931 172.964,163.143C172.901,163.065 172.854,162.981 172.796,162.898C174.732,160.741 175.776,157.941 175.718,155.056C175.66,152.171 174.506,149.413 172.486,147.334C171.546,146.368 170.444,145.571 169.228,144.979C169.193,143.983 168.955,143.005 168.528,142.103C167.16,139.205 159.583,135.417 154.199,135.329C151.715,135.256 149.679,135.954 148.937,137.877C148.558,138.851 148.674,139.961 148.516,140.972C148.2,143.056 146.848,144.687 145.111,145.984C144.41,145.209 143.652,144.487 142.843,143.822C141.086,142.488 137.581,138.09 137.581,138.09C137.581,138.09 126.641,126.872 125.831,123.798C125.02,120.724 114.09,102.263 111.659,105.477C109.228,108.692 120.032,122.704 120.032,122.704C120.032,122.704 122.084,127.794 123.662,129.514C125.241,131.233 137.344,148.637 137.344,148.637L137.923,149.825C135.366,151.158 133.029,152.857 132.203,155.504C130.993,159.402 133.64,163.32 135.471,166.967C139.039,174.085 139.549,183.162 134.945,189.665C130.819,195.407 123.662,198.137 116.964,200.523C120.199,203.039 124.218,204.36 128.33,204.259C126.783,208.699 121.3,210.168 116.627,210.991C119.079,213.326 122.589,214.175 125.957,214.691C127.606,214.969 129.278,215.1 130.951,215.082L131.361,215.082L131.772,215.05C132.342,215.013 132.91,214.942 133.471,214.837C135.902,214.347 138.265,213.034 139.507,210.908C140.56,209.09 140.928,206.609 142.838,205.697C143.335,205.475 143.871,205.349 144.417,205.328L144.359,205.328C144.717,205.328 145.085,205.328 145.443,205.328L153.405,205.406C153.736,205.406 154.078,205.406 154.42,205.406C156.667,205.354 159.067,204.968 160.209,203.129C160.678,202.235 160.926,201.244 160.93,200.237C161.098,197.741 160.93,195.172 160.998,192.655C161.677,197.236 162.387,204.374 160.698,207.011C159.326,209.008 157.662,210.794 155.762,212.31C155.284,212.707 154.847,213.151 154.457,213.633C154.199,213.816 154.047,213.915 154.047,213.915L153.884,214.399C153.284,215.3 152.849,216.298 152.6,217.348C152.508,217.618 152.474,217.904 152.5,218.187C152.684,218.557 151.184,220.084 151.621,220.725C147.874,225.076 147.164,231.667 147.164,231.667L140.323,241.953C136.808,251.097 131.545,252.035 131.545,252.035C131.545,252.035 119.184,243.823 118.848,243.422C118.511,243.021 113.785,241.015 113.785,241.015C113.228,240.047 112.378,239.278 111.354,238.816C109.733,238.149 109.597,235.69 109.597,235.69C109.397,229.88 105.95,229.437 105.95,229.437C103.171,229.202 101.051,229.692 99.419,230.588L98.925,230.625C96.536,230.818 93.663,231.031 90.505,231.24C81.723,231.813 79.633,237.445 79.633,237.445C79.633,237.445 78.555,238.649 79.97,239.952C81.386,241.254 90.447,239.952 90.831,239.92C90.141,239.995 89.442,239.947 88.769,239.78C90.195,239.728 92.158,239.676 93.831,239.676L94.236,239.676C94.131,240.554 94.08,241.438 94.083,242.323C94.083,243.99 98.741,245.058 98.741,245.058L112.922,257.563C112.922,257.563 121.836,261.508 127.509,267.182C133.182,272.856 138.197,267.959 138.197,267.959C144.201,266.489 161.477,245.808 161.493,245.788C161.493,246.392 161.856,266.505 162.545,270.543C162.573,270.748 162.624,270.949 162.698,271.142C163.508,272.877 162.424,277.619 161.956,279.62C161.657,281.294 161.542,282.996 161.614,284.695C161.614,284.695 155.136,309.184 155.673,311.336C156.209,313.488 152.163,323.488 152.163,323.488L152.163,331.824L152.868,331.788C152.776,331.922 152.692,332.062 152.615,332.204L152.568,332.292C152.568,332.292 156.888,333.226 159.793,332.96C162.698,332.694 167.686,335.174 167.686,335.174C167.686,335.174 169.376,335.966 174.575,336.3C179.774,336.634 179.774,334.028 179.774,334.028C179.179,330.48 170.965,329.292 170.712,329.256C170.049,328.844 169.428,328.396 168.918,328.01L168.812,327.926C168.847,327.848 168.877,327.768 168.902,327.686C169.781,324.144 164.918,322.606 164.918,322.606L164.918,321.742C168.076,320.136 168.702,309.122 168.702,309.122C168.702,309.122 173.438,295.502 174.101,293.23C174.764,290.958 174.101,287.555 174.101,287.555L174.575,284.617C174.575,284.617 175.59,282.616 175.59,282.215C175.722,281.198 176.117,280.232 176.737,279.411C177.479,278.541 175.927,276.473 175.927,276.473L177.279,273.002L177.279,269.193L180.437,255.375C180.437,255.375 183.747,239.28 182.6,234.012C181.452,228.744 183.952,226.066 183.952,226.066C183.727,226.183 183.495,226.287 183.257,226.378C183.573,225.655 183.846,224.914 184.073,224.159L191.177,225.029L191.177,225.133L193.74,225.133C193.74,225.133 192.929,215.233 192.929,211.242C192.929,207.25 195.66,192.926 195.66,192.926C195.66,192.926 196.876,178.926 195.66,178.524ZM164.124,166.967C164.124,167.358 164.087,167.765 164.061,168.181L163.919,168.395L163.655,168.176L163.335,168.671L163.24,168.718C162.545,168.364 162.187,166.337 161.687,166.775L161.619,166.832C161.509,166.707 161.398,166.67 161.282,166.775L161.177,166.863C161.177,166.712 161.177,166.556 161.177,166.399C162.14,166.645 163.13,166.769 164.124,166.769C164.129,166.837 164.124,166.905 164.124,166.967ZM187.751,213.07L187.904,213.07L187.651,213.727C187.683,213.508 187.714,213.294 187.751,213.07ZM161.814,331.23L160.845,330.99L161.372,330.902L161.861,331.22L161.919,331.262L161.814,331.23ZM171.707,329.828C171.386,329.662 171.059,329.468 170.744,329.27C170.849,329.328 171.265,329.542 171.707,329.828Z" fill="url(#pf_0_93_130)"/>
<path d="M191.245,203.228L184.873,219.672L186.42,219.672L180.426,224.403L191.245,225.737L191.245,203.228Z" fill="#4353FF"/>
<g opacity="0.1">
<path d="M191.245,203.228L184.873,219.672L183.268,219.245L180.426,224.403L191.245,225.737L191.245,203.228Z" fill="#000000"/>
</g>
<path d="M181.253,213.748L191.246,213.748L194.913,183.865L181.253,183.865L181.253,213.748Z" fill="#4353FF"/>
<g opacity="0.1">
<path d="M181.253,213.748L191.246,213.748L194.913,183.865L181.253,183.865L181.253,213.748Z" fill="#000000"/>
</g>
<path d="M161.735,190.941L163.892,190.582L168.849,189.748C168.849,189.748 183.736,186.424 186.809,186.153C188.671,185.91 190.487,185.397 192.198,184.631C193.003,184.288 193.513,184.027 193.513,184.027L188.151,174.33L179.832,168.223C179.832,168.223 174.569,167.114 172.343,164.081C171.847,163.428 171.523,162.663 171.403,161.855C171.282,161.046 171.369,160.221 171.654,159.454C173.012,155.286 163.545,163.44 163.545,163.44C163.545,163.44 163.634,165.394 163.545,167.885C163.545,168.374 163.498,168.885 163.461,169.406C163.461,169.75 163.413,170.094 163.377,170.448C163.145,172.923 162.671,175.471 161.735,176.993C159.446,180.713 161.735,190.941 161.735,190.941Z" fill="#FFDCDC"/>
<g opacity="0.1">
<path d="M163.545,168.093L163.756,168.093C164.134,168.093 164.44,167.296 164.808,167.259C167.771,166.978 170.475,166.363 172.354,164.284C171.859,163.632 171.536,162.867 171.416,162.06C171.295,161.253 171.381,160.428 171.665,159.662C173.022,155.494 163.556,163.643 163.556,163.643C163.556,163.643 163.656,165.602 163.545,168.093Z" fill="#000000"/>
</g>
<path d="M152.021,156.276C152.02,157.776 152.318,159.261 152.897,160.647C153.477,162.033 154.326,163.293 155.398,164.353C156.469,165.414 157.741,166.255 159.141,166.829C160.54,167.403 162.041,167.698 163.556,167.697C163.934,167.697 164.308,167.697 164.682,167.645C166.904,167.429 169.016,166.579 170.76,165.198C172.504,163.817 173.806,161.964 174.507,159.865C175.208,157.765 175.279,155.509 174.71,153.371C174.142,151.232 172.959,149.303 171.305,147.818C169.65,146.332 167.596,145.354 165.391,145.002C163.186,144.65 160.926,144.94 158.884,145.835C156.842,146.731 155.107,148.194 153.888,150.047C152.67,151.901 152.021,154.064 152.021,156.276Z" fill="#FFDCDC"/>
<path d="M148.479,138.94C148.1,139.909 148.216,140.993 148.064,142.019C147.501,145.724 143.696,147.944 140.254,149.496C136.813,151.049 132.929,152.888 131.835,156.468C130.635,160.34 133.256,164.221 135.076,167.853C138.623,174.929 139.128,183.954 134.55,190.425C130.482,196.157 123.394,198.877 116.722,201.263C119.933,203.765 123.924,205.08 128.009,204.984C126.478,209.397 121.031,210.861 116.39,211.674C118.827,213.998 122.315,214.842 125.657,215.353C128.093,215.728 130.593,215.973 133.024,215.488C135.455,215.004 137.76,213.696 139.013,211.58C140.065,209.772 140.423,207.308 142.323,206.396C143.18,206.062 144.104,205.928 145.022,206.005L152.915,206.088C155.373,206.088 158.283,205.901 159.551,203.822C160.019,202.934 160.264,201.947 160.267,200.945C160.609,195.818 159.614,190.399 161.745,185.72C162.387,184.308 158.267,182.073 158.699,180.577C160.183,175.435 160.556,171.386 160.54,166.035C160.54,161.892 163.261,158.323 165.508,154.827C167.755,151.33 169.634,146.917 167.86,143.166C165.86,138.981 150.842,132.901 148.479,138.94Z" fill="#252431"/>
<path d="M158.988,329.73L160.998,331.048L161.309,331.251L161.367,331.288L163.75,332.851L169.318,333.779L174.212,333.445C174.212,333.445 175.622,330.527 173.407,330.595C172.697,330.559 172.005,330.361 171.386,330.017L171.081,329.865C170.76,329.699 170.439,329.511 170.123,329.313C169.465,328.902 168.844,328.453 168.344,328.073C167.608,327.51 167.118,327.083 167.118,327.083L158.988,329.73Z" fill="#FFDCDC"/>
<g opacity="0.1">
<path d="M161.025,331.048L161.335,331.252L161.393,331.288L163.777,332.851L169.344,333.779L174.238,333.445C174.238,333.445 175.648,330.527 173.433,330.595C172.723,330.559 172.032,330.361 171.412,330.017C171.802,330.319 172.128,330.647 172.159,330.923C172.249,331.668 168.539,333.008 168.539,333.008L163.308,331.637C163.308,331.637 162.419,331.387 161.203,331.074L161.088,331.043L161.025,331.048Z" fill="#000000"/>
</g>
<path d="M152.079,332.32C152.079,332.32 156.367,333.247 159.251,332.981C162.135,332.716 167.102,335.175 167.102,335.175C167.102,335.175 168.781,335.957 173.943,336.29C179.105,336.624 179.105,334.029 179.105,334.029C178.516,330.501 170.36,329.339 170.107,329.287C170.207,329.339 170.633,329.553 171.065,329.839C171.644,330.215 172.27,330.704 172.317,331.1C172.407,331.84 168.697,333.185 168.697,333.185L163.466,331.819C163.466,331.819 162.577,331.564 161.361,331.251L161.245,331.251C159.443,330.765 157.612,330.391 155.762,330.131C153.51,329.892 152.358,331.788 152.121,332.215C152.104,332.249 152.089,332.284 152.079,332.32Z" fill="#252431"/>
<path d="M84.48,238.618L86.759,240.348C86.759,240.348 87.422,240.316 88.411,240.285L88.727,240.285C90.142,240.233 92.094,240.181 93.752,240.181C94.824,240.133 95.897,240.193 96.957,240.358C98.093,240.754 100.114,233.918 100.114,233.918L97.83,233.397L97.073,233.22L96.546,233.095L94.689,232.662L89.058,233.298L85.101,235.82L84.48,238.618Z" fill="#FFDCDC"/>
<g opacity="0.1">
<path d="M84.48,238.618L86.759,240.348C86.759,240.348 87.422,240.316 88.411,240.285C87.957,240.112 87.583,239.78 87.358,239.352C85.885,235.304 93.194,233.574 93.194,233.574L96.599,233.428L97.262,233.397L97.788,233.397L97.03,233.22L96.504,233.095L94.647,232.662L89.016,233.298L85.059,235.82L84.48,238.618Z" fill="#000000"/>
</g>
<path d="M79.986,240.447C81.365,241.708 90.395,240.447 90.774,240.416C90.088,240.492 89.395,240.444 88.727,240.275C88.396,240.216 88.082,240.085 87.809,239.891C87.536,239.698 87.31,239.446 87.148,239.155C85.674,235.101 92.984,233.376 92.984,233.376L96.388,233.23L97.046,233.199L105.324,232.845L105.724,230.588C105.724,230.588 103.035,230.838 98.814,231.172C96.441,231.365 93.552,231.578 90.431,231.782C81.712,232.355 79.639,237.956 79.639,237.956C79.639,237.956 78.581,239.155 79.986,240.447Z" fill="#252431"/>
<path d="M181.258,142.644C181.314,142.768 181.381,142.887 181.458,142.999L183.468,145.917L188.699,146.438L188.756,144.385L189.635,113.496C189.635,113.496 193.256,92.779 186.415,93.972C179.574,95.166 183.868,113.496 183.868,113.496C183.868,113.496 183.089,122.792 182.542,125.585C182.01,128.284 179.626,139.257 181.258,142.644Z" fill="#FFDCDC"/>
<path d="M169.518,219.365L171.007,221.887L174.338,227.53C174.338,227.53 180.379,229.724 181.926,228.051C182.773,227.139 183.689,223.956 184.331,221.277C184.857,219.11 185.21,217.281 185.21,217.281L169.518,219.365Z" fill="#FFDCDC"/>
<g opacity="0.1">
<path d="M169.518,219.365L171.007,221.887C171.1,221.807 171.185,221.718 171.259,221.621C172.943,219.495 180.358,221.168 184.331,221.303C184.857,219.136 185.21,217.307 185.21,217.307L169.518,219.365Z" fill="#000000"/>
</g>
<g opacity="0.1">
<path d="M93.752,240.171C94.824,240.123 95.897,240.182 96.957,240.348C98.093,240.744 100.114,233.908 100.114,233.908L97.073,233.199L105.35,232.845L105.75,230.588C105.75,230.588 103.061,230.838 98.841,231.172C97.969,231.669 97.191,232.313 96.541,233.074L96.415,233.23C94.652,235.372 93.999,238.133 93.752,240.171Z" fill="#000000"/>
</g>
<g opacity="0.1">
<path d="M158.988,329.73L161.309,331.251C164.771,330.631 167.934,329.657 168.307,328.125C168.309,328.101 168.309,328.076 168.307,328.052C167.571,327.489 167.081,327.062 167.081,327.062L158.988,329.73Z" fill="#000000"/>
</g>
<g opacity="0.1">
<path d="M152.126,332.231C155.184,332.08 158.23,331.757 161.251,331.262C159.447,330.772 157.614,330.394 155.762,330.131C153.515,329.892 152.363,331.788 152.126,332.231Z" fill="#000000"/>
</g>
<path d="M94.005,242.802C94.005,244.464 98.63,245.527 98.63,245.527L112.717,257.944C112.717,257.944 121.568,261.862 127.199,267.505C132.829,273.148 137.797,268.302 137.797,268.302C143.764,266.843 160.951,246.256 160.951,246.256C160.951,246.256 161.351,269.767 162.156,271.491C162.961,273.216 161.887,277.932 161.419,279.927C161.124,281.592 161.011,283.283 161.082,284.971C161.082,284.971 154.647,309.341 155.183,311.467C155.72,313.593 151.695,323.555 151.695,323.555L151.695,331.856C151.695,331.856 167.455,331.257 168.323,327.739C169.191,324.222 164.371,322.69 164.371,322.69L164.371,321.825C167.529,320.231 168.123,309.278 168.123,309.278C168.123,309.278 172.822,295.731 173.491,293.475C174.159,291.218 173.491,287.826 173.491,287.826L173.959,284.909C173.959,284.909 174.964,282.913 174.964,282.517C175.096,281.506 175.489,280.545 176.106,279.729C176.843,278.864 175.301,276.806 175.301,276.806L176.643,273.351L176.643,269.569L179.8,255.823C179.8,255.823 183.089,239.816 181.947,234.569C180.805,229.322 183.289,226.67 183.289,226.67C177.906,229.463 175.19,223.247 174.301,220.574C174.075,219.886 173.964,219.427 173.964,219.427C173.964,219.427 166.571,216.728 159.688,217.374C158.29,217.487 156.912,217.775 155.589,218.234C147.943,220.959 146.738,232.245 146.738,232.245L139.965,242.474C136.476,251.571 131.245,252.499 131.245,252.499C131.245,252.499 118.974,244.334 118.616,243.933C118.258,243.531 113.585,241.541 113.585,241.541C113.033,240.578 112.188,239.812 111.17,239.352C109.56,238.686 109.428,236.226 109.428,236.226C109.228,230.448 105.808,229.973 105.808,229.973C93.936,228.994 94.005,241.145 94.005,242.802Z" fill="#252431"/>
<path d="M169.518,188.091L162.277,188.091L162.277,210.335L169.518,210.335L169.518,188.091Z" transform="rotate(-360 165.897 199.213)" fill="#4353FF"/>
<g opacity="0.1">
<path d="M169.518,188.091L162.277,188.091L162.277,210.335L169.518,210.335L169.518,188.091Z" transform="rotate(-360 165.897 199.213)" fill="#000000"/>
</g>
<g opacity="0.1">
<path d="M181.252,142.598C181.251,142.613 181.251,142.629 181.252,142.645C181.308,142.768 181.375,142.887 181.452,142.999L183.463,145.917L188.693,146.438L188.751,144.385C187.12,144.26 183.405,143.817 181.252,142.598Z" fill="#000000"/>
</g>
<path d="M181.458,142.999C181.458,142.999 181.726,154.681 178.774,156.276C175.822,157.87 174.675,166.176 174.675,166.176C174.675,166.176 183.621,172.001 185.615,174.565C187.609,177.128 192.187,183.235 191.246,184.694C190.304,186.153 193.529,192.796 193.529,192.796C193.529,192.796 187.625,204.749 188.967,209.267C190.309,213.785 190.44,225.732 190.44,225.732L192.993,225.732C192.993,225.732 192.188,215.905 192.188,211.919C192.188,207.933 194.866,193.724 194.866,193.724C194.866,193.724 196.076,179.78 194.866,179.384C193.656,178.988 186.552,173.408 186.015,170.881C185.478,168.354 189.772,144.828 189.772,144.828C189.772,144.828 184.273,144.593 181.458,142.999Z" fill="#4353FF"/>
<g opacity="0.1">
<path d="M162.14,186.028C162.385,187.653 162.983,189.207 163.892,190.582L168.849,189.748C168.849,189.748 183.736,186.424 186.809,186.153C188.671,185.909 190.487,185.397 192.198,184.631C191.018,180.493 188.716,176.753 185.541,173.819L183.652,172.084C180.868,169.525 177.642,167.483 174.127,166.056C174.348,166.238 189.967,179.442 186.546,182.031C183.126,184.621 173.917,178.316 173.917,178.316L163.445,169.406L163.066,169.083L162.461,170.016C162.769,170.141 163.069,170.284 163.361,170.443C166.93,172.383 169.578,175.642 170.728,179.509C172.88,186.674 162.14,186.028 162.14,186.028Z" fill="#000000"/>
</g>
<path d="M158.92,219.229C158.92,219.229 168.844,224.675 171.254,221.621C171.781,220.949 172.891,220.657 174.275,220.579C174.049,219.891 173.938,219.433 173.938,219.433C173.938,219.433 166.545,216.734 159.662,217.38C159.209,218.505 158.92,219.229 158.92,219.229Z" fill="#000000"/>
<path d="M163.487,169.093L174.338,178.337C174.338,178.337 183.51,184.663 186.967,182.052C190.425,179.442 174.543,166.071 174.543,166.071C178.05,167.503 181.273,169.539 184.063,172.084L185.952,173.819C190.919,178.379 192.04,178.379 192.209,185.079C192.251,186.731 191.682,189.102 191.246,189.529C189.635,191.092 188.509,202.446 188.756,203.775C189.004,205.104 185.757,216.572 186.809,219.761C187.862,222.95 173.654,218.166 171.249,221.225C168.844,224.284 158.92,218.833 158.92,218.833C158.92,218.833 164.419,204.885 165.761,203.957C167.102,203.03 168.713,195.855 165.761,192.536C162.808,189.217 162.545,186.028 162.545,186.028C162.545,186.028 173.28,186.684 171.128,179.52C170.523,177.443 169.472,175.52 168.048,173.882C166.624,172.244 164.86,170.928 162.877,170.026L163.487,169.093Z" fill="#DAD0D0"/>
<g opacity="0.1">
<path d="M177.969,192.604C177.969,192.604 173.806,200.372 168.423,202.389C168.25,202.451 168.081,202.509 167.897,202.561C162.277,204.254 178.39,195.011 177.969,192.604Z" fill="#000000"/>
</g>
<path d="M119.758,123.871C119.758,123.871 121.768,128.92 123.378,130.645C124.989,132.37 136.923,149.637 136.923,149.637L137.934,151.722L138.802,153.498L146.448,152.701L146.974,149.648L146.68,149.293C145.911,148.382 143.817,145.933 142.412,144.865C140.67,143.541 137.181,139.159 137.181,139.159C137.181,139.159 126.32,127.998 125.515,124.944C124.71,121.891 113.843,103.581 111.433,106.749C109.023,109.917 119.758,123.871 119.758,123.871Z" fill="#FFDCDC"/>
<g opacity="0.1">
<g opacity="0.1">
<path d="M141.944,206.005C141.026,205.926 140.102,206.058 139.244,206.391C137.35,207.302 136.992,209.767 135.939,211.575C134.708,213.691 132.361,214.998 129.946,215.483C129.466,215.575 128.981,215.641 128.493,215.681C130.032,215.829 131.583,215.763 133.103,215.483C135.518,214.998 137.865,213.691 139.097,211.575C140.149,209.767 140.507,207.302 142.401,206.391C142.899,206.169 143.435,206.045 143.98,206.026L141.944,206.005Z" fill="#000000"/>
</g>
<g opacity="0.1">
<path d="M160.635,166.035C160.635,161.892 163.356,158.323 165.597,154.827C167.839,151.331 169.723,146.917 167.95,143.166C166.434,139.961 157.299,135.662 152.026,136.512C157.188,137.173 163.55,140.539 164.792,143.166C166.566,146.917 164.682,151.331 162.44,154.827C160.198,158.323 157.467,161.892 157.478,166.035C157.478,171.381 157.115,175.414 155.631,180.577C155.204,182.062 159.314,184.308 158.683,185.715C156.546,190.405 157.546,195.813 157.204,200.94C157.197,201.942 156.95,202.928 156.483,203.817C155.431,205.531 153.273,205.974 151.174,206.068L153.01,206.068C155.462,206.068 158.372,205.88 159.641,203.801C160.107,202.912 160.354,201.926 160.361,200.925C160.704,195.798 159.704,190.384 161.84,185.699C162.482,184.293 158.362,182.052 158.788,180.562C160.272,175.435 160.646,171.381 160.635,166.035Z" fill="#000000"/>
</g>
</g>
<g opacity="0.1">
<path d="M137.934,151.711L138.802,153.488L146.448,152.69L146.974,149.637L146.68,149.283C145.864,149.679 139.754,152.591 137.934,151.711Z" fill="#000000"/>
</g>
<g opacity="0.1">
<path d="M166.166,171.683C166.166,171.683 164.287,168.765 163.214,169.557C162.14,170.349 161.724,167.166 161.109,167.697C160.493,168.229 158.699,169.708 157.951,167.64C157.367,165.993 151.011,155.577 148.432,151.388C147.769,150.304 147.353,149.637 147.353,149.637C147.353,149.637 140.112,153.222 138.371,152.029L138.371,154.551L139.844,154.686L147.737,169.276C147.737,169.276 150.221,173.189 150.053,174.554C149.884,175.919 153.236,181.896 153.773,182.292C154.31,182.688 160.088,189.331 160.088,189.331C160.088,189.331 163.04,203.676 160.488,207.662C157.936,211.648 153.515,214.566 153.515,214.566C153.515,214.566 152.184,218.417 152.379,218.818C152.573,219.219 150.832,220.944 151.637,221.475C152.442,222.007 153.515,225.722 153.515,225.722C153.515,225.722 157.273,219.745 159.304,218.818C161.335,217.89 163.935,205.666 163.935,205.666C163.935,205.666 164.677,198.465 164.734,193.818C164.792,189.17 164.555,171.683 166.166,171.683Z" fill="#000000"/>
</g>
<path d="M165.761,171.683C165.761,171.683 163.887,168.765 162.814,169.557C161.74,170.349 161.319,167.166 160.709,167.697C160.098,168.228 158.304,169.708 157.551,167.64C156.962,165.993 150.605,155.577 148.032,151.388L146.953,149.637C146.953,149.637 139.712,153.222 137.965,152.029L137.965,154.551L139.444,154.686L147.337,169.276C147.337,169.276 149.826,173.189 149.653,174.554C149.479,175.919 152.81,181.896 153.373,182.292C153.936,182.688 159.688,189.331 159.688,189.331C159.688,189.331 162.64,203.676 160.093,207.662C158.748,209.664 157.111,211.459 155.236,212.987C153.661,214.274 152.553,216.033 152.079,218C151.987,218.268 151.955,218.552 151.984,218.833C152.179,219.229 150.437,220.959 151.242,221.491C152.047,222.022 153.131,225.753 153.131,225.753C153.131,225.753 156.888,219.777 158.92,218.849C160.951,217.922 163.556,205.698 163.556,205.698C163.556,205.698 164.292,198.497 164.356,193.849C164.419,189.201 164.182,171.683 165.761,171.683Z" fill="#4353FF"/>
<g opacity="0.1">
<path d="M147.385,232.115C147.385,232.115 153.021,233.157 155.278,234.767C157.536,236.377 146.695,232.245 146.695,232.245L147.385,232.115Z" fill="#000000"/>
</g>
<g opacity="0.1">
<path d="M160.935,246.257C160.935,246.257 166.813,251.108 165.76,255.49C164.708,259.872 161.993,270.898 161.993,270.898L160.935,246.257Z" fill="#000000"/>
</g>
<g opacity="0.1">
<path d="M109.528,236.93C109.528,236.93 101.246,237.826 101.782,238.889C102.319,239.952 109.528,237.909 109.528,237.909L109.528,236.93Z" fill="#000000"/>
</g>
<g opacity="0.1">
<path d="M173.128,277.27C173.128,277.27 173.654,277.932 170.581,277.27C167.508,276.608 169.776,274.566 169.776,274.566L173.128,277.27Z" fill="#000000"/>
</g>
<g opacity="0.1">
<path d="M172.075,286.435C172.075,286.435 167.865,287.097 165.608,286.435C163.35,285.773 172.075,286.435 172.075,286.435Z" fill="#000000"/>
</g>
<g opacity="0.1">
<path d="M163.413,322.295C163.413,322.295 162.677,321.497 158.988,322.956C155.299,324.415 153.826,324.483 152.752,323.998C151.679,323.514 163.413,322.295 163.413,322.295Z" fill="#000000"/>
</g>
<g opacity="0.1">
<path d="M167.508,235.799L162.277,243.006C162.277,243.006 165.092,236.696 167.508,235.799Z" fill="#000000"/>
</g>
<g opacity="0.1">
<path d="M157.341,169.557C157.341,169.557 157.115,171.949 153.742,172.881C150.368,173.814 149.726,174.57 149.726,174.57Z" fill="#000000"/>
</g>
<g opacity="0.1">
<path d="M148.574,152.222C148.574,152.222 144.122,155.348 139.476,154.686Z" fill="#000000"/>
</g>
<g opacity="0.1">
<path d="M151.963,219.162C151.963,219.162 153.263,219.969 156.383,216.437Z" fill="#000000"/>
</g>
<g opacity="0.1">
<path d="M184.373,181.703C184.499,181.057 184.047,180.458 183.62,179.952L182.747,178.91C182.576,178.697 182.384,178.501 182.173,178.326C181.647,177.925 180.974,177.805 180.426,177.446Z" fill="#000000"/>
</g>
<g opacity="0.1">
<path d="M466.913,0.058C466.913,0.058 422.61,-2.589 427.82,28.153C427.82,28.153 426.767,33.588 431.756,36.052C431.756,36.052 431.835,33.775 436.303,34.551C437.893,34.813 439.509,34.89 441.118,34.781C443.291,34.632 445.356,33.787 447.001,32.373L447.001,32.373C447.001,32.373 459.457,27.278 464.298,7.123C464.298,7.123 467.881,2.725 467.739,1.595L460.262,4.758C460.262,4.758 462.819,10.098 460.788,14.538C460.788,14.538 460.546,4.95 459.109,5.159C458.82,5.206 455.226,7.009 455.226,7.009C455.226,7.009 459.62,16.309 456.304,23.073C456.304,23.073 457.562,11.609 453.852,7.681L448.59,10.724C448.59,10.724 453.726,20.332 450.242,28.174C450.242,28.174 451.137,16.148 447.48,11.464L442.712,15.147C442.712,15.147 447.538,24.62 444.596,31.123C444.596,31.123 444.212,17.122 441.681,16.064C441.681,16.064 437.508,19.712 436.871,21.202C436.871,21.202 440.176,28.08 438.123,31.707C438.123,31.707 436.866,22.38 435.834,22.327C435.834,22.327 431.677,28.507 431.246,32.749C431.246,32.749 431.425,26.449 434.829,21.744C434.829,21.744 430.809,22.426 428.462,25.006C428.462,25.006 429.109,20.639 435.855,20.259C435.855,20.259 439.292,15.569 440.207,15.283C440.207,15.283 433.503,14.731 429.435,16.513C429.435,16.513 433.014,12.391 441.439,14.267L446.148,10.458C446.148,10.458 437.318,9.265 433.571,10.583C433.571,10.583 437.881,6.936 447.417,9.593L452.542,6.56C452.542,6.56 445.012,4.956 440.528,5.518C440.528,5.518 445.264,2.991 454.047,5.732L457.731,4.101C457.731,4.101 452.216,3.028 450.6,2.856C448.985,2.684 448.9,2.246 448.9,2.246C452.394,1.669 455.981,2.064 459.262,3.387C459.262,3.387 467.05,0.542 466.913,0.058Z" fill="#4C6ED7"/>
</g>
<g opacity="0.1">
<path d="M412.27,7.878C412.27,7.878 392.274,6.68 394.615,20.571C394.615,20.571 394.147,23.031 396.389,24.146C396.389,24.146 396.425,23.104 398.446,23.463C399.164,23.583 399.893,23.618 400.619,23.567C401.602,23.501 402.535,23.119 403.277,22.478L403.277,22.478C403.277,22.478 408.907,20.181 411.097,11.073C411.097,11.073 412.712,9.082 412.649,8.571L409.271,9.999C409.271,9.999 410.428,12.417 409.518,14.423C409.518,14.423 409.407,10.088 408.76,10.192C408.629,10.192 407.003,11.026 407.003,11.026C407.003,11.026 408.992,15.231 407.492,18.289C407.492,18.289 408.06,13.11 406.382,11.333L404.003,12.709C404.003,12.709 406.329,17.049 404.75,20.592C404.75,20.592 405.156,15.158 403.503,13.042L401.351,14.725C401.351,14.725 403.529,19.008 402.203,21.942C402.203,21.942 402.03,15.616 400.883,15.142C400.883,15.142 398.999,16.789 398.709,17.466C398.709,17.466 400.204,20.592 399.278,22.208C399.278,22.208 398.709,17.992 398.225,17.977C398.225,17.977 396.352,20.769 396.152,22.666C396.246,20.896 396.804,19.181 397.773,17.69C396.689,17.893 395.688,18.406 394.894,19.165C394.894,19.165 395.189,17.195 398.236,17.018C398.236,17.018 399.814,14.902 400.204,14.772C400.204,14.772 397.173,14.522 395.336,15.33C395.336,15.33 396.952,13.464 400.762,14.287L402.866,12.568C402.866,12.568 398.878,12.047 397.183,12.625C397.183,12.625 399.13,10.979 403.44,12.177L405.755,10.807C405.755,10.807 402.356,10.077 400.325,10.343C400.325,10.343 402.467,9.197 406.434,10.437L408.092,9.702C408.092,9.702 405.598,9.212 404.866,9.139C404.135,9.066 404.098,8.863 404.098,8.863C405.678,8.603 407.299,8.783 408.781,9.384C408.781,9.384 412.333,8.097 412.27,7.878Z" fill="#4C6ED7"/>
</g>
<path d="M482.121,339.083C493.807,339.083 503.28,337.497 503.28,335.54C503.28,333.583 493.807,331.997 482.121,331.997C470.435,331.997 460.961,333.583 460.961,335.54C460.961,337.497 470.435,339.083 482.121,339.083Z" fill="#27AE60"/>
<path d="M490.872,329.746C491.838,328.966 492.541,327.914 492.888,326.729C493.151,325.535 492.635,324.123 491.477,323.66C490.183,323.17 488.799,324.061 487.752,324.957C486.704,325.853 485.499,326.88 484.131,326.687C484.836,326.053 485.364,325.249 485.662,324.353C485.961,323.458 486.021,322.501 485.836,321.575C485.776,321.192 485.613,320.832 485.363,320.533C484.642,319.773 483.342,320.096 482.479,320.695C479.742,322.602 478.979,326.286 478.964,329.594C478.69,328.401 478.922,327.156 478.916,325.947C478.911,324.738 478.569,323.342 477.522,322.701C476.876,322.357 476.15,322.188 475.417,322.211C474.191,322.164 472.817,322.289 471.981,323.18C470.928,324.285 471.207,326.14 472.112,327.349C473.017,328.557 474.401,329.334 475.675,330.173C476.693,330.774 477.562,331.595 478.216,332.575C478.295,332.712 478.359,332.857 478.406,333.007L486.12,333.007C487.846,332.137 489.444,331.04 490.872,329.746L490.872,329.746Z" fill="#36D66F"/>
<defs>
<linearGradient id="pf_0_93_83" x1="425.457" y1="263.097" x2="425.457" y2="53.476" gradientUnits="userSpaceOnUse">
<stop stop-color="#808080" stop-opacity="0.25"/>
<stop offset="0.54" stop-color="#808080" stop-opacity="0.12"/>
<stop offset="1" stop-color="#808080" stop-opacity="0.1"/>
</linearGradient>
<linearGradient id="pf_0_93_130" x1="20970.76" y1="130568.856" x2="46961.767" y2="130568.856" gradientUnits="userSpaceOnUse">
<stop stop-color="#808080" stop-opacity="0.25"/>
<stop offset="0.54" stop-color="#808080" stop-opacity="0.12"/>
<stop offset="1" stop-color="#808080" stop-opacity="0.1"/>
</linearGradient>
</defs>
</svg>
