<svg width="28" height="24" viewBox="0 0 28 24" fill="none" xmlns="http://www.w3.org/2000/svg" xmlns:xlink="http://www.w3.org/1999/xlink">
<path d="M25.667,10.287L5.9,10.287L11.95,2.813C12.233,2.463 12.369,2.012 12.328,1.559C12.288,1.105 12.074,0.687 11.733,0.396C11.393,0.105 10.954,-0.035 10.513,0.007C10.073,0.049 9.666,0.269 9.383,0.619L1.05,10.904C0.994,10.986 0.944,11.072 0.9,11.161C0.9,11.247 0.9,11.298 0.783,11.384C0.708,11.581 0.668,11.79 0.667,12.001C0.668,12.212 0.708,12.422 0.783,12.618C0.783,12.704 0.783,12.755 0.9,12.841C0.944,12.93 0.994,13.016 1.05,13.098L9.383,23.383C9.54,23.576 9.736,23.732 9.958,23.839C10.18,23.945 10.422,24 10.667,24C11.056,24.001 11.433,23.861 11.733,23.606C11.902,23.462 12.042,23.285 12.144,23.086C12.246,22.886 12.309,22.668 12.329,22.444C12.349,22.219 12.326,21.993 12.261,21.777C12.196,21.562 12.09,21.362 11.95,21.189L5.9,13.715L25.667,13.715C26.109,13.715 26.533,13.535 26.845,13.213C27.158,12.892 27.333,12.456 27.333,12.001C27.333,11.546 27.158,11.11 26.845,10.789C26.533,10.468 26.109,10.287 25.667,10.287Z" fill="#181818"/>
</svg>
