<svg width="18" height="30" viewBox="0 0 18 30" fill="none" xmlns="http://www.w3.org/2000/svg" xmlns:xlink="http://www.w3.org/1999/xlink">
<path d="M14.667,-0.667L4,-0.667C3.116,-0.667 2.268,-0.315 1.643,0.31C1.018,0.935 0.667,1.783 0.667,2.667L0.667,25.333C0.667,26.217 1.018,27.065 1.643,27.69C2.268,28.316 3.116,28.667 4,28.667L14.667,28.667C15.551,28.667 16.399,28.316 17.024,27.69C17.649,27.065 18,26.217 18,25.333L18,2.667C18,1.783 17.649,0.935 17.024,0.31C16.399,-0.315 15.551,-0.667 14.667,-0.667L14.667,-0.667ZM9.333,27.333C8.227,27.333 7.333,26.44 7.333,25.333C7.333,24.227 8.227,23.333 9.333,23.333C10.44,23.333 11.333,24.227 11.333,25.333C11.333,26.44 10.44,27.333 9.333,27.333ZM15.333,22L3.333,22L3.333,3.333L15.333,3.333L15.333,22Z" fill="#4C6ED7"/>
</svg>
