<svg width="26" height="26" viewBox="0 0 26 26" fill="none" xmlns="http://www.w3.org/2000/svg" xmlns:xlink="http://www.w3.org/1999/xlink">
<path d="M14.82,12L23.42,3.42C23.796,3.043 24.008,2.533 24.008,2C24.008,1.467 23.796,0.957 23.42,0.58C23.043,0.203 22.532,-0.008 22,-0.008C21.467,-0.008 20.956,0.203 20.58,0.58L12,9.18L3.42,0.58C3.043,0.203 2.532,-0.008 2,-0.008C1.467,-0.008 0.956,0.203 0.58,0.58C0.203,0.957 -0.008,1.467 -0.008,2C-0.008,2.533 0.203,3.043 0.58,3.42L9.18,12L0.58,20.58C0.392,20.766 0.244,20.987 0.142,21.231C0.041,21.475 -0.012,21.736 -0.012,22C-0.012,22.264 0.041,22.525 0.142,22.769C0.244,23.013 0.392,23.234 0.58,23.42C0.766,23.607 0.987,23.756 1.231,23.858C1.474,23.959 1.736,24.012 2,24.012C2.264,24.012 2.525,23.959 2.769,23.858C3.013,23.756 3.234,23.607 3.42,23.42L12,14.82L20.58,23.42C20.766,23.607 20.987,23.756 21.231,23.858C21.474,23.959 21.736,24.012 22,24.012C22.264,24.012 22.525,23.959 22.769,23.858C23.013,23.756 23.234,23.607 23.42,23.42C23.607,23.234 23.756,23.013 23.858,22.769C23.959,22.525 24.011,22.264 24.011,22C24.011,21.736 23.959,21.475 23.858,21.231C23.756,20.987 23.607,20.766 23.42,20.58L14.82,12Z" fill="#181818"/>
</svg>
