<svg width="14" height="20" viewBox="0 0 14 20" fill="none" xmlns="http://www.w3.org/2000/svg" xmlns:xlink="http://www.w3.org/1999/xlink">
<path d="M3,20C2.737,20.002 2.476,19.951 2.232,19.852C1.989,19.752 1.767,19.606 1.58,19.42C1.393,19.234 1.244,19.013 1.142,18.77C1.041,18.526 0.988,18.264 0.988,18C0.988,17.736 1.041,17.475 1.142,17.231C1.244,16.987 1.393,16.766 1.58,16.58L8.2,10L1.84,3.38C1.467,3.006 1.258,2.499 1.258,1.97C1.258,1.442 1.467,0.935 1.84,0.56C2.026,0.373 2.247,0.224 2.491,0.123C2.735,0.021 2.996,-0.031 3.26,-0.031C3.524,-0.031 3.785,0.021 4.029,0.123C4.273,0.224 4.494,0.373 4.68,0.56L12.4,8.56C12.766,8.934 12.972,9.437 12.972,9.96C12.972,10.484 12.766,10.986 12.4,11.36L4.4,19.36C4.22,19.554 4.004,19.711 3.764,19.82C3.524,19.93 3.264,19.991 3,20L3,20Z" fill="#4F4F4F"/>
</svg>
