<svg width="42" height="42" viewBox="0 0 42 42" fill="none" xmlns="http://www.w3.org/2000/svg" xmlns:xlink="http://www.w3.org/1999/xlink">
<path d="M20,-1C8.403,-1 -1,8.403 -1,20C-1,31.597 8.403,41 20,41C31.597,41 41,31.597 41,20C41,8.403 31.597,-1 20,-1ZM26.755,20.323L16.517,27.772C16.461,27.812 16.395,27.836 16.326,27.841C16.257,27.847 16.188,27.833 16.127,27.801C16.065,27.77 16.013,27.722 15.977,27.663C15.941,27.604 15.922,27.536 15.922,27.467L15.922,12.58C15.922,12.51 15.941,12.442 15.977,12.383C16.013,12.324 16.064,12.276 16.126,12.245C16.188,12.213 16.257,12.199 16.326,12.205C16.395,12.21 16.461,12.234 16.517,12.275L26.755,19.719C26.803,19.753 26.843,19.798 26.87,19.851C26.897,19.903 26.911,19.962 26.911,20.021C26.911,20.08 26.897,20.139 26.87,20.191C26.843,20.244 26.803,20.289 26.755,20.323L26.755,20.323Z" fill="#4C6ED7"/>
</svg>
