<svg width="28" height="22" viewBox="0 0 28 22" fill="none" xmlns="http://www.w3.org/2000/svg" xmlns:xlink="http://www.w3.org/1999/xlink">
<path d="M24.5,-1L3.5,-1C2.572,-0.999 1.682,-0.63 1.026,0.026C0.37,0.682 0.001,1.572 0,2.5L0,17.5C0.001,18.428 0.37,19.318 1.026,19.974C1.682,20.63 2.572,20.999 3.5,21L24.5,21C25.428,20.999 26.318,20.63 26.974,19.974C27.63,19.318 27.999,18.428 28,17.5L28,2.5C27.999,1.572 27.63,0.682 26.974,0.026C26.318,-0.63 25.428,-0.999 24.5,-1L24.5,-1ZM23.614,4.789L14.614,11.789C14.438,11.926 14.222,12 14,12C13.778,12 13.562,11.926 13.386,11.789L4.386,4.789C4.28,4.71 4.192,4.609 4.125,4.495C4.058,4.381 4.015,4.254 3.998,4.123C3.98,3.991 3.989,3.858 4.024,3.73C4.058,3.602 4.118,3.482 4.199,3.378C4.281,3.273 4.382,3.186 4.497,3.12C4.613,3.055 4.74,3.014 4.872,2.998C5.003,2.983 5.137,2.993 5.264,3.03C5.391,3.066 5.51,3.128 5.614,3.211L14,9.733L22.386,3.211C22.596,3.052 22.86,2.983 23.12,3.017C23.381,3.052 23.617,3.187 23.778,3.395C23.94,3.602 24.013,3.865 23.982,4.126C23.951,4.387 23.819,4.625 23.614,4.789Z" fill="#4C6ED7"/>
</svg>
