<svg width="20" height="28" viewBox="0 0 20 28" fill="none" xmlns="http://www.w3.org/2000/svg" xmlns:xlink="http://www.w3.org/1999/xlink">
<path d="M18.5,5.667L2.555,5.667C2.343,5.664 2.133,5.618 1.938,5.531C1.744,5.445 1.569,5.32 1.424,5.165C1.28,5.009 1.168,4.825 1.096,4.625C1.024,4.425 0.993,4.212 1.006,4C1.005,3.578 1.164,3.17 1.452,2.861C1.739,2.552 2.134,2.363 2.555,2.333L18.5,2.333C18.721,2.333 18.933,2.246 19.089,2.089C19.246,1.933 19.333,1.721 19.333,1.5C19.333,1.279 19.246,1.067 19.089,0.911C18.933,0.755 18.721,0.667 18.5,0.667L2.555,0.667C1.692,0.697 0.874,1.061 0.274,1.683C-0.326,2.305 -0.661,3.136 -0.661,4C-0.669,4.136 -0.669,4.272 -0.661,4.408C-0.669,4.475 -0.669,4.542 -0.661,4.608L-0.661,24C-0.661,24.864 -0.326,25.695 0.274,26.317C0.874,26.939 1.692,27.303 2.555,27.333L18.5,27.333C18.721,27.333 18.933,27.246 19.089,27.089C19.246,26.933 19.333,26.721 19.333,26.5L19.333,6.708L19.333,6.633L19.333,6.558C19.334,6.332 19.248,6.113 19.093,5.948C18.938,5.782 18.726,5.682 18.5,5.667L18.5,5.667ZM17.667,25.667L2.555,25.667C2.134,25.637 1.739,25.449 1.452,25.139C1.164,24.83 1.005,24.423 1.006,24L1.006,6.958C1.479,7.22 2.014,7.349 2.555,7.333L17.667,7.333L17.667,25.667Z" fill="#4C6ED7"/>
</svg>
