<svg width="40" height="40" viewBox="0 0 40 40" fill="none" xmlns="http://www.w3.org/2000/svg" xmlns:xlink="http://www.w3.org/1999/xlink">
<path d="M20,0C8.96,0 0,8.96 0,20C0,31.04 8.96,40 20,40C31.04,40 40,31.04 40,20C40,8.96 31.04,0 20,0ZM20,6C23.32,6 26,8.68 26,12C26,15.32 23.32,18 20,18C16.68,18 14,15.32 14,12C14,8.68 16.68,6 20,6ZM20,34.4C17.624,34.4 15.284,33.812 13.191,32.688C11.097,31.565 9.314,29.94 8,27.96C8.06,23.98 16,21.8 20,21.8C23.98,21.8 31.94,23.98 32,27.96C30.686,29.94 28.903,31.565 26.809,32.688C24.716,33.812 22.376,34.4 20,34.4Z" fill="#4C6ED7"/>
</svg>
