<svg width="32" height="24" viewBox="0 0 32 24" fill="none" xmlns="http://www.w3.org/2000/svg" xmlns:xlink="http://www.w3.org/1999/xlink">
<path d="M30,24C30,24 32,24 32,22C32,20 30,14 22,14C14,14 12,20 12,22C12,24 14,24 14,24L30,24ZM14.01,22.112L14.01,22.108L14.01,22.112ZM14.044,22L29.956,22C29.965,21.999 29.975,21.998 29.984,21.996L30,21.992C29.996,21.464 29.666,19.932 28.48,18.552C27.376,17.258 25.436,16 22,16C18.566,16 16.626,17.26 15.52,18.552C14.334,19.932 14.002,21.466 14,21.992C14.015,21.995 14.029,21.997 14.044,22L14.044,22ZM29.99,22.112L29.99,22.108L29.99,22.112ZM22,10C23.061,10 24.078,9.579 24.828,8.828C25.579,8.078 26,7.061 26,6C26,4.939 25.579,3.922 24.828,3.172C24.078,2.421 23.061,2 22,2C20.939,2 19.922,2.421 19.172,3.172C18.421,3.922 18,4.939 18,6C18,7.061 18.421,8.078 19.172,8.828C19.922,9.579 20.939,10 22,10ZM28,6C28,6.788 27.845,7.568 27.543,8.296C27.242,9.024 26.8,9.685 26.243,10.243C25.685,10.8 25.024,11.242 24.296,11.543C23.568,11.845 22.788,12 22,12C21.212,12 20.432,11.845 19.704,11.543C18.976,11.242 18.315,10.8 17.757,10.243C17.2,9.685 16.758,9.024 16.457,8.296C16.155,7.568 16,6.788 16,6C16,4.409 16.632,2.883 17.757,1.757C18.883,0.632 20.409,0 22,0C23.591,0 25.117,0.632 26.243,1.757C27.368,2.883 28,4.409 28,6L28,6ZM13.872,14.56C13.072,14.308 12.247,14.142 11.412,14.066C10.943,14.021 10.471,13.999 10,14C2,14 0,20 0,22C0,23.334 0.666,24 2,24L10.432,24C10.136,23.376 9.988,22.691 10,22C10,19.98 10.754,17.916 12.18,16.192C12.666,15.604 13.232,15.054 13.872,14.56ZM9.84,16C6.504,16.04 4.61,17.28 3.52,18.552C2.326,19.94 2,21.478 2,22L8,22C8,19.91 8.646,17.828 9.84,16ZM3,7C3,5.409 3.632,3.883 4.757,2.757C5.883,1.632 7.409,1 9,1C10.591,1 12.117,1.632 13.243,2.757C14.368,3.883 15,5.409 15,7C15,8.591 14.368,10.117 13.243,11.243C12.117,12.368 10.591,13 9,13C7.409,13 5.883,12.368 4.757,11.243C3.632,10.117 3,8.591 3,7L3,7ZM9,3C7.939,3 6.922,3.421 6.172,4.172C5.421,4.922 5,5.939 5,7C5,8.061 5.421,9.078 6.172,9.828C6.922,10.579 7.939,11 9,11C10.061,11 11.078,10.579 11.828,9.828C12.579,9.078 13,8.061 13,7C13,5.939 12.579,4.922 11.828,4.172C11.078,3.421 10.061,3 9,3Z" clip-rule="evenodd" fill-rule="evenodd" fill="#4C6ED7"/>
</svg>
