<svg width="24" height="30" viewBox="0 0 24 30" fill="none" xmlns="http://www.w3.org/2000/svg" xmlns:xlink="http://www.w3.org/1999/xlink">
<path d="M1.587,3.96C0.627,4.386 0,5.346 0,6.4L0,12.666C0,20.066 5.12,26.986 12,28.666C18.88,26.986 24,20.066 24,12.666L24,6.4C24,5.346 23.373,4.386 22.413,3.96L13.08,-0.187C12.387,-0.494 11.6,-0.494 10.92,-0.187L1.587,3.96L1.587,3.96ZM12,7.333C12.733,7.333 13.333,7.933 13.333,8.666C13.333,9.4 12.733,10 12,10C11.267,10 10.667,9.4 10.667,8.666C10.667,7.933 11.267,7.333 12,7.333ZM12,12.666C12.733,12.666 13.333,13.266 13.333,14L13.333,19.333C13.333,20.066 12.733,20.666 12,20.666C11.267,20.666 10.667,20.066 10.667,19.333L10.667,14C10.667,13.266 11.267,12.666 12,12.666Z" fill="#4C6ED7"/>
</svg>
