<svg width="20" height="10" viewBox="0 0 20 10" fill="none" xmlns="http://www.w3.org/2000/svg" xmlns:xlink="http://www.w3.org/1999/xlink">
<path d="M7.606,7.041C7.08,6.963 6.596,6.846 6.166,6.684C5.733,6.521 5.408,6.331 5.182,6.123C3.749,4.806 6.282,2.786 10.331,2.455C11.517,1.358 9.763,0.492 6.865,0.823C5.246,1.008 3.072,1.378 1.248,2.664C0.759,3.065 0.386,3.498 0.158,3.953C-0.445,5.166 0.104,6.298 1.475,7.132C1.869,7.372 2.331,7.588 2.854,7.773C4.03,8.192 5.509,8.459 7.202,8.517C12.263,8.69 17.313,6.928 18.484,4.58C18.545,4.455 18.596,4.331 18.634,4.208C17.068,6.137 11.339,7.594 7.606,7.041Z" clip-rule="evenodd" fill-rule="evenodd" fill="#4C6ED7"/>
</svg>
