<svg width="32" height="30" viewBox="0 0 32 30" fill="none" xmlns="http://www.w3.org/2000/svg" xmlns:xlink="http://www.w3.org/1999/xlink">
<path d="M16,0.783C13.818,0.783 12.114,1.551 10.887,3.087C9.66,4.623 9.046,6.587 9.046,8.978C9.031,11.949 10.031,14.304 12.046,16.044C12.303,16.275 12.394,16.573 12.319,16.935L11.796,17.978C11.629,18.326 11.383,18.598 11.057,18.794C10.732,18.989 10.046,19.268 9.001,19.631C8.956,19.645 7.997,19.942 6.126,20.522C4.255,21.102 3.259,21.42 3.138,21.478C1.866,21.986 1.032,22.515 0.639,23.065C0.214,23.978 0.002,26.29 0.002,30L31.998,30C31.998,26.29 31.785,23.978 31.361,23.065C30.967,22.515 30.134,21.986 28.862,21.478C28.74,21.42 27.744,21.102 25.873,20.522C24.003,19.942 23.044,19.645 22.999,19.631C21.954,19.268 21.268,18.989 20.942,18.794C20.617,18.598 20.371,18.326 20.204,17.978L19.681,16.935C19.605,16.573 19.696,16.275 19.954,16.044C21.969,14.304 22.969,11.949 22.953,8.978C22.953,6.587 22.34,4.623 21.113,3.087C19.886,1.551 18.181,0.783 16,0.783Z" fill="#4C6ED7"/>
</svg>
