<svg width="28" height="22" viewBox="0 0 28 22" fill="none" xmlns="http://www.w3.org/2000/svg" xmlns:xlink="http://www.w3.org/1999/xlink">
<path d="M24.667,-0.667L3.333,-0.667C1.863,-0.667 0.667,0.529 0.667,2L0.667,18C0.667,19.47 1.863,20.666 3.333,20.666L24.667,20.666C26.137,20.666 27.333,19.47 27.333,18L27.333,2C27.333,0.529 26.137,-0.667 24.667,-0.667ZM4.667,5.333C4.667,5.156 4.737,4.987 4.862,4.862C4.987,4.737 5.157,4.666 5.333,4.666L9.333,4.666C9.51,4.666 9.68,4.737 9.805,4.862C9.93,4.987 10,5.156 10,5.333L10,8C10,8.176 9.93,8.346 9.805,8.471C9.68,8.596 9.51,8.666 9.333,8.666L5.333,8.666C5.157,8.666 4.987,8.596 4.862,8.471C4.737,8.346 4.667,8.176 4.667,8L4.667,5.333ZM12.667,15.333L4.667,15.333L4.667,12.666L12.667,12.666L12.667,15.333ZM23.333,15.333L15.333,15.333L15.333,12.666L23.333,12.666L23.333,15.333Z" fill="#4C6ED7"/>
</svg>
