<svg width="40" height="42" viewBox="0 0 40 42" fill="none" xmlns="http://www.w3.org/2000/svg" xmlns:xlink="http://www.w3.org/1999/xlink">
<path d="M26,40.13L26,30.13C26,28.539 25.368,27.013 24.243,25.887C23.117,24.762 21.591,24.13 20,24.13C18.409,24.13 16.883,24.762 15.757,25.887C14.632,27.013 14,28.539 14,30.13L14,40.13L4,40.13C2.939,40.13 1.922,39.709 1.172,38.958C0.421,38.208 0,37.191 0,36.13L0,14.394C0,13.703 0.179,13.024 0.519,12.423C0.86,11.822 1.35,11.319 1.942,10.964L17.942,1.364C18.564,0.991 19.275,0.794 20,0.794C20.725,0.794 21.436,0.991 22.058,1.364L38.058,10.964C38.65,11.319 39.14,11.822 39.481,12.423C39.821,13.024 40,13.703 40,14.394L40,36.13C40,37.191 39.579,38.208 38.828,38.958C38.078,39.709 37.061,40.13 36,40.13L26,40.13L26,40.13Z" fill="#4C6ED7"/>
</svg>
