<svg width="38" height="38" viewBox="0 0 38 38" fill="none" xmlns="http://www.w3.org/2000/svg" xmlns:xlink="http://www.w3.org/1999/xlink">
<path d="M36.637,34.055L24.464,21.881C26.353,19.439 27.375,16.453 27.375,13.313C27.375,9.553 25.908,6.028 23.255,3.37C20.602,0.713 17.067,-0.75 13.313,-0.75C9.558,-0.75 6.023,0.717 3.37,3.37C0.712,6.023 -0.75,9.553 -0.75,13.313C-0.75,17.067 0.717,20.602 3.37,23.255C6.023,25.912 9.553,27.375 13.313,27.375C16.453,27.375 19.434,26.353 21.877,24.469L34.05,36.637C34.086,36.673 34.128,36.702 34.175,36.721C34.221,36.74 34.271,36.75 34.322,36.75C34.372,36.75 34.422,36.74 34.469,36.721C34.516,36.702 34.558,36.673 34.594,36.637L36.637,34.598C36.673,34.563 36.702,34.52 36.721,34.474C36.74,34.427 36.75,34.377 36.75,34.327C36.75,34.276 36.74,34.226 36.721,34.179C36.702,34.133 36.673,34.09 36.637,34.055ZM20.738,20.738C18.75,22.72 16.116,23.812 13.313,23.812C10.509,23.812 7.875,22.72 5.888,20.738C3.905,18.75 2.813,16.116 2.813,13.313C2.813,10.509 3.905,7.87 5.888,5.888C7.875,3.905 10.509,2.813 13.313,2.813C16.116,2.813 18.755,3.9 20.738,5.888C22.72,7.875 23.812,10.509 23.812,13.313C23.812,16.116 22.72,18.755 20.738,20.738Z" fill="#4F4F4F"/>
</svg>
