<svg width="30" height="40" viewBox="0 0 30 40" fill="none" xmlns="http://www.w3.org/2000/svg" xmlns:xlink="http://www.w3.org/1999/xlink">
<path d="M28.75,7.5L4.833,7.5C4.514,7.495 4.199,7.426 3.908,7.297C3.616,7.167 3.354,6.98 3.137,6.747C2.919,6.513 2.752,6.238 2.644,5.938C2.536,5.637 2.49,5.318 2.508,5C2.507,4.366 2.746,3.755 3.177,3.291C3.609,2.827 4.201,2.544 4.833,2.5L28.75,2.5C29.082,2.5 29.4,2.368 29.634,2.134C29.868,1.899 30,1.582 30,1.25C30,0.918 29.868,0.601 29.634,0.366C29.4,0.132 29.082,0 28.75,0L4.833,0C3.537,0.045 2.311,0.592 1.411,1.525C0.511,2.458 0.008,3.704 0.009,5C-0.003,5.204 -0.003,5.409 0.009,5.613C-0.003,5.712 -0.003,5.813 0.009,5.913L0.009,35C0.008,36.296 0.511,37.542 1.411,38.475C2.311,39.408 3.537,39.955 4.833,40L28.75,40C29.082,40 29.4,39.868 29.634,39.634C29.868,39.399 30,39.082 30,38.75L30,9.063L30,8.95L30,8.837C30.001,8.497 29.872,8.17 29.64,7.921C29.408,7.673 29.09,7.522 28.75,7.5L28.75,7.5ZM27.501,37.5L4.833,37.5C4.201,37.456 3.609,37.173 3.177,36.709C2.746,36.245 2.507,35.634 2.508,35L2.508,9.438C3.219,9.83 4.021,10.024 4.833,10L27.501,10L27.501,37.5Z" fill="#4F4F4F"/>
</svg>
