<svg width="40" height="36" viewBox="0 0 40 36" fill="none" xmlns="http://www.w3.org/2000/svg" xmlns:xlink="http://www.w3.org/1999/xlink">
<path d="M37.5,15.43L7.85,15.43L16.925,4.22C17.349,3.695 17.553,3.018 17.493,2.338C17.432,1.658 17.111,1.031 16.6,0.595C16.089,0.158 15.431,-0.052 14.77,0.011C14.109,0.074 13.499,0.404 13.075,0.929L0.575,16.356C0.491,16.479 0.416,16.608 0.35,16.742C0.35,16.87 0.35,16.947 0.175,17.076C0.062,17.371 0.002,17.685 0,18.002C0.002,18.319 0.062,18.632 0.175,18.927C0.175,19.056 0.175,19.133 0.35,19.261C0.416,19.396 0.491,19.524 0.575,19.647L13.075,35.074C13.31,35.365 13.604,35.598 13.937,35.758C14.27,35.918 14.633,36.001 15,36C15.584,36.001 16.15,35.792 16.6,35.409C16.853,35.193 17.062,34.928 17.216,34.629C17.369,34.329 17.464,34.002 17.494,33.665C17.524,33.329 17.489,32.989 17.392,32.666C17.294,32.343 17.135,32.043 16.925,31.783L7.85,20.573L37.5,20.573C38.163,20.573 38.799,20.302 39.268,19.82C39.737,19.338 40,18.684 40,18.002C40,17.32 39.737,16.666 39.268,16.184C38.799,15.701 38.163,15.43 37.5,15.43Z" fill="#181818"/>
</svg>
