<svg width="40" height="40" viewBox="0 0 40 40" fill="none" xmlns="http://www.w3.org/2000/svg" xmlns:xlink="http://www.w3.org/1999/xlink">
<path d="M20,40C16.044,40 12.178,38.827 8.889,36.629C5.6,34.432 3.036,31.308 1.522,27.654C0.009,23.999 -0.387,19.978 0.384,16.098C1.156,12.219 3.061,8.655 5.858,5.858C8.655,3.061 12.219,1.156 16.098,0.384C19.978,-0.387 23.999,0.009 27.654,1.522C31.308,3.036 34.432,5.6 36.629,8.889C38.827,12.178 40,16.044 40,20C40,25.304 37.893,30.391 34.142,34.142C30.391,37.893 25.304,40 20,40L20,40ZM20,4C16.835,4 13.742,4.938 11.111,6.697C8.48,8.455 6.429,10.953 5.218,13.877C4.007,16.801 3.69,20.018 4.307,23.121C4.925,26.225 6.449,29.076 8.686,31.314C10.924,33.551 13.775,35.075 16.879,35.693C19.982,36.31 23.199,35.993 26.123,34.782C29.047,33.571 31.545,31.52 33.304,28.889C35.062,26.258 36,23.165 36,20C36,15.757 34.314,11.687 31.314,8.686C28.313,5.686 24.243,4 20,4L20,4Z" fill="#4F4F4F"/>
</svg>
