<svg width="38" height="38" viewBox="0 0 38 38" fill="none" xmlns="http://www.w3.org/2000/svg" xmlns:xlink="http://www.w3.org/1999/xlink">
<path d="M30.806,5.266C29.143,3.592 27.164,2.264 24.984,1.36C22.804,0.456 20.466,-0.006 18.106,0C8.21,0 0.154,8.054 0.15,17.954C0.15,21.118 0.976,24.206 2.546,26.93L0,36.232L9.518,33.734C12.151,35.167 15.1,35.919 18.098,35.92L18.106,35.92C28,35.92 36.056,27.866 36.06,17.966C36.067,15.607 35.606,13.27 34.704,11.09C33.802,8.91 32.477,6.931 30.806,5.266L30.806,5.266ZM18.106,32.89L18.1,32.89C15.427,32.89 12.803,32.171 10.504,30.808L9.96,30.484L4.312,31.966L5.818,26.46L5.464,25.896C3.97,23.517 3.178,20.764 3.182,17.954C3.186,9.726 9.88,3.032 18.112,3.032C20.073,3.028 22.014,3.412 23.825,4.163C25.636,4.914 27.28,6.017 28.662,7.408C30.051,8.792 31.152,10.438 31.902,12.25C32.651,14.062 33.034,16.005 33.028,17.966C33.024,26.194 26.33,32.89 18.106,32.89ZM26.292,21.712C25.842,21.486 23.638,20.402 23.226,20.252C22.816,20.102 22.518,20.028 22.218,20.476C21.918,20.924 21.058,21.934 20.796,22.234C20.534,22.534 20.272,22.57 19.824,22.346C19.376,22.122 17.93,21.648 16.216,20.12C14.882,18.93 13.982,17.462 13.72,17.012C13.458,16.562 13.692,16.32 13.918,16.096C14.12,15.896 14.366,15.572 14.59,15.31C14.814,15.048 14.888,14.862 15.038,14.562C15.188,14.262 15.114,14 15,13.776C14.888,13.55 13.99,11.342 13.616,10.444C13.254,9.574 12.884,9.69 12.608,9.678C12.322,9.666 12.036,9.661 11.75,9.662C11.523,9.668 11.299,9.721 11.093,9.817C10.886,9.913 10.702,10.051 10.552,10.222C10.14,10.672 8.982,11.756 8.982,13.964C8.982,16.172 10.59,18.306 10.814,18.606C11.038,18.906 13.978,23.436 18.478,25.38C19.55,25.842 20.386,26.118 21.036,26.326C22.11,26.668 23.088,26.618 23.862,26.504C24.724,26.376 26.516,25.42 26.89,24.372C27.264,23.324 27.264,22.426 27.152,22.238C27.04,22.05 26.738,21.936 26.292,21.712Z" clip-rule="evenodd" fill-rule="evenodd" fill="#FDFDFD"/>
</svg>
