<svg width="22" height="22" viewBox="0 0 22 22" fill="none" xmlns="http://www.w3.org/2000/svg" xmlns:xlink="http://www.w3.org/1999/xlink">
<path d="M19.333,8.667L11.333,8.667L11.333,0.667C11.333,0.313 11.193,-0.026 10.943,-0.276C10.693,-0.526 10.354,-0.667 10,-0.667C9.646,-0.667 9.307,-0.526 9.057,-0.276C8.807,-0.026 8.667,0.313 8.667,0.667L8.667,8.667L0.667,8.667C0.313,8.667 -0.026,8.807 -0.276,9.057C-0.526,9.307 -0.667,9.646 -0.667,10C-0.667,10.354 -0.526,10.693 -0.276,10.943C-0.026,11.193 0.313,11.333 0.667,11.333L8.667,11.333L8.667,19.333C8.667,19.687 8.807,20.026 9.057,20.276C9.307,20.526 9.646,20.667 10,20.667C10.354,20.667 10.693,20.526 10.943,20.276C11.193,20.026 11.333,19.687 11.333,19.333L11.333,11.333L19.333,11.333C19.687,11.333 20.026,11.193 20.276,10.943C20.526,10.693 20.667,10.354 20.667,10C20.667,9.646 20.526,9.307 20.276,9.057C20.026,8.807 19.687,8.667 19.333,8.667Z" fill="#181818"/>
</svg>
