<svg width="28" height="28" viewBox="0 0 28 28" fill="none" xmlns="http://www.w3.org/2000/svg" xmlns:xlink="http://www.w3.org/1999/xlink">
<path d="M24.667,3.333L24.667,20.893L23.107,19.333L3.333,19.333L3.333,3.333L24.667,3.333ZM24.667,0.667L3.333,0.667C1.867,0.667 0.667,1.867 0.667,3.333L0.667,19.333C0.667,20.8 1.867,22 3.333,22L22,22L27.333,27.333L27.333,3.333C27.333,1.867 26.133,0.667 24.667,0.667ZM22,14L6,14L6,16.667L22,16.667L22,14ZM22,10L6,10L6,12.667L22,12.667L22,10ZM22,6L6,6L6,8.667L22,8.667L22,6Z" fill="#4C6ED7"/>
</svg>
