<svg width="40" height="40" viewBox="0 0 40 40" fill="none" xmlns="http://www.w3.org/2000/svg" xmlns:xlink="http://www.w3.org/1999/xlink">
<path d="M36,36L36,14.264L20,4.664L4,14.264L4,36L12,36L12,30.5C12,28.378 12.843,26.343 14.343,24.843C15.843,23.343 17.878,22.5 20,22.5C22.122,22.5 24.157,23.343 25.657,24.843C27.157,26.343 28,28.378 28,30.5L28,36L36,36ZM24,40L24,30.5C24,29.439 23.579,28.422 22.828,27.672C22.078,26.921 21.061,26.5 20,26.5C18.939,26.5 17.922,26.921 17.172,27.672C16.421,28.422 16,29.439 16,30.5L16,40L4,40C2.939,40 1.922,39.579 1.172,38.828C0.421,38.078 0,37.061 0,36L0,14.264C0,13.573 0.179,12.894 0.519,12.293C0.86,11.692 1.35,11.189 1.942,10.834L17.942,1.234C18.564,0.861 19.275,0.664 20,0.664C20.725,0.664 21.436,0.861 22.058,1.234L38.058,10.834C38.65,11.189 39.14,11.692 39.481,12.293C39.821,12.894 40,13.573 40,14.264L40,36C40,37.061 39.579,38.078 38.828,38.828C38.078,39.579 37.061,40 36,40L24,40Z" fill="#4F4F4F"/>
</svg>
