<svg width="24" height="28" viewBox="0 0 24 28" fill="none" xmlns="http://www.w3.org/2000/svg" xmlns:xlink="http://www.w3.org/1999/xlink">
<path d="M20,8.667L22.667,8.667C23.02,8.667 23.359,8.807 23.609,9.057C23.86,9.307 24,9.647 24,10L24,26C24,26.354 23.86,26.693 23.609,26.943C23.359,27.193 23.02,27.333 22.667,27.333L1.333,27.333C0.98,27.333 0.641,27.193 0.391,26.943C0.14,26.693 0,26.354 0,26L0,10C0,9.647 0.14,9.307 0.391,9.057C0.641,8.807 0.98,8.667 1.333,8.667L4,8.667L4,7.333C4,5.212 4.843,3.177 6.343,1.677C7.843,0.176 9.878,-0.667 12,-0.667C14.122,-0.667 16.157,0.176 17.657,1.677C19.157,3.177 20,5.212 20,7.333L20,8.667ZM17.333,8.667L17.333,7.333C17.333,5.919 16.771,4.562 15.771,3.562C14.771,2.562 13.414,2 12,2C10.586,2 9.229,2.562 8.229,3.562C7.229,4.562 6.667,5.919 6.667,7.333L6.667,8.667L17.333,8.667ZM10.667,16.667L10.667,19.333L13.333,19.333L13.333,16.667L10.667,16.667ZM5.333,16.667L5.333,19.333L8,19.333L8,16.667L5.333,16.667ZM16,16.667L16,19.333L18.667,19.333L18.667,16.667L16,16.667Z" fill="#4C6ED7"/>
</svg>
