<svg width="42" height="32" viewBox="0 0 42 32" fill="none" xmlns="http://www.w3.org/2000/svg" xmlns:xlink="http://www.w3.org/1999/xlink">
<path d="M42,3.788C40.455,4.431 38.794,4.865 37.051,5.06C38.83,4.06 40.196,2.477 40.84,0.591C39.148,1.532 37.298,2.195 35.368,2.551C33.796,0.981 31.557,0 29.078,0C24.319,0 20.461,3.617 20.461,8.078C20.461,8.711 20.538,9.328 20.684,9.919C13.523,9.582 7.174,6.366 2.924,1.479C2.182,2.672 1.757,4.06 1.757,5.54C1.757,8.343 3.279,10.815 5.591,12.264C4.222,12.224 2.884,11.877 1.688,11.254C1.687,11.287 1.687,11.321 1.687,11.355C1.687,15.269 4.657,18.534 8.599,19.276C7.33,19.6 5.999,19.647 4.708,19.415C5.804,22.624 8.987,24.96 12.757,25.025C9.808,27.192 6.092,28.483 2.056,28.483C1.36,28.483 0.674,28.445 0,28.37C3.813,30.663 8.343,32 13.209,32C29.058,32 37.725,19.69 37.725,9.015C37.725,8.665 37.717,8.316 37.7,7.97C39.387,6.827 40.843,5.411 42,3.788Z" fill="#FDFDFD"/>
</svg>
