<svg width="14" height="20" viewBox="0 0 14 20" fill="none" xmlns="http://www.w3.org/2000/svg" xmlns:xlink="http://www.w3.org/1999/xlink">
<path d="M3,20C2.737,20.001 2.476,19.951 2.232,19.851C1.988,19.752 1.767,19.605 1.58,19.42C1.392,19.234 1.244,19.013 1.142,18.769C1.041,18.525 0.988,18.264 0.988,18C0.988,17.736 1.041,17.474 1.142,17.231C1.244,16.987 1.392,16.766 1.58,16.58L8.2,10L1.84,3.38C1.467,3.005 1.258,2.498 1.258,1.97C1.258,1.441 1.467,0.935 1.84,0.56C2.026,0.372 2.247,0.224 2.491,0.122C2.734,0.021 2.996,-0.032 3.26,-0.032C3.524,-0.032 3.785,0.021 4.029,0.122C4.273,0.224 4.494,0.372 4.68,0.56L12.4,8.56C12.766,8.934 12.972,9.436 12.972,9.96C12.972,10.483 12.766,10.986 12.4,11.36L4.4,19.36C4.22,19.554 4.004,19.71 3.764,19.82C3.524,19.93 3.264,19.991 3,20L3,20Z" fill="#4F4F4F"/>
</svg>
